<svg width="1366" height="3072" viewBox="0 0 1366 3072" fill="none" xmlns="http://www.w3.org/2000/svg">
<path d="M252 2468C254.209 2468 256 2466.21 256 2464C256 2461.79 254.209 2460 252 2460C249.791 2460 248 2461.79 248 2464C248 2466.21 249.791 2468 252 2468Z" stroke="#0989E4" stroke-width="2" stroke-linejoin="round"/>
<path d="M385 2937C387.209 2937 389 2935.21 389 2933C389 2930.79 387.209 2929 385 2929C382.791 2929 381 2930.79 381 2933C381 2935.21 382.791 2937 385 2937Z" stroke="#0989E4" stroke-width="2" stroke-linejoin="round"/>
<path d="M491 2539C493.209 2539 495 2537.21 495 2535C495 2532.79 493.209 2531 491 2531C488.791 2531 487 2532.79 487 2535C487 2537.21 488.791 2539 491 2539Z" stroke="#0989E4" stroke-width="2" stroke-linejoin="round"/>
<path d="M1065 2410C1067.21 2410 1069 2408.21 1069 2406C1069 2403.79 1067.21 2402 1065 2402C1062.79 2402 1061 2403.79 1061 2406C1061 2408.21 1062.79 2410 1065 2410Z" stroke="#0989E4" stroke-width="2" stroke-linejoin="round"/>
<path d="M220 3024C230.493 3024 239 3015.49 239 3005C239 2994.51 230.493 2986 220 2986C209.507 2986 201 2994.51 201 3005C201 3015.49 209.507 3024 220 3024Z" stroke="#0989E4" stroke-width="2" stroke-linejoin="round"/>
<g clip-path="url(#clip0)">
<path d="M583.6 2904.3C584.9 2907.2 586.5 2910.2 588.3 2911.9L593 2916.6L588.3 2921.3C586.5 2923.1 584.9 2926.1 583.6 2928.9C582.3 2926 580.7 2923 578.9 2921.3L574.2 2916.6L578.9 2911.9C580.7 2910.2 582.3 2907.2 583.6 2904.3ZM583.6 2896C583.6 2896 580.3 2906.3 576.8 2909.8C573.3 2913.3 570 2916.6 570 2916.6C570 2916.6 573.3 2919.9 576.8 2923.4C580.3 2926.9 583.6 2937.2 583.6 2937.2C583.6 2937.2 586.9 2926.9 590.4 2923.4C593.9 2919.9 597.2 2916.6 597.2 2916.6C597.2 2916.6 593.9 2913.3 590.4 2909.8C586.9 2906.3 583.6 2896 583.6 2896Z" fill="white"/>
</g>
<g clip-path="url(#clip1)">
<path d="M1256.6 2894.3C1257.9 2897.2 1259.5 2900.2 1261.3 2901.9L1266 2906.6L1261.3 2911.3C1259.5 2913.1 1257.9 2916.1 1256.6 2918.9C1255.3 2916 1253.7 2913 1251.9 2911.3L1247.2 2906.6L1251.9 2901.9C1253.7 2900.2 1255.3 2897.2 1256.6 2894.3ZM1256.6 2886C1256.6 2886 1253.3 2896.3 1249.8 2899.8C1246.3 2903.3 1243 2906.6 1243 2906.6C1243 2906.6 1246.3 2909.9 1249.8 2913.4C1253.3 2916.9 1256.6 2927.2 1256.6 2927.2C1256.6 2927.2 1259.9 2916.9 1263.4 2913.4C1266.9 2909.9 1270.2 2906.6 1270.2 2906.6C1270.2 2906.6 1266.9 2903.3 1263.4 2899.8C1259.9 2896.3 1256.6 2886 1256.6 2886Z" fill="white"/>
</g>
<path d="M918 2506C927.389 2506 935 2498.39 935 2489C935 2479.61 927.389 2472 918 2472C908.611 2472 901 2479.61 901 2489C901 2498.39 908.611 2506 918 2506Z" stroke="#314D62" stroke-width="3" stroke-linejoin="round"/>
<path d="M885.5 2489C886.881 2489 888 2487.88 888 2486.5C888 2485.12 886.881 2484 885.5 2484C884.119 2484 883 2485.12 883 2486.5C883 2487.88 884.119 2489 885.5 2489Z" fill="#314D62"/>
<path d="M894.5 2500C895.881 2500 897 2498.88 897 2497.5C897 2496.12 895.881 2495 894.5 2495C893.119 2495 892 2496.12 892 2497.5C892 2498.88 893.119 2500 894.5 2500Z" fill="#314D62"/>
<path d="M936.5 2474C937.881 2474 939 2472.88 939 2471.5C939 2470.12 937.881 2469 936.5 2469C935.119 2469 934 2470.12 934 2471.5C934 2472.88 935.119 2474 936.5 2474Z" fill="#314D62"/>
<path d="M109 2425C118.389 2425 126 2417.39 126 2408C126 2398.61 118.389 2391 109 2391C99.6112 2391 92 2398.61 92 2408C92 2417.39 99.6112 2425 109 2425Z" stroke="#314D62" stroke-width="3" stroke-linejoin="round"/>
<path d="M76.5 2408C77.8807 2408 79 2406.88 79 2405.5C79 2404.12 77.8807 2403 76.5 2403C75.1193 2403 74 2404.12 74 2405.5C74 2406.88 75.1193 2408 76.5 2408Z" fill="#314D62"/>
<path d="M85.5 2419C86.8807 2419 88 2417.88 88 2416.5C88 2415.12 86.8807 2414 85.5 2414C84.1193 2414 83 2415.12 83 2416.5C83 2417.88 84.1193 2419 85.5 2419Z" fill="#314D62"/>
<path d="M127.5 2393C128.881 2393 130 2391.88 130 2390.5C130 2389.12 128.881 2388 127.5 2388C126.119 2388 125 2389.12 125 2390.5C125 2391.88 126.119 2393 127.5 2393Z" fill="#314D62"/>
<path d="M358.637 2507.69C361.663 2514.55 369.689 2517.65 376.567 2514.62C383.445 2511.58 386.561 2503.56 383.536 2496.71C380.51 2489.85 372.484 2486.74 365.606 2489.78C358.728 2492.81 355.612 2500.84 358.637 2507.69Z" stroke="#314D62" stroke-width="3"/>
<path fill-rule="evenodd" clip-rule="evenodd" d="M350.17 2526.48C350.151 2526.54 350.133 2526.61 350.116 2526.66C350.173 2526.64 350.232 2526.62 350.293 2526.59C351.824 2525.96 353.942 2524.69 356.531 2522.78C361.668 2518.99 368.164 2513.02 374.75 2505.77C381.336 2498.52 386.654 2491.48 389.938 2486.01C391.592 2483.25 392.648 2481.02 393.131 2479.44C393.15 2479.38 393.168 2479.32 393.185 2479.26C393.128 2479.28 393.069 2479.3 393.009 2479.33C391.477 2479.96 389.36 2481.23 386.77 2483.14C384.057 2485.15 380.965 2487.76 377.68 2490.84C376.723 2490.3 375.701 2489.88 374.64 2489.59C384.784 2479.88 393.51 2474.24 395.831 2476.34C398.771 2479.01 390.329 2493.08 376.974 2507.78C363.619 2522.48 350.41 2532.24 347.47 2529.58C345.13 2527.46 350.001 2518.11 358.822 2506.97C358.905 2507.19 358.994 2507.4 359.089 2507.62C359.445 2508.42 359.871 2509.18 360.358 2509.87C357.512 2513.53 355.14 2516.95 353.364 2519.91C351.709 2522.67 350.653 2524.9 350.17 2526.48Z" fill="#314D62"/>
<path d="M452 2796C454.209 2796 456 2794.21 456 2792C456 2789.79 454.209 2788 452 2788C449.791 2788 448 2789.79 448 2792C448 2794.21 449.791 2796 452 2796Z" stroke="#0989E4" stroke-width="2" stroke-linejoin="round"/>
<path d="M537 2408C539.209 2408 541 2406.21 541 2404C541 2401.79 539.209 2400 537 2400C534.791 2400 533 2401.79 533 2404C533 2406.21 534.791 2408 537 2408Z" stroke="#0989E4" stroke-width="2" stroke-linejoin="round"/>
<path d="M1173 2944C1175.21 2944 1177 2942.21 1177 2940C1177 2937.79 1175.21 2936 1173 2936C1170.79 2936 1169 2937.79 1169 2940C1169 2942.21 1170.79 2944 1173 2944Z" stroke="#0989E4" stroke-width="2" stroke-linejoin="round"/>
<path d="M690 2507C700.493 2507 709 2498.49 709 2488C709 2477.51 700.493 2469 690 2469C679.507 2469 671 2477.51 671 2488C671 2498.49 679.507 2507 690 2507Z" stroke="#0989E4" stroke-width="2" stroke-linejoin="round"/>
<path d="M1199.53 2833.54C1194.24 2838.84 1194.24 2847.44 1199.56 2852.76C1204.87 2858.07 1213.48 2858.08 1218.78 2852.78C1224.08 2847.48 1224.07 2838.88 1218.76 2833.56C1213.44 2828.24 1204.83 2828.24 1199.53 2833.54Z" stroke="#314D62" stroke-width="3"/>
<path fill-rule="evenodd" clip-rule="evenodd" d="M1178.96 2832.43C1178.89 2832.44 1178.83 2832.44 1178.77 2832.45C1178.81 2832.5 1178.85 2832.54 1178.9 2832.59C1180.04 2833.79 1181.99 2835.3 1184.71 2837.03C1190.1 2840.45 1198.01 2844.34 1207.15 2847.87C1216.29 2851.39 1224.78 2853.8 1231.07 2854.88C1234.24 2855.43 1236.69 2855.61 1238.35 2855.49C1238.41 2855.48 1238.47 2855.48 1238.54 2855.47C1238.49 2855.43 1238.45 2855.38 1238.41 2855.33C1237.26 2854.13 1235.31 2852.62 1232.6 2850.89C1229.75 2849.09 1226.19 2847.15 1222.13 2845.2C1222.29 2844.11 1222.31 2843.01 1222.2 2841.92C1234.91 2847.87 1243.33 2853.96 1242.21 2856.89C1240.79 2860.59 1224.61 2857.8 1206.08 2850.67C1187.55 2843.53 1173.67 2834.74 1175.09 2831.04C1176.22 2828.09 1186.7 2829.25 1200.28 2833.45C1200.1 2833.6 1199.93 2833.77 1199.77 2833.93C1199.14 2834.55 1198.6 2835.22 1198.13 2835.93C1193.68 2834.6 1189.64 2833.62 1186.23 2833.04C1183.06 2832.49 1180.61 2832.31 1178.96 2832.43Z" fill="#314D62"/>
<path d="M84 2821C86.2091 2821 88 2819.21 88 2817C88 2814.79 86.2091 2813 84 2813C81.7909 2813 80 2814.79 80 2817C80 2819.21 81.7909 2821 84 2821Z" stroke="#0989E4" stroke-width="2" stroke-linejoin="round"/>
<path d="M991 2966C993.209 2966 995 2964.21 995 2962C995 2959.79 993.209 2958 991 2958C988.791 2958 987 2959.79 987 2962C987 2964.21 988.791 2966 991 2966Z" stroke="#0989E4" stroke-width="2" stroke-linejoin="round"/>
<path d="M1169 3037C1179.49 3037 1188 3028.49 1188 3018C1188 3007.51 1179.49 2999 1169 2999C1158.51 2999 1150 3007.51 1150 3018C1150 3028.49 1158.51 3037 1169 3037Z" stroke="#0989E4" stroke-width="2" stroke-linejoin="round"/>
<g clip-path="url(#clip2)">
<path d="M137.6 2929.3C138.9 2932.2 140.5 2935.2 142.3 2936.9L147 2941.6L142.3 2946.3C140.5 2948.1 138.9 2951.1 137.6 2953.9C136.3 2951 134.7 2948 132.9 2946.3L128.2 2941.6L132.9 2936.9C134.7 2935.2 136.3 2932.2 137.6 2929.3ZM137.6 2921C137.6 2921 134.3 2931.3 130.8 2934.8C127.3 2938.3 124 2941.6 124 2941.6C124 2941.6 127.3 2944.9 130.8 2948.4C134.3 2951.9 137.6 2962.2 137.6 2962.2C137.6 2962.2 140.9 2951.9 144.4 2948.4C147.9 2944.9 151.2 2941.6 151.2 2941.6C151.2 2941.6 147.9 2938.3 144.4 2934.8C140.9 2931.3 137.6 2921 137.6 2921Z" fill="white"/>
</g>
<g clip-path="url(#clip3)">
<path d="M1198.6 2516.3C1199.9 2519.2 1201.5 2522.2 1203.3 2523.9L1208 2528.6L1203.3 2533.3C1201.5 2535.1 1199.9 2538.1 1198.6 2540.9C1197.3 2538 1195.7 2535 1193.9 2533.3L1189.2 2528.6L1193.9 2523.9C1195.7 2522.2 1197.3 2519.2 1198.6 2516.3ZM1198.6 2508C1198.6 2508 1195.3 2518.3 1191.8 2521.8C1188.3 2525.3 1185 2528.6 1185 2528.6C1185 2528.6 1188.3 2531.9 1191.8 2535.4C1195.3 2538.9 1198.6 2549.2 1198.6 2549.2C1198.6 2549.2 1201.9 2538.9 1205.4 2535.4C1208.9 2531.9 1212.2 2528.6 1212.2 2528.6C1212.2 2528.6 1208.9 2525.3 1205.4 2521.8C1201.9 2518.3 1198.6 2508 1198.6 2508Z" fill="white"/>
</g>
<path d="M627 3003C636.389 3003 644 2995.39 644 2986C644 2976.61 636.389 2969 627 2969C617.611 2969 610 2976.61 610 2986C610 2995.39 617.611 3003 627 3003Z" stroke="#314D62" stroke-width="3" stroke-linejoin="round"/>
<path d="M594.5 2986C595.881 2986 597 2984.88 597 2983.5C597 2982.12 595.881 2981 594.5 2981C593.119 2981 592 2982.12 592 2983.5C592 2984.88 593.119 2986 594.5 2986Z" fill="#314D62"/>
<path d="M603.5 2997C604.881 2997 606 2995.88 606 2994.5C606 2993.12 604.881 2992 603.5 2992C602.119 2992 601 2993.12 601 2994.5C601 2995.88 602.119 2997 603.5 2997Z" fill="#314D62"/>
<path d="M645.5 2971C646.881 2971 648 2969.88 648 2968.5C648 2967.12 646.881 2966 645.5 2966C644.119 2966 643 2967.12 643 2968.5C643 2969.88 644.119 2971 645.5 2971Z" fill="#314D62"/>
<path d="M583.637 2765.69C586.663 2772.55 594.689 2775.65 601.567 2772.62C608.445 2769.58 611.561 2761.56 608.536 2754.71C605.51 2747.85 597.484 2744.74 590.606 2747.78C583.728 2750.81 580.612 2758.84 583.637 2765.69Z" stroke="#314D62" stroke-width="3"/>
<path fill-rule="evenodd" clip-rule="evenodd" d="M575.17 2784.48C575.151 2784.54 575.133 2784.61 575.116 2784.66C575.173 2784.64 575.232 2784.62 575.293 2784.59C576.824 2783.96 578.942 2782.69 581.531 2780.78C586.668 2776.99 593.164 2771.02 599.75 2763.77C606.336 2756.52 611.654 2749.48 614.938 2744.01C616.592 2741.25 617.648 2739.02 618.131 2737.44C618.15 2737.38 618.168 2737.32 618.185 2737.26C618.128 2737.28 618.069 2737.3 618.009 2737.33C616.477 2737.96 614.36 2739.23 611.77 2741.14C609.057 2743.15 605.965 2745.76 602.68 2748.84C601.723 2748.3 600.701 2747.88 599.64 2747.59C609.784 2737.88 618.51 2732.24 620.831 2734.34C623.771 2737.01 615.329 2751.08 601.974 2765.78C588.619 2780.48 575.41 2790.24 572.47 2787.58C570.13 2785.46 575.001 2776.11 583.822 2764.97C583.905 2765.19 583.994 2765.4 584.089 2765.62C584.445 2766.42 584.871 2767.18 585.358 2767.87C582.512 2771.53 580.14 2774.95 578.364 2777.91C576.709 2780.67 575.653 2782.9 575.17 2784.48Z" fill="#314D62"/>
<path d="M836.535 2894.54C831.236 2899.84 831.241 2908.44 836.558 2913.76C841.874 2919.07 850.479 2919.08 855.779 2913.78C861.078 2908.48 861.072 2899.88 855.756 2894.56C850.44 2889.24 841.834 2889.24 836.535 2894.54Z" stroke="#314D62" stroke-width="3"/>
<path fill-rule="evenodd" clip-rule="evenodd" d="M815.955 2893.43C815.89 2893.44 815.827 2893.44 815.766 2893.45C815.807 2893.5 815.851 2893.54 815.896 2893.59C817.041 2894.79 818.986 2896.3 821.705 2898.03C827.101 2901.45 835.014 2905.34 844.154 2908.87C853.294 2912.39 861.775 2914.8 868.066 2915.88C871.237 2916.43 873.695 2916.61 875.346 2916.49C875.411 2916.48 875.475 2916.48 875.535 2916.47C875.494 2916.43 875.451 2916.38 875.405 2916.33C874.26 2915.13 872.315 2913.62 869.596 2911.89C866.746 2910.09 863.194 2908.15 859.13 2906.2C859.289 2905.11 859.312 2904.01 859.198 2902.92C871.914 2908.87 880.329 2914.96 879.208 2917.89C877.788 2921.59 861.613 2918.8 843.08 2911.67C824.547 2904.53 810.673 2895.74 812.093 2892.04C813.223 2889.09 823.702 2890.25 837.278 2894.45C837.104 2894.6 836.934 2894.77 836.766 2894.93C836.144 2895.55 835.597 2896.22 835.126 2896.93C830.683 2895.6 826.638 2894.62 823.235 2894.04C820.065 2893.49 817.606 2893.31 815.955 2893.43Z" fill="#314D62"/>
<path d="M1343 2331C1345.21 2331 1347 2329.21 1347 2327C1347 2324.79 1345.21 2323 1343 2323C1340.79 2323 1339 2324.79 1339 2327C1339 2329.21 1340.79 2331 1343 2331Z" stroke="#0989E4" stroke-width="2" stroke-linejoin="round"/>
<path d="M976 2386C978.209 2386 980 2384.21 980 2382C980 2379.79 978.209 2378 976 2378C973.791 2378 972 2379.79 972 2382C972 2384.21 973.791 2386 976 2386Z" stroke="#0989E4" stroke-width="2" stroke-linejoin="round"/>
<g clip-path="url(#clip4)">
<path d="M442.6 2429.3C443.9 2432.2 445.5 2435.2 447.3 2436.9L452 2441.6L447.3 2446.3C445.5 2448.1 443.9 2451.1 442.6 2453.9C441.3 2451 439.7 2448 437.9 2446.3L433.2 2441.6L437.9 2436.9C439.7 2435.2 441.3 2432.2 442.6 2429.3ZM442.6 2421C442.6 2421 439.3 2431.3 435.8 2434.8C432.3 2438.3 429 2441.6 429 2441.6C429 2441.6 432.3 2444.9 435.8 2448.4C439.3 2451.9 442.6 2462.2 442.6 2462.2C442.6 2462.2 445.9 2451.9 449.4 2448.4C452.9 2444.9 456.2 2441.6 456.2 2441.6C456.2 2441.6 452.9 2438.3 449.4 2434.8C445.9 2431.3 442.6 2421 442.6 2421Z" fill="white"/>
</g>
<g clip-path="url(#clip5)">
<path d="M157.6 2468.3C158.9 2471.2 160.5 2474.2 162.3 2475.9L167 2480.6L162.3 2485.3C160.5 2487.1 158.9 2490.1 157.6 2492.9C156.3 2490 154.7 2487 152.9 2485.3L148.2 2480.6L152.9 2475.9C154.7 2474.2 156.3 2471.2 157.6 2468.3ZM157.6 2460C157.6 2460 154.3 2470.3 150.8 2473.8C147.3 2477.3 144 2480.6 144 2480.6C144 2480.6 147.3 2483.9 150.8 2487.4C154.3 2490.9 157.6 2501.2 157.6 2501.2C157.6 2501.2 160.9 2490.9 164.4 2487.4C167.9 2483.9 171.2 2480.6 171.2 2480.6C171.2 2480.6 167.9 2477.3 164.4 2473.8C160.9 2470.3 157.6 2460 157.6 2460Z" fill="white"/>
</g>
<g clip-path="url(#clip6)">
<path d="M1307.6 2754.3C1308.9 2757.2 1310.5 2760.2 1312.3 2761.9L1317 2766.6L1312.3 2771.3C1310.5 2773.1 1308.9 2776.1 1307.6 2778.9C1306.3 2776 1304.7 2773 1302.9 2771.3L1298.2 2766.6L1302.9 2761.9C1304.7 2760.2 1306.3 2757.2 1307.6 2754.3ZM1307.6 2746C1307.6 2746 1304.3 2756.3 1300.8 2759.8C1297.3 2763.3 1294 2766.6 1294 2766.6C1294 2766.6 1297.3 2769.9 1300.8 2773.4C1304.3 2776.9 1307.6 2787.2 1307.6 2787.2C1307.6 2787.2 1310.9 2776.9 1314.4 2773.4C1317.9 2769.9 1321.2 2766.6 1321.2 2766.6C1321.2 2766.6 1317.9 2763.3 1314.4 2759.8C1310.9 2756.3 1307.6 2746 1307.6 2746Z" fill="white"/>
</g>
<path d="M225.6 2903.3C226.9 2906.2 228.5 2909.2 230.3 2910.9L235 2915.6L230.3 2920.3C228.5 2922.1 226.9 2925.1 225.6 2927.9C224.3 2925 222.7 2922 220.9 2920.3L216.2 2915.6L220.9 2910.9C222.7 2909.2 224.3 2906.2 225.6 2903.3ZM225.6 2895C225.6 2895 222.3 2905.3 218.8 2908.8C215.3 2912.3 212 2915.6 212 2915.6C212 2915.6 215.3 2918.9 218.8 2922.4C222.3 2925.9 225.6 2936.2 225.6 2936.2C225.6 2936.2 228.9 2925.9 232.4 2922.4C235.9 2918.9 239.2 2915.6 239.2 2915.6C239.2 2915.6 235.9 2912.3 232.4 2908.8C228.9 2905.3 225.6 2895 225.6 2895Z" fill="white"/>
<path d="M758 2665C760.209 2665 762 2663.21 762 2661C762 2658.79 760.209 2657 758 2657C755.791 2657 754 2658.79 754 2661C754 2663.21 755.791 2665 758 2665Z" fill="#314D62"/>
<path d="M844 2612C846.209 2612 848 2610.21 848 2608C848 2605.79 846.209 2604 844 2604C841.791 2604 840 2605.79 840 2608C840 2610.21 841.791 2612 844 2612Z" stroke="#0989E4" stroke-width="2" stroke-linejoin="round"/>
<g clip-path="url(#clip7)">
<path d="M1270.6 2399.3C1271.9 2402.2 1273.5 2405.2 1275.3 2406.9L1280 2411.6L1275.3 2416.3C1273.5 2418.1 1271.9 2421.1 1270.6 2423.9C1269.3 2421 1267.7 2418 1265.9 2416.3L1261.2 2411.6L1265.9 2406.9C1267.7 2405.2 1269.3 2402.2 1270.6 2399.3ZM1270.6 2391C1270.6 2391 1267.3 2401.3 1263.8 2404.8C1260.3 2408.3 1257 2411.6 1257 2411.6C1257 2411.6 1260.3 2414.9 1263.8 2418.4C1267.3 2421.9 1270.6 2432.2 1270.6 2432.2C1270.6 2432.2 1273.9 2421.9 1277.4 2418.4C1280.9 2414.9 1284.2 2411.6 1284.2 2411.6C1284.2 2411.6 1280.9 2408.3 1277.4 2404.8C1273.9 2401.3 1270.6 2391 1270.6 2391Z" fill="white"/>
</g>
<path d="M1087.6 2825.3C1088.9 2828.2 1090.5 2831.2 1092.3 2832.9L1097 2837.6L1092.3 2842.3C1090.5 2844.1 1088.9 2847.1 1087.6 2849.9C1086.3 2847 1084.7 2844 1082.9 2842.3L1078.2 2837.6L1082.9 2832.9C1084.7 2831.2 1086.3 2828.2 1087.6 2825.3ZM1087.6 2817C1087.6 2817 1084.3 2827.3 1080.8 2830.8C1077.3 2834.3 1074 2837.6 1074 2837.6C1074 2837.6 1077.3 2840.9 1080.8 2844.4C1084.3 2847.9 1087.6 2858.2 1087.6 2858.2C1087.6 2858.2 1090.9 2847.9 1094.4 2844.4C1097.9 2840.9 1101.2 2837.6 1101.2 2837.6C1101.2 2837.6 1097.9 2834.3 1094.4 2830.8C1090.9 2827.3 1087.6 2817 1087.6 2817Z" fill="white"/>
<path d="M903.383 2715C905.592 2715 907.383 2713.21 907.383 2711C907.383 2708.79 905.592 2707 903.383 2707C901.173 2707 899.383 2708.79 899.383 2711C899.383 2713.21 901.173 2715 903.383 2715Z" stroke="#0989E4" stroke-width="2" stroke-linejoin="round"/>
<path d="M1044.64 2649.69C1047.66 2656.55 1055.69 2659.65 1062.57 2656.62C1069.45 2653.58 1072.56 2645.56 1069.54 2638.71C1066.51 2631.85 1058.48 2628.74 1051.61 2631.78C1044.73 2634.81 1041.61 2642.84 1044.64 2649.69Z" stroke="#314D62" stroke-width="3"/>
<path fill-rule="evenodd" clip-rule="evenodd" d="M1036.17 2668.48C1036.15 2668.54 1036.13 2668.61 1036.12 2668.66C1036.17 2668.64 1036.23 2668.62 1036.29 2668.59C1037.82 2667.96 1039.94 2666.69 1042.53 2664.78C1047.67 2660.99 1054.16 2655.02 1060.75 2647.77C1067.34 2640.52 1072.65 2633.48 1075.94 2628.01C1077.59 2625.25 1078.65 2623.02 1079.13 2621.44C1079.15 2621.38 1079.17 2621.32 1079.19 2621.26C1079.13 2621.28 1079.07 2621.3 1079.01 2621.33C1077.48 2621.96 1075.36 2623.23 1072.77 2625.14C1070.06 2627.15 1066.96 2629.76 1063.68 2632.84C1062.72 2632.3 1061.7 2631.88 1060.64 2631.59C1070.78 2621.88 1079.51 2616.24 1081.83 2618.34C1084.77 2621.01 1076.33 2635.08 1062.97 2649.78C1049.62 2664.48 1036.41 2674.24 1033.47 2671.58C1031.13 2669.46 1036 2660.11 1044.82 2648.97C1044.9 2649.19 1044.99 2649.4 1045.09 2649.62C1045.44 2650.42 1045.87 2651.18 1046.36 2651.87C1043.51 2655.53 1041.14 2658.95 1039.36 2661.91C1037.71 2664.67 1036.65 2666.9 1036.17 2668.48Z" fill="#314D62"/>
<path d="M1040 2549C1049.39 2549 1057 2541.39 1057 2532C1057 2522.61 1049.39 2515 1040 2515C1030.61 2515 1023 2522.61 1023 2532C1023 2541.39 1030.61 2549 1040 2549Z" stroke="#314D62" stroke-width="3" stroke-linejoin="round"/>
<path d="M1007.5 2532C1008.88 2532 1010 2530.88 1010 2529.5C1010 2528.12 1008.88 2527 1007.5 2527C1006.12 2527 1005 2528.12 1005 2529.5C1005 2530.88 1006.12 2532 1007.5 2532Z" fill="#314D62"/>
<path d="M1016.5 2543C1017.88 2543 1019 2541.88 1019 2540.5C1019 2539.12 1017.88 2538 1016.5 2538C1015.12 2538 1014 2539.12 1014 2540.5C1014 2541.88 1015.12 2543 1016.5 2543Z" fill="#314D62"/>
<path d="M1058.5 2517C1059.88 2517 1061 2515.88 1061 2514.5C1061 2513.12 1059.88 2512 1058.5 2512C1057.12 2512 1056 2513.12 1056 2514.5C1056 2515.88 1057.12 2517 1058.5 2517Z" fill="#314D62"/>
<path d="M197 1762C199.209 1762 201 1760.21 201 1758C201 1755.79 199.209 1754 197 1754C194.791 1754 193 1755.79 193 1758C193 1760.21 194.791 1762 197 1762Z" fill="#314D62"/>
<path d="M283 1709C285.209 1709 287 1707.21 287 1705C287 1702.79 285.209 1701 283 1701C280.791 1701 279 1702.79 279 1705C279 1707.21 280.791 1709 283 1709Z" stroke="#0989E4" stroke-width="2" stroke-linejoin="round"/>
<path d="M648 2014C650.209 2014 652 2012.21 652 2010C652 2007.79 650.209 2006 648 2006C645.791 2006 644 2007.79 644 2010C644 2012.21 645.791 2014 648 2014Z" fill="#314D62"/>
<path d="M734 1961C736.209 1961 738 1959.21 738 1957C738 1954.79 736.209 1953 734 1953C731.791 1953 730 1954.79 730 1957C730 1959.21 731.791 1961 734 1961Z" stroke="#0989E4" stroke-width="2" stroke-linejoin="round"/>
<path d="M964 2277C973.389 2277 981 2269.39 981 2260C981 2250.61 973.389 2243 964 2243C954.611 2243 947 2250.61 947 2260C947 2269.39 954.611 2277 964 2277Z" stroke="#314D62" stroke-width="3" stroke-linejoin="round"/>
<path d="M931.5 2260C932.881 2260 934 2258.88 934 2257.5C934 2256.12 932.881 2255 931.5 2255C930.119 2255 929 2256.12 929 2257.5C929 2258.88 930.119 2260 931.5 2260Z" fill="#314D62"/>
<path d="M940.5 2271C941.881 2271 943 2269.88 943 2268.5C943 2267.12 941.881 2266 940.5 2266C939.119 2266 938 2267.12 938 2268.5C938 2269.88 939.119 2271 940.5 2271Z" fill="#314D62"/>
<path d="M982.5 2245C983.881 2245 985 2243.88 985 2242.5C985 2241.12 983.881 2240 982.5 2240C981.119 2240 980 2241.12 980 2242.5C980 2243.88 981.119 2245 982.5 2245Z" fill="#314D62"/>
<g clip-path="url(#clip8)">
<path d="M490.6 2255.3C491.9 2258.2 493.5 2261.2 495.3 2262.9L500 2267.6L495.3 2272.3C493.5 2274.1 491.9 2277.1 490.6 2279.9C489.3 2277 487.7 2274 485.9 2272.3L481.2 2267.6L485.9 2262.9C487.7 2261.2 489.3 2258.2 490.6 2255.3ZM490.6 2247C490.6 2247 487.3 2257.3 483.8 2260.8C480.3 2264.3 477 2267.6 477 2267.6C477 2267.6 480.3 2270.9 483.8 2274.4C487.3 2277.9 490.6 2288.2 490.6 2288.2C490.6 2288.2 493.9 2277.9 497.4 2274.4C500.9 2270.9 504.2 2267.6 504.2 2267.6C504.2 2267.6 500.9 2264.3 497.4 2260.8C493.9 2257.3 490.6 2247 490.6 2247Z" fill="white"/>
</g>
<g clip-path="url(#clip9)">
<path d="M1026.6 2100.3C1027.9 2103.2 1029.5 2106.2 1031.3 2107.9L1036 2112.6L1031.3 2117.3C1029.5 2119.1 1027.9 2122.1 1026.6 2124.9C1025.3 2122 1023.7 2119 1021.9 2117.3L1017.2 2112.6L1021.9 2107.9C1023.7 2106.2 1025.3 2103.2 1026.6 2100.3ZM1026.6 2092C1026.6 2092 1023.3 2102.3 1019.8 2105.8C1016.3 2109.3 1013 2112.6 1013 2112.6C1013 2112.6 1016.3 2115.9 1019.8 2119.4C1023.3 2122.9 1026.6 2133.2 1026.6 2133.2C1026.6 2133.2 1029.9 2122.9 1033.4 2119.4C1036.9 2115.9 1040.2 2112.6 1040.2 2112.6C1040.2 2112.6 1036.9 2109.3 1033.4 2105.8C1029.9 2102.3 1026.6 2092 1026.6 2092Z" fill="white"/>
</g>
<path d="M155 2246C164.389 2246 172 2238.39 172 2229C172 2219.61 164.389 2212 155 2212C145.611 2212 138 2219.61 138 2229C138 2238.39 145.611 2246 155 2246Z" stroke="#314D62" stroke-width="3" stroke-linejoin="round"/>
<path d="M122.5 2229C123.881 2229 125 2227.88 125 2226.5C125 2225.12 123.881 2224 122.5 2224C121.119 2224 120 2225.12 120 2226.5C120 2227.88 121.119 2229 122.5 2229Z" fill="#314D62"/>
<path d="M131.5 2240C132.881 2240 134 2238.88 134 2237.5C134 2236.12 132.881 2235 131.5 2235C130.119 2235 129 2236.12 129 2237.5C129 2238.88 130.119 2240 131.5 2240Z" fill="#314D62"/>
<path d="M173.5 2214C174.881 2214 176 2212.88 176 2211.5C176 2210.12 174.881 2209 173.5 2209C172.119 2209 171 2210.12 171 2211.5C171 2212.88 172.119 2214 173.5 2214Z" fill="#314D62"/>
<g clip-path="url(#clip10)">
<path d="M665.6 2199.3C666.9 2202.2 668.5 2205.2 670.3 2206.9L675 2211.6L670.3 2216.3C668.5 2218.1 666.9 2221.1 665.6 2223.9C664.3 2221 662.7 2218 660.9 2216.3L656.2 2211.6L660.9 2206.9C662.7 2205.2 664.3 2202.2 665.6 2199.3ZM665.6 2191C665.6 2191 662.3 2201.3 658.8 2204.8C655.3 2208.3 652 2211.6 652 2211.6C652 2211.6 655.3 2214.9 658.8 2218.4C662.3 2221.9 665.6 2232.2 665.6 2232.2C665.6 2232.2 668.9 2221.9 672.4 2218.4C675.9 2214.9 679.2 2211.6 679.2 2211.6C679.2 2211.6 675.9 2208.3 672.4 2204.8C668.9 2201.3 665.6 2191 665.6 2191Z" fill="white"/>
</g>
<path d="M416 2178C418.209 2178 420 2176.21 420 2174C420 2171.79 418.209 2170 416 2170C413.791 2170 412 2171.79 412 2174C412 2176.21 413.791 2178 416 2178Z" stroke="#0989E4" stroke-width="2" stroke-linejoin="round"/>
<path d="M374.637 2248.69C377.663 2255.55 385.689 2258.65 392.567 2255.62C399.445 2252.58 402.562 2244.56 399.536 2237.71C396.511 2230.85 388.485 2227.74 381.606 2230.78C374.728 2233.81 371.612 2241.84 374.637 2248.69Z" stroke="#314D62" stroke-width="3"/>
<path fill-rule="evenodd" clip-rule="evenodd" d="M366.17 2267.48C366.151 2267.54 366.133 2267.61 366.117 2267.66C366.173 2267.64 366.232 2267.62 366.293 2267.59C367.825 2266.96 369.942 2265.69 372.531 2263.78C377.669 2259.99 384.164 2254.02 390.751 2246.77C397.337 2239.52 402.654 2232.48 405.938 2227.01C407.593 2224.25 408.648 2222.02 409.131 2220.44C409.151 2220.38 409.168 2220.32 409.185 2220.26C409.128 2220.28 409.07 2220.3 409.009 2220.33C407.477 2220.96 405.36 2222.23 402.771 2224.14C400.057 2226.15 396.965 2228.76 393.681 2231.84C392.723 2231.3 391.701 2230.88 390.641 2230.59C400.785 2220.88 409.51 2215.24 411.832 2217.34C414.772 2220.01 406.329 2234.08 392.974 2248.78C379.62 2263.48 366.41 2273.24 363.47 2270.58C361.13 2268.46 366.002 2259.11 374.822 2247.97C374.905 2248.19 374.994 2248.4 375.09 2248.62C375.445 2249.42 375.871 2250.18 376.358 2250.87C373.512 2254.53 371.14 2257.95 369.364 2260.91C367.709 2263.67 366.653 2265.9 366.17 2267.48Z" fill="#314D62"/>
<path d="M298 2289C300.209 2289 302 2287.21 302 2285C302 2282.79 300.209 2281 298 2281C295.791 2281 294 2282.79 294 2285C294 2287.21 295.791 2289 298 2289Z" stroke="#0989E4" stroke-width="2" stroke-linejoin="round"/>
<path d="M1111 2191C1113.21 2191 1115 2189.21 1115 2187C1115 2184.79 1113.21 2183 1111 2183C1108.79 2183 1107 2184.79 1107 2187C1107 2189.21 1108.79 2191 1111 2191Z" stroke="#0989E4" stroke-width="2" stroke-linejoin="round"/>
<path d="M570 2254C572.209 2254 574 2252.21 574 2250C574 2247.79 572.209 2246 570 2246C567.791 2246 566 2247.79 566 2250C566 2252.21 567.791 2254 570 2254Z" stroke="#0989E4" stroke-width="2" stroke-linejoin="round"/>
<path d="M744 2246C746.209 2246 748 2244.21 748 2242C748 2239.79 746.209 2238 744 2238C741.791 2238 740 2239.79 740 2242C740 2244.21 741.791 2246 744 2246Z" stroke="#0989E4" stroke-width="2" stroke-linejoin="round"/>
<path d="M522 1780C524.209 1780 526 1778.21 526 1776C526 1773.79 524.209 1772 522 1772C519.791 1772 518 1773.79 518 1776C518 1778.21 519.791 1780 522 1780Z" stroke="#0989E4" stroke-width="2" stroke-linejoin="round"/>
<path d="M1096 1671C1098.21 1671 1100 1669.21 1100 1667C1100 1664.79 1098.21 1663 1096 1663C1093.79 1663 1092 1664.79 1092 1667C1092 1669.21 1093.79 1671 1096 1671Z" stroke="#0989E4" stroke-width="2" stroke-linejoin="round"/>
<path d="M386 2090C396.493 2090 405 2081.49 405 2071C405 2060.51 396.493 2052 386 2052C375.507 2052 367 2060.51 367 2071C367 2081.49 375.507 2090 386 2090Z" stroke="#0989E4" stroke-width="2" stroke-linejoin="round"/>
<g clip-path="url(#clip11)">
<path d="M475.6 1676.3C476.9 1679.2 478.5 1682.2 480.3 1683.9L485 1688.6L480.3 1693.3C478.5 1695.1 476.9 1698.1 475.6 1700.9C474.3 1698 472.7 1695 470.9 1693.3L466.2 1688.6L470.9 1683.9C472.7 1682.2 474.3 1679.2 475.6 1676.3ZM475.6 1668C475.6 1668 472.3 1678.3 468.8 1681.8C465.3 1685.3 462 1688.6 462 1688.6C462 1688.6 465.3 1691.9 468.8 1695.4C472.3 1698.9 475.6 1709.2 475.6 1709.2C475.6 1709.2 478.9 1698.9 482.4 1695.4C485.9 1691.9 489.2 1688.6 489.2 1688.6C489.2 1688.6 485.9 1685.3 482.4 1681.8C478.9 1678.3 475.6 1668 475.6 1668Z" fill="white"/>
</g>
<g clip-path="url(#clip12)">
<path d="M1230.6 1613.3C1231.9 1616.2 1233.5 1619.2 1235.3 1620.9L1240 1625.6L1235.3 1630.3C1233.5 1632.1 1231.9 1635.1 1230.6 1637.9C1229.3 1635 1227.7 1632 1225.9 1630.3L1221.2 1625.6L1225.9 1620.9C1227.7 1619.2 1229.3 1616.2 1230.6 1613.3ZM1230.6 1605C1230.6 1605 1227.3 1615.3 1223.8 1618.8C1220.3 1622.3 1217 1625.6 1217 1625.6C1217 1625.6 1220.3 1628.9 1223.8 1632.4C1227.3 1635.9 1230.6 1646.2 1230.6 1646.2C1230.6 1646.2 1233.9 1635.9 1237.4 1632.4C1240.9 1628.9 1244.2 1625.6 1244.2 1625.6C1244.2 1625.6 1240.9 1622.3 1237.4 1618.8C1233.9 1615.3 1230.6 1605 1230.6 1605Z" fill="white"/>
</g>
<g clip-path="url(#clip13)">
<path d="M1285.6 2135.3C1286.9 2138.2 1288.5 2141.2 1290.3 2142.9L1295 2147.6L1290.3 2152.3C1288.5 2154.1 1286.9 2157.1 1285.6 2159.9C1284.3 2157 1282.7 2154 1280.9 2152.3L1276.2 2147.6L1280.9 2142.9C1282.7 2141.2 1284.3 2138.2 1285.6 2135.3ZM1285.6 2127C1285.6 2127 1282.3 2137.3 1278.8 2140.8C1275.3 2144.3 1272 2147.6 1272 2147.6C1272 2147.6 1275.3 2150.9 1278.8 2154.4C1282.3 2157.9 1285.6 2168.2 1285.6 2168.2C1285.6 2168.2 1288.9 2157.9 1292.4 2154.4C1295.9 2150.9 1299.2 2147.6 1299.2 2147.6C1299.2 2147.6 1295.9 2144.3 1292.4 2140.8C1288.9 2137.3 1285.6 2127 1285.6 2127Z" fill="white"/>
</g>
<path d="M949 1747C958.389 1747 966 1739.39 966 1730C966 1720.61 958.389 1713 949 1713C939.611 1713 932 1720.61 932 1730C932 1739.39 939.611 1747 949 1747Z" stroke="#314D62" stroke-width="3" stroke-linejoin="round"/>
<path d="M916.5 1730C917.881 1730 919 1728.88 919 1727.5C919 1726.12 917.881 1725 916.5 1725C915.119 1725 914 1726.12 914 1727.5C914 1728.88 915.119 1730 916.5 1730Z" fill="#314D62"/>
<path d="M925.5 1741C926.881 1741 928 1739.88 928 1738.5C928 1737.12 926.881 1736 925.5 1736C924.119 1736 923 1737.12 923 1738.5C923 1739.88 924.119 1741 925.5 1741Z" fill="#314D62"/>
<path d="M967.5 1715C968.881 1715 970 1713.88 970 1712.5C970 1711.12 968.881 1710 967.5 1710C966.119 1710 965 1711.12 965 1712.5C965 1713.88 966.119 1715 967.5 1715Z" fill="#314D62"/>
<path d="M140 1666C149.389 1666 157 1658.39 157 1649C157 1639.61 149.389 1632 140 1632C130.611 1632 123 1639.61 123 1649C123 1658.39 130.611 1666 140 1666Z" stroke="#314D62" stroke-width="3" stroke-linejoin="round"/>
<path d="M107.5 1649C108.881 1649 110 1647.88 110 1646.5C110 1645.12 108.881 1644 107.5 1644C106.119 1644 105 1645.12 105 1646.5C105 1647.88 106.119 1649 107.5 1649Z" fill="#314D62"/>
<path d="M116.5 1660C117.881 1660 119 1658.88 119 1657.5C119 1656.12 117.881 1655 116.5 1655C115.119 1655 114 1656.12 114 1657.5C114 1658.88 115.119 1660 116.5 1660Z" fill="#314D62"/>
<path d="M158.5 1634C159.881 1634 161 1632.88 161 1631.5C161 1630.12 159.881 1629 158.5 1629C157.119 1629 156 1630.12 156 1631.5C156 1632.88 157.119 1634 158.5 1634Z" fill="#314D62"/>
<path d="M434.255 1858.69C437.28 1865.55 445.306 1868.65 452.184 1865.62C459.063 1862.58 462.179 1854.56 459.153 1847.71C456.128 1840.85 448.102 1837.74 441.224 1840.78C434.345 1843.81 431.229 1851.84 434.255 1858.69Z" stroke="#314D62" stroke-width="3"/>
<path fill-rule="evenodd" clip-rule="evenodd" d="M425.788 1877.48C425.768 1877.54 425.75 1877.61 425.734 1877.66C425.791 1877.64 425.849 1877.62 425.91 1877.59C427.442 1876.96 429.559 1875.69 432.148 1873.78C437.286 1869.99 443.782 1864.02 450.368 1856.77C456.954 1849.52 462.271 1842.48 465.555 1837.01C467.21 1834.25 468.266 1832.02 468.749 1830.44C468.768 1830.38 468.786 1830.32 468.802 1830.26C468.746 1830.28 468.687 1830.3 468.626 1830.33C467.094 1830.96 464.977 1832.23 462.388 1834.14C459.674 1836.15 456.582 1838.76 453.298 1841.84C452.341 1841.3 451.319 1840.88 450.258 1840.59C460.402 1830.88 469.127 1825.24 471.449 1827.34C474.389 1830.01 465.946 1844.08 452.591 1858.78C439.237 1873.48 426.027 1883.24 423.087 1880.58C420.747 1878.46 425.619 1869.11 434.439 1857.97C434.522 1858.19 434.611 1858.4 434.707 1858.62C435.062 1859.42 435.488 1860.18 435.975 1860.87C433.129 1864.53 430.758 1867.95 428.981 1870.91C427.326 1873.67 426.271 1875.9 425.788 1877.48Z" fill="#314D62"/>
<path d="M1184.53 2245.54C1179.24 2250.84 1179.24 2259.44 1184.56 2264.76C1189.87 2270.07 1198.48 2270.08 1203.78 2264.78C1209.08 2259.48 1209.07 2250.88 1203.76 2245.56C1198.44 2240.24 1189.83 2240.24 1184.53 2245.54Z" stroke="#314D62" stroke-width="3"/>
<path fill-rule="evenodd" clip-rule="evenodd" d="M1163.96 2244.43C1163.89 2244.44 1163.83 2244.44 1163.77 2244.45C1163.81 2244.5 1163.85 2244.54 1163.9 2244.59C1165.04 2245.79 1166.99 2247.3 1169.71 2249.03C1175.1 2252.45 1183.01 2256.34 1192.15 2259.87C1201.29 2263.39 1209.78 2265.8 1216.07 2266.88C1219.24 2267.43 1221.69 2267.61 1223.35 2267.49C1223.41 2267.48 1223.47 2267.48 1223.54 2267.47C1223.49 2267.43 1223.45 2267.38 1223.41 2267.33C1222.26 2266.13 1220.31 2264.62 1217.6 2262.89C1214.75 2261.09 1211.19 2259.15 1207.13 2257.2C1207.29 2256.11 1207.31 2255.01 1207.2 2253.92C1219.91 2259.87 1228.33 2265.96 1227.21 2268.89C1225.79 2272.59 1209.61 2269.8 1191.08 2262.67C1172.55 2255.53 1158.67 2246.74 1160.09 2243.04C1161.22 2240.09 1171.7 2241.25 1185.28 2245.45C1185.1 2245.6 1184.93 2245.77 1184.77 2245.93C1184.14 2246.55 1183.6 2247.22 1183.13 2247.93C1178.68 2246.6 1174.64 2245.62 1171.23 2245.04C1168.06 2244.49 1165.61 2244.31 1163.96 2244.43Z" fill="#314D62"/>
<path d="M1177 1655C1174.79 1655 1173 1656.79 1173 1659C1173 1661.21 1174.79 1663 1177 1663C1179.21 1663 1181 1661.21 1181 1659C1181 1656.79 1179.21 1655 1177 1655Z" fill="white"/>
<path d="M1059 1649C1061.21 1649 1063 1647.21 1063 1645C1063 1642.79 1061.21 1641 1059 1641C1056.79 1641 1055 1642.79 1055 1645C1055 1647.21 1056.79 1649 1059 1649Z" fill="white"/>
<path d="M49 2233C51.2091 2233 53 2231.21 53 2229C53 2226.79 51.2091 2225 49 2225C46.7909 2225 45 2226.79 45 2229C45 2231.21 46.7909 2233 49 2233Z" stroke="#0989E4" stroke-width="2" stroke-linejoin="round"/>
<path d="M155 1835C157.209 1835 159 1833.21 159 1831C159 1828.79 157.209 1827 155 1827C152.791 1827 151 1828.79 151 1831C151 1833.21 152.791 1835 155 1835Z" stroke="#0989E4" stroke-width="2" stroke-linejoin="round"/>
<path d="M729 1666C731.209 1666 733 1664.21 733 1662C733 1659.79 731.209 1658 729 1658C726.791 1658 725 1659.79 725 1662C725 1664.21 726.791 1666 729 1666Z" stroke="#0989E4" stroke-width="2" stroke-linejoin="round"/>
<path d="M26 2160C36.4934 2160 45 2151.49 45 2141C45 2130.51 36.4934 2122 26 2122C15.5066 2122 7 2130.51 7 2141C7 2151.49 15.5066 2160 26 2160Z" stroke="#0989E4" stroke-width="2" stroke-linejoin="round"/>
<g clip-path="url(#clip14)">
<path d="M649.6 1619.3C650.9 1622.2 652.5 1625.2 654.3 1626.9L659 1631.6L654.3 1636.3C652.5 1638.1 650.9 1641.1 649.6 1643.9C648.3 1641 646.7 1638 644.9 1636.3L640.2 1631.6L644.9 1626.9C646.7 1625.2 648.3 1622.2 649.6 1619.3ZM649.6 1611C649.6 1611 646.3 1621.3 642.8 1624.8C639.3 1628.3 636 1631.6 636 1631.6C636 1631.6 639.3 1634.9 642.8 1638.4C646.3 1641.9 649.6 1652.2 649.6 1652.2C649.6 1652.2 652.9 1641.9 656.4 1638.4C659.9 1634.9 663.2 1631.6 663.2 1631.6C663.2 1631.6 659.9 1628.3 656.4 1624.8C652.9 1621.3 649.6 1611 649.6 1611Z" fill="white"/>
</g>
<g clip-path="url(#clip15)">
<path d="M977.6 2174.3C978.9 2177.2 980.5 2180.2 982.3 2181.9L987 2186.6L982.3 2191.3C980.5 2193.1 978.9 2196.1 977.6 2198.9C976.3 2196 974.7 2193 972.9 2191.3L968.2 2186.6L972.9 2181.9C974.7 2180.2 976.3 2177.2 977.6 2174.3ZM977.6 2166C977.6 2166 974.3 2176.3 970.8 2179.8C967.3 2183.3 964 2186.6 964 2186.6C964 2186.6 967.3 2189.9 970.8 2193.4C974.3 2196.9 977.6 2207.2 977.6 2207.2C977.6 2207.2 980.9 2196.9 984.4 2193.4C987.9 2189.9 991.2 2186.6 991.2 2186.6C991.2 2186.6 987.9 2183.3 984.4 2179.8C980.9 2176.3 977.6 2166 977.6 2166Z" fill="white"/>
</g>
<path d="M609 1790C618.389 1790 626 1782.39 626 1773C626 1763.61 618.389 1756 609 1756C599.611 1756 592 1763.61 592 1773C592 1782.39 599.611 1790 609 1790Z" stroke="#314D62" stroke-width="3" stroke-linejoin="round"/>
<path d="M576.5 1773C577.881 1773 579 1771.88 579 1770.5C579 1769.12 577.881 1768 576.5 1768C575.119 1768 574 1769.12 574 1770.5C574 1771.88 575.119 1773 576.5 1773Z" fill="#314D62"/>
<path d="M585.5 1784C586.881 1784 588 1782.88 588 1781.5C588 1780.12 586.881 1779 585.5 1779C584.119 1779 583 1780.12 583 1781.5C583 1782.88 584.119 1784 585.5 1784Z" fill="#314D62"/>
<path d="M627.5 1758C628.881 1758 630 1756.88 630 1755.5C630 1754.12 628.881 1753 627.5 1753C626.119 1753 625 1754.12 625 1755.5C625 1756.88 626.119 1758 627.5 1758Z" fill="#314D62"/>
<path d="M84.6372 1910.69C87.6627 1917.55 95.6885 1920.65 102.567 1917.62C109.445 1914.58 112.561 1906.56 109.536 1899.71C106.51 1892.85 98.4844 1889.74 91.6061 1892.78C84.7277 1895.81 81.6117 1903.84 84.6372 1910.69Z" stroke="#314D62" stroke-width="3"/>
<path fill-rule="evenodd" clip-rule="evenodd" d="M76.1701 1929.48C76.1509 1929.54 76.133 1929.61 76.1163 1929.66C76.1732 1929.64 76.232 1929.62 76.2927 1929.59C77.8244 1928.96 79.9418 1927.69 82.5308 1925.78C87.6685 1921.99 94.1642 1916.02 100.75 1908.77C107.336 1901.52 112.654 1894.48 115.938 1889.01C117.592 1886.25 118.648 1884.02 119.131 1882.44C119.15 1882.38 119.168 1882.32 119.185 1882.26C119.128 1882.28 119.069 1882.3 119.009 1882.33C117.477 1882.96 115.36 1884.23 112.77 1886.14C110.057 1888.15 106.965 1890.76 103.68 1893.84C102.723 1893.3 101.701 1892.88 100.64 1892.59C110.784 1882.88 119.51 1877.24 121.831 1879.34C124.771 1882.01 116.329 1896.08 102.974 1910.78C89.6193 1925.48 76.4098 1935.24 73.4698 1932.58C71.1296 1930.46 76.0015 1921.11 84.822 1909.97C84.9049 1910.19 84.994 1910.4 85.0895 1910.62C85.4447 1911.42 85.871 1912.18 86.3578 1912.87C83.5119 1916.53 81.1402 1919.95 79.3637 1922.91C77.7089 1925.67 76.6532 1927.9 76.1701 1929.48Z" fill="#314D62"/>
<path d="M817.533 2240.54C812.234 2245.84 812.24 2254.44 817.556 2259.76C822.872 2265.07 831.477 2265.08 836.777 2259.78C842.076 2254.48 842.07 2245.88 836.754 2240.56C831.438 2235.24 822.832 2235.24 817.533 2240.54Z" stroke="#314D62" stroke-width="3"/>
<path fill-rule="evenodd" clip-rule="evenodd" d="M796.953 2239.43C796.888 2239.44 796.825 2239.44 796.764 2239.45C796.805 2239.5 796.849 2239.54 796.894 2239.59C798.039 2240.79 799.984 2242.3 802.704 2244.03C808.099 2247.45 816.012 2251.34 825.152 2254.87C834.292 2258.39 842.773 2260.8 849.064 2261.88C852.235 2262.43 854.693 2262.61 856.344 2262.49C856.41 2262.48 856.473 2262.48 856.533 2262.47C856.492 2262.43 856.449 2262.38 856.403 2262.33C855.258 2261.13 853.313 2259.62 850.594 2257.89C847.744 2256.09 844.192 2254.15 840.128 2252.2C840.287 2251.11 840.31 2250.01 840.196 2248.92C852.912 2254.87 861.327 2260.96 860.206 2263.89C858.786 2267.59 842.611 2264.8 824.078 2257.67C805.545 2250.53 791.671 2241.74 793.091 2238.04C794.221 2235.09 804.7 2236.25 818.276 2240.45C818.102 2240.6 817.932 2240.77 817.764 2240.93C817.142 2241.55 816.595 2242.22 816.124 2242.93C811.681 2241.6 807.636 2240.62 804.233 2240.04C801.063 2239.49 798.605 2239.31 796.953 2239.43Z" fill="#314D62"/>
<path d="M982.532 1871.22C977.233 1876.52 977.239 1885.13 982.555 1890.45C987.871 1895.76 996.477 1895.77 1001.78 1890.47C1007.08 1885.17 1007.07 1876.56 1001.75 1871.25C996.437 1865.93 987.832 1865.93 982.532 1871.22Z" stroke="#314D62" stroke-width="3"/>
<path fill-rule="evenodd" clip-rule="evenodd" d="M961.953 1870.12C961.887 1870.13 961.824 1870.13 961.763 1870.14C961.805 1870.18 961.848 1870.23 961.894 1870.28C963.038 1871.48 964.984 1872.99 967.703 1874.71C973.099 1878.13 981.011 1882.03 990.151 1885.55C999.291 1889.07 1007.77 1891.49 1014.06 1892.57C1017.23 1893.12 1019.69 1893.3 1021.34 1893.17C1021.41 1893.17 1021.47 1893.16 1021.53 1893.16C1021.49 1893.11 1021.45 1893.07 1021.4 1893.02C1020.26 1891.82 1018.31 1890.3 1015.59 1888.58C1012.74 1886.78 1009.19 1884.84 1005.13 1882.89C1005.29 1881.8 1005.31 1880.7 1005.2 1879.6C1017.91 1885.55 1026.33 1891.65 1025.21 1894.57C1023.79 1898.28 1007.61 1895.49 989.078 1888.35C970.544 1881.22 956.671 1872.43 958.091 1868.72C959.221 1865.78 969.7 1866.94 983.276 1871.14C983.102 1871.29 982.931 1871.45 982.764 1871.62C982.142 1872.24 981.595 1872.91 981.124 1873.62C976.681 1872.29 972.636 1871.31 969.233 1870.73C966.062 1870.18 963.604 1870 961.953 1870.12Z" fill="#314D62"/>
<path d="M1087 1626C1089.21 1626 1091 1624.21 1091 1622C1091 1619.79 1089.21 1618 1087 1618C1084.79 1618 1083 1619.79 1083 1622C1083 1624.21 1084.79 1626 1087 1626Z" stroke="#0989E4" stroke-width="2" stroke-linejoin="round"/>
<path d="M793.383 2064C795.592 2064 797.383 2062.21 797.383 2060C797.383 2057.79 795.592 2056 793.383 2056C791.173 2056 789.383 2057.79 789.383 2060C789.383 2062.21 791.173 2064 793.383 2064Z" stroke="#0989E4" stroke-width="2" stroke-linejoin="round"/>
<path d="M705.637 2142.69C708.663 2149.55 716.689 2152.65 723.567 2149.62C730.445 2146.58 733.561 2138.56 730.536 2131.71C727.51 2124.85 719.484 2121.74 712.606 2124.78C705.728 2127.81 702.612 2135.84 705.637 2142.69Z" stroke="#314D62" stroke-width="3"/>
<path fill-rule="evenodd" clip-rule="evenodd" d="M697.17 2161.48C697.151 2161.54 697.133 2161.61 697.116 2161.66C697.173 2161.64 697.232 2161.62 697.293 2161.59C698.824 2160.96 700.942 2159.69 703.531 2157.78C708.668 2153.99 715.164 2148.02 721.75 2140.77C728.336 2133.52 733.654 2126.48 736.938 2121.01C738.592 2118.25 739.648 2116.02 740.131 2114.44C740.15 2114.38 740.168 2114.32 740.185 2114.26C740.128 2114.28 740.069 2114.3 740.009 2114.33C738.477 2114.96 736.36 2116.23 733.77 2118.14C731.057 2120.15 727.965 2122.76 724.68 2125.84C723.723 2125.3 722.701 2124.88 721.64 2124.59C731.784 2114.88 740.51 2109.24 742.831 2111.34C745.771 2114.01 737.329 2128.08 723.974 2142.78C710.619 2157.48 697.41 2167.24 694.47 2164.58C692.13 2162.46 697.001 2153.11 705.822 2141.97C705.905 2142.19 705.994 2142.4 706.089 2142.62C706.445 2143.42 706.871 2144.18 707.358 2144.87C704.512 2148.53 702.14 2151.95 700.364 2154.91C698.709 2157.67 697.653 2159.9 697.17 2161.48Z" fill="#314D62"/>
<path d="M880.383 2074C889.771 2074 897.383 2066.39 897.383 2057C897.383 2047.61 889.771 2040 880.383 2040C870.994 2040 863.383 2047.61 863.383 2057C863.383 2066.39 870.994 2074 880.383 2074Z" stroke="#314D62" stroke-width="3" stroke-linejoin="round"/>
<path d="M847.883 2057C849.263 2057 850.383 2055.88 850.383 2054.5C850.383 2053.12 849.263 2052 847.883 2052C846.502 2052 845.383 2053.12 845.383 2054.5C845.383 2055.88 846.502 2057 847.883 2057Z" fill="#314D62"/>
<path d="M856.883 2068C858.263 2068 859.383 2066.88 859.383 2065.5C859.383 2064.12 858.263 2063 856.883 2063C855.502 2063 854.383 2064.12 854.383 2065.5C854.383 2066.88 855.502 2068 856.883 2068Z" fill="#314D62"/>
<path d="M898.883 2042C900.263 2042 901.383 2040.88 901.383 2039.5C901.383 2038.12 900.263 2037 898.883 2037C897.502 2037 896.383 2038.12 896.383 2039.5C896.383 2040.88 897.502 2042 898.883 2042Z" fill="#314D62"/>
<g clip-path="url(#clip16)">
<path d="M123.6 1725.3C124.9 1728.2 126.5 1731.2 128.3 1732.9L133 1737.6L128.3 1742.3C126.5 1744.1 124.9 1747.1 123.6 1749.9C122.3 1747 120.7 1744 118.9 1742.3L114.2 1737.6L118.9 1732.9C120.7 1731.2 122.3 1728.2 123.6 1725.3ZM123.6 1717C123.6 1717 120.3 1727.3 116.8 1730.8C113.3 1734.3 110 1737.6 110 1737.6C110 1737.6 113.3 1740.9 116.8 1744.4C120.3 1747.9 123.6 1758.2 123.6 1758.2C123.6 1758.2 126.9 1747.9 130.4 1744.4C133.9 1740.9 137.2 1737.6 137.2 1737.6C137.2 1737.6 133.9 1734.3 130.4 1730.8C126.9 1727.3 123.6 1717 123.6 1717Z" fill="white"/>
</g>
<path d="M1163.6 2019.3C1164.9 2022.2 1166.5 2025.2 1168.3 2026.9L1173 2031.6L1168.3 2036.3C1166.5 2038.1 1164.9 2041.1 1163.6 2043.9C1162.3 2041 1160.7 2038 1158.9 2036.3L1154.2 2031.6L1158.9 2026.9C1160.7 2025.2 1162.3 2022.2 1163.6 2019.3ZM1163.6 2011C1163.6 2011 1160.3 2021.3 1156.8 2024.8C1153.3 2028.3 1150 2031.6 1150 2031.6C1150 2031.6 1153.3 2034.9 1156.8 2038.4C1160.3 2041.9 1163.6 2052.2 1163.6 2052.2C1163.6 2052.2 1166.9 2041.9 1170.4 2038.4C1173.9 2034.9 1177.2 2031.6 1177.2 2031.6C1177.2 2031.6 1173.9 2028.3 1170.4 2024.8C1166.9 2021.3 1163.6 2011 1163.6 2011Z" fill="white"/>
<g clip-path="url(#clip17)">
<path d="M1239.36 883C1237.15 883 1235.36 884.79 1235.36 887C1235.36 889.209 1237.15 891 1239.36 891C1241.56 891 1243.36 889.209 1243.36 887C1243.36 884.79 1241.56 883 1239.36 883Z" stroke="#0989E4" stroke-width="2" stroke-linejoin="round"/>
<path d="M1133.36 1281C1131.15 1281 1129.36 1282.79 1129.36 1285C1129.36 1287.21 1131.15 1289 1133.36 1289C1135.56 1289 1137.36 1287.21 1137.36 1285C1137.36 1282.79 1135.56 1281 1133.36 1281Z" stroke="#0989E4" stroke-width="2" stroke-linejoin="round"/>
<path d="M559.355 1450C557.146 1450 555.355 1451.79 555.355 1454C555.355 1456.21 557.146 1458 559.355 1458C561.565 1458 563.355 1456.21 563.355 1454C563.355 1451.79 561.565 1450 559.355 1450Z" stroke="#0989E4" stroke-width="2" stroke-linejoin="round"/>
<path d="M593 899C590.791 899 589 900.791 589 903C589 905.209 590.791 907 593 907C595.209 907 597 905.209 597 903C597 900.791 595.209 899 593 899Z" stroke="#0989E4" stroke-width="2" stroke-linejoin="round"/>
<path d="M1270.36 955C1259.86 955 1251.36 963.506 1251.36 974C1251.36 984.493 1259.86 993 1270.36 993C1280.85 993 1289.36 984.493 1289.36 974C1289.36 963.506 1280.85 955 1270.36 955Z" stroke="#0989E4" stroke-width="2" stroke-linejoin="round"/>
<path d="M1275.36 788C1273.15 788 1271.36 789.791 1271.36 792C1271.36 794.209 1273.15 796 1275.36 796C1277.56 796 1279.36 794.209 1279.36 792C1279.36 789.791 1277.56 788 1275.36 788Z" fill="#314D62"/>
<path d="M948.355 792C946.146 792 944.355 793.791 944.355 796C944.355 798.209 946.146 800 948.355 800C950.565 800 952.355 798.209 952.355 796C952.355 793.791 950.565 792 948.355 792Z" fill="white"/>
<g clip-path="url(#clip18)">
<path d="M1248.6 1433.3C1249.9 1436.2 1251.5 1439.2 1253.3 1440.9L1258 1445.6L1253.3 1450.3C1251.5 1452.1 1249.9 1455.1 1248.6 1457.9C1247.3 1455 1245.7 1452 1243.9 1450.3L1239.2 1445.6L1243.9 1440.9C1245.7 1439.2 1247.3 1436.2 1248.6 1433.3ZM1248.6 1425C1248.6 1425 1245.3 1435.3 1241.8 1438.8C1238.3 1442.3 1235 1445.6 1235 1445.6C1235 1445.6 1238.3 1448.9 1241.8 1452.4C1245.3 1455.9 1248.6 1466.2 1248.6 1466.2C1248.6 1466.2 1251.9 1455.9 1255.4 1452.4C1258.9 1448.9 1262.2 1445.6 1262.2 1445.6C1262.2 1445.6 1258.9 1442.3 1255.4 1438.8C1251.9 1435.3 1248.6 1425 1248.6 1425Z" fill="white"/>
</g>
<g clip-path="url(#clip19)">
<path d="M369.6 1474.3C370.9 1477.2 372.5 1480.2 374.3 1481.9L379 1486.6L374.3 1491.3C372.5 1493.1 370.9 1496.1 369.6 1498.9C368.3 1496 366.7 1493 364.9 1491.3L360.2 1486.6L364.9 1481.9C366.7 1480.2 368.3 1477.2 369.6 1474.3ZM369.6 1466C369.6 1466 366.3 1476.3 362.8 1479.8C359.3 1483.3 356 1486.6 356 1486.6C356 1486.6 359.3 1489.9 362.8 1493.4C366.3 1496.9 369.6 1507.2 369.6 1507.2C369.6 1507.2 372.9 1496.9 376.4 1493.4C379.9 1489.9 383.2 1486.6 383.2 1486.6C383.2 1486.6 379.9 1483.3 376.4 1479.8C372.9 1476.3 369.6 1466 369.6 1466Z" fill="white"/>
</g>
<g clip-path="url(#clip20)">
<path d="M468.6 869.3C469.9 872.2 471.5 875.2 473.3 876.9L478 881.6L473.3 886.3C471.5 888.1 469.9 891.1 468.6 893.9C467.3 891 465.7 888 463.9 886.3L459.2 881.6L463.9 876.9C465.7 875.2 467.3 872.2 468.6 869.3ZM468.6 861C468.6 861 465.3 871.3 461.8 874.8C458.3 878.3 455 881.6 455 881.6C455 881.6 458.3 884.9 461.8 888.4C465.3 891.9 468.6 902.2 468.6 902.2C468.6 902.2 471.9 891.9 475.4 888.4C478.9 884.9 482.2 881.6 482.2 881.6C482.2 881.6 478.9 878.3 475.4 874.8C471.9 871.3 468.6 861 468.6 861Z" fill="white"/>
</g>
<path d="M706.355 1314C696.967 1314 689.355 1321.61 689.355 1331C689.355 1340.39 696.967 1348 706.355 1348C715.744 1348 723.355 1340.39 723.355 1331C723.355 1321.61 715.744 1314 706.355 1314Z" stroke="#314D62" stroke-width="3" stroke-linejoin="round"/>
<path d="M738.855 1331C737.475 1331 736.355 1332.12 736.355 1333.5C736.355 1334.88 737.475 1336 738.855 1336C740.236 1336 741.355 1334.88 741.355 1333.5C741.355 1332.12 740.236 1331 738.855 1331Z" fill="#314D62"/>
<path d="M729.855 1320C728.475 1320 727.355 1321.12 727.355 1322.5C727.355 1323.88 728.475 1325 729.855 1325C731.236 1325 732.355 1323.88 732.355 1322.5C732.355 1321.12 731.236 1320 729.855 1320Z" fill="#314D62"/>
<path d="M687.855 1346C686.475 1346 685.355 1347.12 685.355 1348.5C685.355 1349.88 686.475 1351 687.855 1351C689.236 1351 690.355 1349.88 690.355 1348.5C690.355 1347.12 689.236 1346 687.855 1346Z" fill="#314D62"/>
<path d="M1221.1 1202.31C1218.08 1195.45 1210.05 1192.35 1203.17 1195.38C1196.29 1198.42 1193.18 1206.44 1196.2 1213.29C1199.23 1220.15 1207.25 1223.26 1214.13 1220.22C1221.01 1217.19 1224.13 1209.16 1221.1 1202.31Z" stroke="#314D62" stroke-width="3"/>
<path fill-rule="evenodd" clip-rule="evenodd" d="M1229.57 1183.52C1229.59 1183.46 1229.61 1183.39 1229.62 1183.34C1229.56 1183.36 1229.51 1183.38 1229.45 1183.41C1227.91 1184.04 1225.8 1185.31 1223.21 1187.22C1218.07 1191.01 1211.57 1196.98 1204.99 1204.23C1198.4 1211.48 1193.08 1218.52 1189.8 1223.99C1188.15 1226.75 1187.09 1228.98 1186.61 1230.56C1186.59 1230.62 1186.57 1230.68 1186.55 1230.74C1186.61 1230.72 1186.67 1230.7 1186.73 1230.67C1188.26 1230.04 1190.38 1228.77 1192.97 1226.86C1195.68 1224.85 1198.77 1222.24 1202.06 1219.16C1203.01 1219.7 1204.04 1220.12 1205.1 1220.41C1194.95 1230.12 1186.23 1235.76 1183.91 1233.66C1180.97 1230.99 1189.41 1216.92 1202.76 1202.22C1216.12 1187.52 1229.33 1177.76 1232.27 1180.42C1234.61 1182.54 1229.74 1191.89 1220.92 1203.03C1220.83 1202.81 1220.74 1202.6 1220.65 1202.38C1220.29 1201.58 1219.87 1200.82 1219.38 1200.13C1222.23 1196.47 1224.6 1193.05 1226.37 1190.09C1228.03 1187.33 1229.08 1185.1 1229.57 1183.52Z" fill="#314D62"/>
<path d="M27 960C29.2091 960 31 958.209 31 956C31 953.791 29.2091 952 27 952C24.7909 952 23 953.791 23 956C23 958.209 24.7909 960 27 960Z" stroke="#0989E4" stroke-width="2" stroke-linejoin="round"/>
<path d="M160 1429C162.209 1429 164 1427.21 164 1425C164 1422.79 162.209 1421 160 1421C157.791 1421 156 1422.79 156 1425C156 1427.21 157.791 1429 160 1429Z" stroke="#0989E4" stroke-width="2" stroke-linejoin="round"/>
<path d="M840 862C842.209 862 844 860.209 844 858C844 855.791 842.209 854 840 854C837.791 854 836 855.791 836 858C836 860.209 837.791 862 840 862Z" stroke="#0989E4" stroke-width="2" stroke-linejoin="round"/>
<path d="M117 1374C127.493 1374 136 1365.49 136 1355C136 1344.51 127.493 1336 117 1336C106.507 1336 98 1344.51 98 1355C98 1365.49 106.507 1374 117 1374Z" stroke="#0989E4" stroke-width="2" stroke-linejoin="round"/>
<g clip-path="url(#clip21)">
<path d="M184.6 995.3C185.9 998.2 187.5 1001.2 189.3 1002.9L194 1007.6L189.3 1012.3C187.5 1014.1 185.9 1017.1 184.6 1019.9C183.3 1017 181.7 1014 179.9 1012.3L175.2 1007.6L179.9 1002.9C181.7 1001.2 183.3 998.2 184.6 995.3ZM184.6 987C184.6 987 181.3 997.3 177.8 1000.8C174.3 1004.3 171 1007.6 171 1007.6C171 1007.6 174.3 1010.9 177.8 1014.4C181.3 1017.9 184.6 1028.2 184.6 1028.2C184.6 1028.2 187.9 1017.9 191.4 1014.4C194.9 1010.9 198.2 1007.6 198.2 1007.6C198.2 1007.6 194.9 1004.3 191.4 1000.8C187.9 997.3 184.6 987 184.6 987Z" fill="white"/>
</g>
<g clip-path="url(#clip22)">
<path d="M658.6 1068.3C659.9 1071.2 661.5 1074.2 663.3 1075.9L668 1080.6L663.3 1085.3C661.5 1087.1 659.9 1090.1 658.6 1092.9C657.3 1090 655.7 1087 653.9 1085.3L649.2 1080.6L653.9 1075.9C655.7 1074.2 657.3 1071.2 658.6 1068.3ZM658.6 1060C658.6 1060 655.3 1070.3 651.8 1073.8C648.3 1077.3 645 1080.6 645 1080.6C645 1080.6 648.3 1083.9 651.8 1087.4C655.3 1090.9 658.6 1101.2 658.6 1101.2C658.6 1101.2 661.9 1090.9 665.4 1087.4C668.9 1083.9 672.2 1080.6 672.2 1080.6C672.2 1080.6 668.9 1077.3 665.4 1073.8C661.9 1070.3 658.6 1060 658.6 1060Z" fill="white"/>
</g>
<g clip-path="url(#clip23)">
<path d="M1077.6 1371.3C1078.9 1374.2 1080.5 1377.2 1082.3 1378.9L1087 1383.6L1082.3 1388.3C1080.5 1390.1 1078.9 1393.1 1077.6 1395.9C1076.3 1393 1074.7 1390 1072.9 1388.3L1068.2 1383.6L1072.9 1378.9C1074.7 1377.2 1076.3 1374.2 1077.6 1371.3ZM1077.6 1363C1077.6 1363 1074.3 1373.3 1070.8 1376.8C1067.3 1380.3 1064 1383.6 1064 1383.6C1064 1383.6 1067.3 1386.9 1070.8 1390.4C1074.3 1393.9 1077.6 1404.2 1077.6 1404.2C1077.6 1404.2 1080.9 1393.9 1084.4 1390.4C1087.9 1386.9 1091.2 1383.6 1091.2 1383.6C1091.2 1383.6 1087.9 1380.3 1084.4 1376.8C1080.9 1373.3 1077.6 1363 1077.6 1363Z" fill="white"/>
</g>
<path d="M693 998C702.389 998 710 990.389 710 981C710 971.611 702.389 964 693 964C683.611 964 676 971.611 676 981C676 990.389 683.611 998 693 998Z" stroke="#314D62" stroke-width="3" stroke-linejoin="round"/>
<path d="M660.5 981C661.881 981 663 979.881 663 978.5C663 977.119 661.881 976 660.5 976C659.119 976 658 977.119 658 978.5C658 979.881 659.119 981 660.5 981Z" fill="#314D62"/>
<path d="M669.5 992C670.881 992 672 990.881 672 989.5C672 988.119 670.881 987 669.5 987C668.119 987 667 988.119 667 989.5C667 990.881 668.119 992 669.5 992Z" fill="#314D62"/>
<path d="M711.5 966C712.881 966 714 964.881 714 963.5C714 962.119 712.881 961 711.5 961C710.119 961 709 962.119 709 963.5C709 964.881 710.119 966 711.5 966Z" fill="#314D62"/>
<path d="M221.637 1047.69C224.663 1054.55 232.689 1057.65 239.567 1054.62C246.445 1051.58 249.561 1043.56 246.536 1036.71C243.51 1029.85 235.484 1026.74 228.606 1029.78C221.728 1032.81 218.612 1040.84 221.637 1047.69Z" stroke="#314D62" stroke-width="3"/>
<path fill-rule="evenodd" clip-rule="evenodd" d="M213.17 1066.48C213.151 1066.54 213.133 1066.61 213.116 1066.66C213.173 1066.64 213.232 1066.62 213.293 1066.59C214.824 1065.96 216.942 1064.69 219.531 1062.78C224.668 1058.99 231.164 1053.02 237.75 1045.77C244.336 1038.52 249.654 1031.48 252.938 1026.01C254.592 1023.25 255.648 1021.02 256.131 1019.44C256.15 1019.38 256.168 1019.32 256.185 1019.26C256.128 1019.28 256.069 1019.3 256.009 1019.33C254.477 1019.96 252.36 1021.23 249.77 1023.14C247.057 1025.15 243.965 1027.76 240.68 1030.84C239.723 1030.3 238.701 1029.88 237.64 1029.59C247.784 1019.88 256.51 1014.24 258.831 1016.34C261.771 1019.01 253.329 1033.08 239.974 1047.78C226.619 1062.48 213.41 1072.24 210.47 1069.58C208.13 1067.46 213.001 1058.11 221.822 1046.97C221.905 1047.19 221.994 1047.4 222.089 1047.62C222.445 1048.42 222.871 1049.18 223.358 1049.87C220.512 1053.53 218.14 1056.95 216.364 1059.91C214.709 1062.67 213.653 1064.9 213.17 1066.48Z" fill="#314D62"/>
<path d="M928.535 1496.54C923.236 1501.84 923.241 1510.44 928.558 1515.76C933.874 1521.07 942.479 1521.08 947.779 1515.78C953.078 1510.48 953.072 1501.88 947.756 1496.56C942.44 1491.24 933.834 1491.24 928.535 1496.54Z" stroke="#314D62" stroke-width="3"/>
<path fill-rule="evenodd" clip-rule="evenodd" d="M907.955 1495.43C907.89 1495.44 907.827 1495.44 907.766 1495.45C907.807 1495.49 907.851 1495.54 907.896 1495.59C909.041 1496.79 910.986 1498.3 913.705 1500.03C919.101 1503.45 927.014 1507.34 936.154 1510.87C945.294 1514.39 953.775 1516.8 960.066 1517.88C963.237 1518.43 965.695 1518.61 967.346 1518.49C967.411 1518.48 967.475 1518.48 967.535 1518.47C967.494 1518.43 967.451 1518.38 967.405 1518.33C966.26 1517.13 964.315 1515.62 961.596 1513.89C958.746 1512.09 955.194 1510.15 951.13 1508.2C951.289 1507.11 951.312 1506.01 951.198 1504.92C963.914 1510.87 972.329 1516.96 971.208 1519.89C969.788 1523.59 953.613 1520.8 935.08 1513.67C916.547 1506.53 902.673 1497.74 904.093 1494.04C905.223 1491.09 915.702 1492.25 929.278 1496.45C929.104 1496.6 928.934 1496.77 928.766 1496.93C928.144 1497.55 927.597 1498.22 927.126 1498.93C922.683 1497.6 918.638 1496.62 915.235 1496.04C912.065 1495.49 909.606 1495.31 907.955 1495.43Z" fill="#314D62"/>
<g clip-path="url(#clip24)">
<path d="M996.6 894.3C997.9 897.2 999.5 900.2 1001.3 901.9L1006 906.6L1001.3 911.3C999.5 913.1 997.9 916.1 996.6 918.9C995.3 916 993.7 913 991.9 911.3L987.2 906.6L991.9 901.9C993.7 900.2 995.3 897.2 996.6 894.3ZM996.6 886C996.6 886 993.3 896.3 989.8 899.8C986.3 903.3 983 906.6 983 906.6C983 906.6 986.3 909.9 989.8 913.4C993.3 916.9 996.6 927.2 996.6 927.2C996.6 927.2 999.9 916.9 1003.4 913.4C1006.9 909.9 1010.2 906.6 1010.2 906.6C1010.2 906.6 1006.9 903.3 1003.4 899.8C999.9 896.3 996.6 886 996.6 886Z" fill="white"/>
</g>
<path d="M1071 806C1073.21 806 1075 804.209 1075 802C1075 799.791 1073.21 798 1071 798C1068.79 798 1067 799.791 1067 802C1067 804.209 1068.79 806 1071 806Z" stroke="#0989E4" stroke-width="2" stroke-linejoin="round"/>
</g>
<g clip-path="url(#clip25)">
<path d="M1298 608C1295.79 608 1294 609.791 1294 612C1294 614.209 1295.79 616 1298 616C1300.21 616 1302 614.209 1302 612C1302 609.791 1300.21 608 1298 608Z" stroke="#0989E4" stroke-width="2" stroke-linejoin="round"/>
<path d="M1223.36 115C1221.15 115 1219.36 116.791 1219.36 119C1219.36 121.209 1221.15 123 1223.36 123C1225.56 123 1227.36 121.209 1227.36 119C1227.36 116.791 1225.56 115 1223.36 115Z" stroke="#0989E4" stroke-width="2" stroke-linejoin="round"/>
<path d="M1117.36 513C1115.15 513 1113.36 514.791 1113.36 517C1113.36 519.209 1115.15 521 1117.36 521C1119.56 521 1121.36 519.209 1121.36 517C1121.36 514.791 1119.56 513 1117.36 513Z" stroke="#0989E4" stroke-width="2" stroke-linejoin="round"/>
<path d="M543.355 682C541.146 682 539.355 683.791 539.355 686C539.355 688.209 541.146 690 543.355 690C545.565 690 547.355 688.209 547.355 686C547.355 683.791 545.565 682 543.355 682Z" stroke="#0989E4" stroke-width="2" stroke-linejoin="round"/>
<path d="M712 89C709.791 89 708 90.7909 708 93C708 95.2091 709.791 97 712 97C714.209 97 716 95.2091 716 93C716 90.7909 714.209 89 712 89Z" stroke="#0989E4" stroke-width="2" stroke-linejoin="round"/>
<path d="M1254.36 187C1243.86 187 1235.36 195.507 1235.36 206C1235.36 216.493 1243.86 225 1254.36 225C1264.85 225 1273.36 216.493 1273.36 206C1273.36 195.507 1264.85 187 1254.36 187Z" stroke="#0989E4" stroke-width="2" stroke-linejoin="round"/>
<g clip-path="url(#clip26)">
<path d="M1229.6 665.3C1230.9 668.2 1232.5 671.2 1234.3 672.9L1239 677.6L1234.3 682.3C1232.5 684.1 1230.9 687.1 1229.6 689.9C1228.3 687 1226.7 684 1224.9 682.3L1220.2 677.6L1224.9 672.9C1226.7 671.2 1228.3 668.2 1229.6 665.3ZM1229.6 657C1229.6 657 1226.3 667.3 1222.8 670.8C1219.3 674.3 1216 677.6 1216 677.6C1216 677.6 1219.3 680.9 1222.8 684.4C1226.3 687.9 1229.6 698.2 1229.6 698.2C1229.6 698.2 1232.9 687.9 1236.4 684.4C1239.9 680.9 1243.2 677.6 1243.2 677.6C1243.2 677.6 1239.9 674.3 1236.4 670.8C1232.9 667.3 1229.6 657 1229.6 657Z" fill="white"/>
</g>
<path d="M581 441C571.611 441 564 448.611 564 458C564 467.389 571.611 475 581 475C590.389 475 598 467.389 598 458C598 448.611 590.389 441 581 441Z" stroke="#314D62" stroke-width="3" stroke-linejoin="round"/>
<path d="M613.5 458C612.119 458 611 459.119 611 460.5C611 461.881 612.119 463 613.5 463C614.881 463 616 461.881 616 460.5C616 459.119 614.881 458 613.5 458Z" fill="#314D62"/>
<path d="M604.5 447C603.119 447 602 448.119 602 449.5C602 450.881 603.119 452 604.5 452C605.881 452 607 450.881 607 449.5C607 448.119 605.881 447 604.5 447Z" fill="#314D62"/>
<path d="M562.5 473C561.119 473 560 474.119 560 475.5C560 476.881 561.119 478 562.5 478C563.881 478 565 476.881 565 475.5C565 474.119 563.881 473 562.5 473Z" fill="#314D62"/>
<path d="M1205.1 434.308C1202.08 427.451 1194.05 424.346 1187.17 427.381C1180.29 430.417 1177.18 438.438 1180.2 445.295C1183.23 452.151 1191.25 455.256 1198.13 452.221C1205.01 449.186 1208.13 441.164 1205.1 434.308Z" stroke="#314D62" stroke-width="3"/>
<path fill-rule="evenodd" clip-rule="evenodd" d="M1213.57 415.518C1213.59 415.455 1213.61 415.395 1213.62 415.336C1213.56 415.358 1213.51 415.382 1213.45 415.407C1211.91 416.041 1209.8 417.307 1207.21 419.22C1202.07 423.015 1195.57 428.983 1188.99 436.233C1182.4 443.482 1177.08 450.517 1173.8 455.992C1172.15 458.75 1171.09 460.977 1170.61 462.561C1170.59 462.624 1170.57 462.685 1170.55 462.743C1170.61 462.721 1170.67 462.697 1170.73 462.672C1172.26 462.038 1174.38 460.772 1176.97 458.86C1179.68 456.855 1182.77 454.245 1186.06 451.159C1187.01 451.701 1188.04 452.121 1189.1 452.41C1178.95 462.116 1170.23 467.759 1167.91 465.656C1164.97 462.994 1173.41 448.919 1186.76 434.219C1200.12 419.519 1213.33 409.761 1216.27 412.423C1218.61 414.542 1213.74 423.892 1204.92 435.033C1204.83 434.815 1204.74 434.597 1204.65 434.381C1204.29 433.576 1203.87 432.824 1203.38 432.13C1206.23 428.468 1208.6 425.049 1210.37 422.088C1212.03 419.329 1213.08 417.102 1213.57 415.518Z" fill="#314D62"/>
<path d="M467.664 672.229C464.639 665.372 456.613 662.267 449.734 665.302C442.856 668.338 439.74 676.359 442.765 683.216C445.791 690.072 453.817 693.177 460.695 690.142C467.574 687.107 470.69 679.085 467.664 672.229Z" stroke="#314D62" stroke-width="3"/>
<path fill-rule="evenodd" clip-rule="evenodd" d="M476.131 653.439C476.15 653.376 476.168 653.316 476.185 653.257C476.128 653.279 476.069 653.303 476.009 653.328C474.477 653.962 472.36 655.228 469.77 657.141C464.633 660.936 458.137 666.904 451.551 674.154C444.965 681.403 439.647 688.438 436.364 693.913C434.709 696.671 433.653 698.898 433.17 700.482C433.151 700.545 433.133 700.606 433.116 700.664C433.173 700.642 433.232 700.618 433.293 700.593C434.824 699.959 436.942 698.693 439.531 696.781C442.244 694.776 445.336 692.166 448.621 689.08C449.578 689.622 450.6 690.042 451.661 690.331C441.517 700.037 432.791 705.68 430.47 703.577C427.53 700.915 435.973 686.84 449.327 672.14C462.682 657.44 475.891 647.681 478.831 650.344C481.172 652.463 476.3 661.813 467.479 672.954C467.396 672.736 467.307 672.518 467.212 672.302C466.857 671.497 466.43 670.745 465.944 670.051C468.789 666.389 471.161 662.97 472.938 660.009C474.592 657.25 475.648 655.023 476.131 653.439Z" fill="#314D62"/>
<g clip-path="url(#clip27)">
<path d="M1119.6 730.3C1120.9 733.2 1122.5 736.2 1124.3 737.9L1129 742.6L1124.3 747.3C1122.5 749.1 1120.9 752.1 1119.6 754.9C1118.3 752 1116.7 749 1114.9 747.3L1110.2 742.6L1114.9 737.9C1116.7 736.2 1118.3 733.2 1119.6 730.3ZM1119.6 722C1119.6 722 1116.3 732.3 1112.8 735.8C1109.3 739.3 1106 742.6 1106 742.6C1106 742.6 1109.3 745.9 1112.8 749.4C1116.3 752.9 1119.6 763.2 1119.6 763.2C1119.6 763.2 1122.9 752.9 1126.4 749.4C1129.9 745.9 1133.2 742.6 1133.2 742.6C1133.2 742.6 1129.9 739.3 1126.4 735.8C1122.9 732.3 1119.6 722 1119.6 722Z" fill="white"/>
</g>
<g clip-path="url(#clip28)">
<path d="M982.6 179.3C983.9 182.2 985.5 185.2 987.3 186.9L992 191.6L987.3 196.3C985.5 198.1 983.9 201.1 982.6 203.9C981.3 201 979.7 198 977.9 196.3L973.2 191.6L977.9 186.9C979.7 185.2 981.3 182.2 982.6 179.3ZM982.6 171C982.6 171 979.3 181.3 975.8 184.8C972.3 188.3 969 191.6 969 191.6C969 191.6 972.3 194.9 975.8 198.4C979.3 201.9 982.6 212.2 982.6 212.2C982.6 212.2 985.9 201.9 989.4 198.4C992.9 194.9 996.2 191.6 996.2 191.6C996.2 191.6 992.9 188.3 989.4 184.8C985.9 181.3 982.6 171 982.6 171Z" fill="white"/>
</g>
<path d="M11 192C13.2091 192 15 190.209 15 188C15 185.791 13.2091 184 11 184C8.79086 184 7 185.791 7 188C7 190.209 8.79086 192 11 192Z" stroke="#0989E4" stroke-width="2" stroke-linejoin="round"/>
<path d="M144 661C146.209 661 148 659.209 148 657C148 654.791 146.209 653 144 653C141.791 653 140 654.791 140 657C140 659.209 141.791 661 144 661Z" stroke="#0989E4" stroke-width="2" stroke-linejoin="round"/>
<path d="M317 194C319.209 194 321 192.209 321 190C321 187.791 319.209 186 317 186C314.791 186 313 187.791 313 190C313 192.209 314.791 194 317 194Z" stroke="#0989E4" stroke-width="2" stroke-linejoin="round"/>
<path d="M824 116C826.209 116 828 114.209 828 112C828 109.791 826.209 108 824 108C821.791 108 820 109.791 820 112C820 114.209 821.791 116 824 116Z" stroke="#0989E4" stroke-width="2" stroke-linejoin="round"/>
<path d="M103 589C113.493 589 122 580.493 122 570C122 559.507 113.493 551 103 551C92.5066 551 84 559.507 84 570C84 580.493 92.5066 589 103 589Z" stroke="#0989E4" stroke-width="2" stroke-linejoin="round"/>
<path d="M828 476C838.493 476 847 467.493 847 457C847 446.507 838.493 438 828 438C817.507 438 809 446.507 809 457C809 467.493 817.507 476 828 476Z" stroke="#0989E4" stroke-width="2" stroke-linejoin="round"/>
<g clip-path="url(#clip29)">
<path d="M442.6 271.3C443.9 274.2 445.5 277.2 447.3 278.9L452 283.6L447.3 288.3C445.5 290.1 443.9 293.1 442.6 295.9C441.3 293 439.7 290 437.9 288.3L433.2 283.6L437.9 278.9C439.7 277.2 441.3 274.2 442.6 271.3ZM442.6 263C442.6 263 439.3 273.3 435.8 276.8C432.3 280.3 429 283.6 429 283.6C429 283.6 432.3 286.9 435.8 290.4C439.3 293.9 442.6 304.2 442.6 304.2C442.6 304.2 445.9 293.9 449.4 290.4C452.9 286.9 456.2 283.6 456.2 283.6C456.2 283.6 452.9 280.3 449.4 276.8C445.9 273.3 442.6 263 442.6 263Z" fill="white"/>
</g>
<g clip-path="url(#clip30)">
<path d="M1061.6 603.3C1062.9 606.2 1064.5 609.2 1066.3 610.9L1071 615.6L1066.3 620.3C1064.5 622.1 1062.9 625.1 1061.6 627.9C1060.3 625 1058.7 622 1056.9 620.3L1052.2 615.6L1056.9 610.9C1058.7 609.2 1060.3 606.2 1061.6 603.3ZM1061.6 595C1061.6 595 1058.3 605.3 1054.8 608.8C1051.3 612.3 1048 615.6 1048 615.6C1048 615.6 1051.3 618.9 1054.8 622.4C1058.3 625.9 1061.6 636.2 1061.6 636.2C1061.6 636.2 1064.9 625.9 1068.4 622.4C1071.9 618.9 1075.2 615.6 1075.2 615.6C1075.2 615.6 1071.9 612.3 1068.4 608.8C1064.9 605.3 1061.6 595 1061.6 595Z" fill="white"/>
</g>
<path d="M885 296C894.389 296 902 288.389 902 279C902 269.611 894.389 262 885 262C875.611 262 868 269.611 868 279C868 288.389 875.611 296 885 296Z" stroke="#314D62" stroke-width="3" stroke-linejoin="round"/>
<path d="M852.5 279C853.881 279 855 277.881 855 276.5C855 275.119 853.881 274 852.5 274C851.119 274 850 275.119 850 276.5C850 277.881 851.119 279 852.5 279Z" fill="#314D62"/>
<path d="M861.5 290C862.881 290 864 288.881 864 287.5C864 286.119 862.881 285 861.5 285C860.119 285 859 286.119 859 287.5C859 288.881 860.119 290 861.5 290Z" fill="#314D62"/>
<path d="M903.5 264C904.881 264 906 262.881 906 261.5C906 260.119 904.881 259 903.5 259C902.119 259 901 260.119 901 261.5C901 262.881 902.119 264 903.5 264Z" fill="#314D62"/>
<path d="M150.637 292.693C153.662 299.549 161.688 302.654 168.567 299.619C175.445 296.584 178.561 288.562 175.536 281.706C172.51 274.849 164.484 271.744 157.606 274.779C150.727 277.815 147.611 285.836 150.637 292.693Z" stroke="#314D62" stroke-width="3"/>
<path fill-rule="evenodd" clip-rule="evenodd" d="M142.17 311.482C142.151 311.545 142.133 311.606 142.116 311.664C142.173 311.642 142.232 311.618 142.292 311.593C143.824 310.959 145.942 309.693 148.531 307.781C153.668 303.985 160.164 298.017 166.75 290.768C173.336 283.518 178.654 276.483 181.937 271.009C183.592 268.25 184.648 266.023 185.131 264.439C185.15 264.377 185.168 264.316 185.185 264.257C185.128 264.279 185.069 264.303 185.008 264.328C183.477 264.962 181.359 266.228 178.77 268.141C176.057 270.145 172.965 272.756 169.68 275.841C168.723 275.299 167.701 274.879 166.64 274.59C176.784 264.885 185.51 259.242 187.831 261.344C190.771 264.006 182.328 278.081 168.974 292.781C155.619 307.481 142.41 317.24 139.47 314.577C137.129 312.458 142.001 303.108 150.822 291.967C150.905 292.186 150.994 292.403 151.089 292.62C151.444 293.425 151.871 294.176 152.358 294.871C149.512 298.533 147.14 301.951 145.363 304.913C143.709 307.671 142.653 309.898 142.17 311.482Z" fill="#314D62"/>
<g clip-path="url(#clip31)">
<path d="M509.6 371.3C510.9 374.2 512.5 377.2 514.3 378.9L519 383.6L514.3 388.3C512.5 390.1 510.9 393.1 509.6 395.9C508.3 393 506.7 390 504.9 388.3L500.2 383.6L504.9 378.9C506.7 377.2 508.3 374.2 509.6 371.3ZM509.6 363C509.6 363 506.3 373.3 502.8 376.8C499.3 380.3 496 383.6 496 383.6C496 383.6 499.3 386.9 502.8 390.4C506.3 393.9 509.6 404.2 509.6 404.2C509.6 404.2 512.9 393.9 516.4 390.4C519.9 386.9 523.2 383.6 523.2 383.6C523.2 383.6 519.9 380.3 516.4 376.8C512.9 373.3 509.6 363 509.6 363Z" fill="white"/>
</g>
<path d="M490.637 110.693C493.663 117.549 501.689 120.654 508.567 117.619C515.445 114.584 518.561 106.562 515.536 99.7056C512.51 92.8491 504.484 89.7442 497.606 92.7793C490.728 95.8145 487.612 103.836 490.637 110.693Z" stroke="#314D62" stroke-width="3"/>
<path fill-rule="evenodd" clip-rule="evenodd" d="M482.17 129.482C482.151 129.545 482.133 129.606 482.116 129.664C482.173 129.642 482.232 129.618 482.293 129.593C483.824 128.959 485.942 127.693 488.531 125.781C493.668 121.985 500.164 116.017 506.75 108.768C513.336 101.518 518.654 94.4829 521.938 89.0087C523.592 86.25 524.648 84.0229 525.131 82.4392C525.15 82.3764 525.168 82.3157 525.185 82.257C525.128 82.2793 525.069 82.3031 525.009 82.3282C523.477 82.9622 521.36 84.2279 518.77 86.1406C516.057 88.1451 512.965 90.7556 509.68 93.841C508.723 93.2993 507.701 92.8789 506.64 92.5898C516.784 82.8844 525.51 77.2415 527.831 79.3439C530.771 82.0064 522.329 96.0814 508.974 110.781C495.619 125.481 482.41 135.24 479.47 132.577C477.13 130.458 482.001 121.108 490.822 109.967C490.905 110.186 490.994 110.403 491.089 110.619C491.445 111.425 491.871 112.176 492.358 112.87C489.512 116.533 487.14 119.951 485.364 122.913C483.709 125.671 482.653 127.898 482.17 129.482Z" fill="#314D62"/>
<path d="M917.465 721.183C910.423 723.746 906.791 731.548 909.363 738.613C911.934 745.678 919.731 749.32 926.773 746.757C933.815 744.194 937.447 736.392 934.875 729.327C932.304 722.262 924.507 718.62 917.465 721.183Z" stroke="#314D62" stroke-width="3"/>
<path fill-rule="evenodd" clip-rule="evenodd" d="M899.28 711.486C899.218 711.463 899.159 711.441 899.101 711.42C899.12 711.478 899.14 711.539 899.161 711.601C899.692 713.172 900.814 715.368 902.55 718.079C905.996 723.457 911.519 730.335 918.315 737.388C925.111 744.442 931.777 750.215 937.021 753.855C939.664 755.69 941.816 756.891 943.364 757.478C943.425 757.502 943.484 757.524 943.542 757.544C943.523 757.486 943.504 757.426 943.483 757.363C942.952 755.793 941.83 753.596 940.093 750.886C938.273 748.045 935.874 744.786 933.014 741.304C933.618 740.385 934.105 739.393 934.464 738.354C943.474 749.12 948.525 758.202 946.273 760.378C943.421 763.135 929.938 753.775 916.158 739.473C902.378 725.171 893.519 711.343 896.371 708.586C898.641 706.392 907.647 711.874 918.177 721.416C917.953 721.484 917.73 721.558 917.508 721.639C916.681 721.94 915.903 722.316 915.178 722.755C911.713 719.672 908.459 717.079 905.622 715.109C902.98 713.275 900.828 712.073 899.28 711.486Z" fill="#314D62"/>
<path d="M312.355 738C310.146 738 308.355 739.791 308.355 742C308.355 744.209 310.146 746 312.355 746C314.565 746 316.355 744.209 316.355 742C316.355 739.791 314.565 738 312.355 738Z" stroke="#0989E4" stroke-width="2" stroke-linejoin="round"/>
<path d="M566.355 738C564.146 738 562.355 739.791 562.355 742C562.355 744.209 564.146 746 566.355 746C568.565 746 570.355 744.209 570.355 742C570.355 739.791 568.565 738 566.355 738Z" fill="#314D62"/>
<path d="M340.355 715C338.146 715 336.355 716.791 336.355 719C336.355 721.209 338.146 723 340.355 723C342.565 723 344.355 721.209 344.355 719C344.355 716.791 342.565 715 340.355 715Z" fill="white"/>
<g clip-path="url(#clip32)">
<path d="M163.6 101.3C164.9 104.2 166.5 107.2 168.3 108.9L173 113.6L168.3 118.3C166.5 120.1 164.9 123.1 163.6 125.9C162.3 123 160.7 120 158.9 118.3L154.2 113.6L158.9 108.9C160.7 107.2 162.3 104.2 163.6 101.3ZM163.6 93C163.6 93 160.3 103.3 156.8 106.8C153.3 110.3 150 113.6 150 113.6C150 113.6 153.3 116.9 156.8 120.4C160.3 123.9 163.6 134.2 163.6 134.2C163.6 134.2 166.9 123.9 170.4 120.4C173.9 116.9 177.2 113.6 177.2 113.6C177.2 113.6 173.9 110.3 170.4 106.8C166.9 103.3 163.6 93 163.6 93Z" fill="white"/>
</g>
</g>
<defs>
<clipPath id="clip0">
<rect width="27.2" height="41.2" fill="white" transform="translate(570 2896)"/>
</clipPath>
<clipPath id="clip1">
<rect width="27.2" height="41.2" fill="white" transform="translate(1243 2886)"/>
</clipPath>
<clipPath id="clip2">
<rect width="27.2" height="41.2" fill="white" transform="translate(124 2921)"/>
</clipPath>
<clipPath id="clip3">
<rect width="27.2" height="41.2" fill="white" transform="translate(1185 2508)"/>
</clipPath>
<clipPath id="clip4">
<rect width="27.2" height="41.2" fill="white" transform="translate(429 2421)"/>
</clipPath>
<clipPath id="clip5">
<rect width="27.2" height="41.2" fill="white" transform="translate(144 2460)"/>
</clipPath>
<clipPath id="clip6">
<rect width="27.2" height="41.2" fill="white" transform="translate(1294 2746)"/>
</clipPath>
<clipPath id="clip7">
<rect width="27.2" height="41.2" fill="white" transform="translate(1257 2391)"/>
</clipPath>
<clipPath id="clip8">
<rect width="27.2" height="41.2" fill="white" transform="translate(477 2247)"/>
</clipPath>
<clipPath id="clip9">
<rect width="27.2" height="41.2" fill="white" transform="translate(1013 2092)"/>
</clipPath>
<clipPath id="clip10">
<rect width="27.2" height="41.2" fill="white" transform="translate(652 2191)"/>
</clipPath>
<clipPath id="clip11">
<rect width="27.2" height="41.2" fill="white" transform="translate(462 1668)"/>
</clipPath>
<clipPath id="clip12">
<rect width="27.2" height="41.2" fill="white" transform="translate(1217 1605)"/>
</clipPath>
<clipPath id="clip13">
<rect width="27.2" height="41.2" fill="white" transform="translate(1272 2127)"/>
</clipPath>
<clipPath id="clip14">
<rect width="27.2" height="41.2" fill="white" transform="translate(636 1611)"/>
</clipPath>
<clipPath id="clip15">
<rect width="27.2" height="41.2" fill="white" transform="translate(964 2166)"/>
</clipPath>
<clipPath id="clip16">
<rect width="27.2" height="41.2" fill="white" transform="translate(110 1717)"/>
</clipPath>
<clipPath id="clip17">
<rect width="1366" height="768" fill="white" transform="translate(0 768)"/>
</clipPath>
<clipPath id="clip18">
<rect width="27.2" height="41.2" fill="white" transform="translate(1235 1425)"/>
</clipPath>
<clipPath id="clip19">
<rect width="27.2" height="41.2" fill="white" transform="translate(356 1466)"/>
</clipPath>
<clipPath id="clip20">
<rect width="27.2" height="41.2" fill="white" transform="translate(455 861)"/>
</clipPath>
<clipPath id="clip21">
<rect width="27.2" height="41.2" fill="white" transform="translate(171 987)"/>
</clipPath>
<clipPath id="clip22">
<rect width="27.2" height="41.2" fill="white" transform="translate(645 1060)"/>
</clipPath>
<clipPath id="clip23">
<rect width="27.2" height="41.2" fill="white" transform="translate(1064 1363)"/>
</clipPath>
<clipPath id="clip24">
<rect width="27.2" height="41.2" fill="white" transform="translate(983 886)"/>
</clipPath>
<clipPath id="clip25">
<rect width="1366" height="768" fill="white"/>
</clipPath>
<clipPath id="clip26">
<rect width="27.2" height="41.2" fill="white" transform="translate(1216 657)"/>
</clipPath>
<clipPath id="clip27">
<rect width="27.2" height="41.2" fill="white" transform="translate(1106 722)"/>
</clipPath>
<clipPath id="clip28">
<rect width="27.2" height="41.2" fill="white" transform="translate(969 171)"/>
</clipPath>
<clipPath id="clip29">
<rect width="27.2" height="41.2" fill="white" transform="translate(429 263)"/>
</clipPath>
<clipPath id="clip30">
<rect width="27.2" height="41.2" fill="white" transform="translate(1048 595)"/>
</clipPath>
<clipPath id="clip31">
<rect width="27.2" height="41.2" fill="white" transform="translate(496 363)"/>
</clipPath>
<clipPath id="clip32">
<rect width="27.2" height="41.2" fill="white" transform="translate(150 93)"/>
</clipPath>
</defs>
</svg>
