<svg width="1366" height="768" viewBox="0 0 1366 768" fill="none" xmlns="http://www.w3.org/2000/svg">
<g clip-path="url(#clip0)">
<path d="M1298 608.011C1295.79 608.011 1294 609.801 1294 612.011C1294 614.22 1295.79 616.011 1298 616.011C1300.21 616.011 1302 614.22 1302 612.011C1302 609.801 1300.21 608.011 1298 608.011Z" stroke="#0989E4" stroke-width="2" stroke-linejoin="round"/>
<path d="M1223.36 115.01C1221.15 115.01 1219.36 116.801 1219.36 119.01C1219.36 121.22 1221.15 123.01 1223.36 123.01C1225.56 123.01 1227.36 121.22 1227.36 119.01C1227.36 116.801 1225.56 115.01 1223.36 115.01Z" stroke="#0989E4" stroke-width="2" stroke-linejoin="round"/>
<path d="M1117.36 513.011C1115.15 513.011 1113.36 514.802 1113.36 517.011C1113.36 519.22 1115.15 521.011 1117.36 521.011C1119.56 521.011 1121.36 519.22 1121.36 517.011C1121.36 514.802 1119.56 513.011 1117.36 513.011Z" stroke="#0989E4" stroke-width="2" stroke-linejoin="round"/>
<path d="M543.355 682.011C541.146 682.011 539.355 683.802 539.355 686.011C539.355 688.22 541.146 690.011 543.355 690.011C545.565 690.011 547.355 688.22 547.355 686.011C547.355 683.802 545.565 682.011 543.355 682.011Z" stroke="#0989E4" stroke-width="2" stroke-linejoin="round"/>
<path d="M712 89.0106C709.791 89.0106 708 90.8015 708 93.0106C708 95.2198 709.791 97.0106 712 97.0106C714.209 97.0106 716 95.2198 716 93.0106C716 90.8015 714.209 89.0106 712 89.0106Z" stroke="#0989E4" stroke-width="2" stroke-linejoin="round"/>
<path d="M1254.36 187.011C1243.86 187.011 1235.36 195.517 1235.36 206.011C1235.36 216.504 1243.86 225.011 1254.36 225.011C1264.85 225.011 1273.36 216.504 1273.36 206.011C1273.36 195.517 1264.85 187.011 1254.36 187.011Z" stroke="#0989E4" stroke-width="2" stroke-linejoin="round"/>
<g clip-path="url(#clip1)">
<path d="M1229.6 665.311C1230.9 668.211 1232.5 671.211 1234.3 672.911L1239 677.611L1234.3 682.311C1232.5 684.111 1230.9 687.111 1229.6 689.911C1228.3 687.011 1226.7 684.011 1224.9 682.311L1220.2 677.611L1224.9 672.911C1226.7 671.211 1228.3 668.211 1229.6 665.311ZM1229.6 657.011C1229.6 657.011 1226.3 667.311 1222.8 670.811C1219.3 674.311 1216 677.611 1216 677.611C1216 677.611 1219.3 680.911 1222.8 684.411C1226.3 687.911 1229.6 698.211 1229.6 698.211C1229.6 698.211 1232.9 687.911 1236.4 684.411C1239.9 680.911 1243.2 677.611 1243.2 677.611C1243.2 677.611 1239.9 674.311 1236.4 670.811C1232.9 667.311 1229.6 657.011 1229.6 657.011Z" fill="white"/>
</g>
<path d="M663 394C653.611 394 646 401.611 646 411C646 420.389 653.611 428 663 428C672.389 428 680 420.389 680 411C680 401.611 672.389 394 663 394Z" stroke="#314D62" stroke-width="3" stroke-linejoin="round"/>
<path d="M695.5 411C694.119 411 693 412.119 693 413.5C693 414.881 694.119 416 695.5 416C696.881 416 698 414.881 698 413.5C698 412.119 696.881 411 695.5 411Z" fill="#314D62"/>
<path d="M686.5 400C685.119 400 684 401.119 684 402.5C684 403.881 685.119 405 686.5 405C687.881 405 689 403.881 689 402.5C689 401.119 687.881 400 686.5 400Z" fill="#314D62"/>
<path d="M644.5 426C643.119 426 642 427.119 642 428.5C642 429.881 643.119 431 644.5 431C645.881 431 647 429.881 647 428.5C647 427.119 645.881 426 644.5 426Z" fill="#314D62"/>
<path d="M1182.66 327.239C1179.64 320.383 1171.61 317.278 1164.73 320.313C1157.86 323.348 1154.74 331.37 1157.77 338.226C1160.79 345.083 1168.82 348.188 1175.7 345.152C1182.57 342.117 1185.69 334.096 1182.66 327.239Z" stroke="#314D62" stroke-width="3"/>
<path fill-rule="evenodd" clip-rule="evenodd" d="M1191.13 308.45C1191.15 308.387 1191.17 308.326 1191.19 308.268C1191.13 308.29 1191.07 308.314 1191.01 308.339C1189.48 308.973 1187.36 310.238 1184.77 312.151C1179.63 315.947 1173.14 321.915 1166.55 329.164C1159.96 336.414 1154.65 343.449 1151.36 348.923C1149.71 351.682 1148.65 353.909 1148.17 355.493C1148.15 355.555 1148.13 355.616 1148.12 355.675C1148.17 355.652 1148.23 355.629 1148.29 355.604C1149.82 354.97 1151.94 353.704 1154.53 351.791C1157.24 349.787 1160.34 347.176 1163.62 344.091C1164.58 344.632 1165.6 345.053 1166.66 345.342C1156.52 355.047 1147.79 360.69 1145.47 358.588C1142.53 355.925 1150.97 341.85 1164.33 327.15C1177.68 312.45 1190.89 302.692 1193.83 305.354C1196.17 307.474 1191.3 316.824 1182.48 327.965C1182.4 327.746 1182.31 327.529 1182.21 327.312C1181.86 326.507 1181.43 325.756 1180.94 325.061C1183.79 321.399 1186.16 317.981 1187.94 315.019C1189.59 312.261 1190.65 310.033 1191.13 308.45Z" fill="#314D62"/>
<path d="M451.664 579.239C448.639 572.383 440.613 569.278 433.734 572.313C426.856 575.348 423.74 583.37 426.765 590.226C429.791 597.083 437.817 600.188 444.695 597.152C451.574 594.117 454.69 586.096 451.664 579.239Z" stroke="#314D62" stroke-width="3"/>
<path fill-rule="evenodd" clip-rule="evenodd" d="M460.131 560.45C460.15 560.387 460.168 560.326 460.185 560.268C460.128 560.29 460.069 560.314 460.009 560.339C458.477 560.973 456.36 562.239 453.77 564.151C448.633 567.947 442.137 573.915 435.551 581.164C428.965 588.414 423.647 595.449 420.364 600.923C418.709 603.682 417.653 605.909 417.17 607.493C417.151 607.555 417.133 607.616 417.116 607.675C417.173 607.652 417.232 607.629 417.293 607.604C418.824 606.97 420.942 605.704 423.531 603.791C426.244 601.787 429.336 599.176 432.621 596.091C433.578 596.633 434.6 597.053 435.661 597.342C425.517 607.047 416.791 612.69 414.47 610.588C411.53 607.925 419.973 593.85 433.327 579.15C446.682 564.45 459.891 554.692 462.831 557.355C465.172 559.474 460.3 568.824 451.479 579.965C451.396 579.746 451.307 579.529 451.212 579.312C450.857 578.507 450.43 577.756 449.944 577.061C452.789 573.399 455.161 569.981 456.938 567.019C458.592 564.261 459.648 562.034 460.131 560.45Z" fill="#314D62"/>
<g clip-path="url(#clip2)">
<path d="M685.6 603.3C686.9 606.2 688.5 609.2 690.3 610.9L695 615.6L690.3 620.3C688.5 622.1 686.9 625.1 685.6 627.9C684.3 625 682.7 622 680.9 620.3L676.2 615.6L680.9 610.9C682.7 609.2 684.3 606.2 685.6 603.3ZM685.6 595C685.6 595 682.3 605.3 678.8 608.8C675.3 612.3 672 615.6 672 615.6C672 615.6 675.3 618.9 678.8 622.4C682.3 625.9 685.6 636.2 685.6 636.2C685.6 636.2 688.9 625.9 692.4 622.4C695.9 618.9 699.2 615.6 699.2 615.6C699.2 615.6 695.9 612.3 692.4 608.8C688.9 605.3 685.6 595 685.6 595Z" fill="white"/>
</g>
<g clip-path="url(#clip3)">
<path d="M982.6 179.31C983.9 182.21 985.5 185.21 987.3 186.91L992 191.61L987.3 196.31C985.5 198.11 983.9 201.111 982.6 203.91C981.3 201.01 979.7 198.01 977.9 196.31L973.2 191.61L977.9 186.91C979.7 185.21 981.3 182.21 982.6 179.31ZM982.6 171.01C982.6 171.01 979.3 181.31 975.8 184.81C972.3 188.31 969 191.61 969 191.61C969 191.61 972.3 194.91 975.8 198.41C979.3 201.91 982.6 212.21 982.6 212.21C982.6 212.21 985.9 201.91 989.4 198.41C992.9 194.91 996.2 191.61 996.2 191.61C996.2 191.61 992.9 188.31 989.4 184.81C985.9 181.31 982.6 171.01 982.6 171.01Z" fill="white"/>
</g>
<path d="M11 192C13.2091 192 15 190.209 15 188C15 185.791 13.2091 184 11 184C8.79086 184 7 185.791 7 188C7 190.209 8.79086 192 11 192Z" stroke="#0989E4" stroke-width="2" stroke-linejoin="round"/>
<path d="M144 661C146.209 661 148 659.209 148 657C148 654.791 146.209 653 144 653C141.791 653 140 654.791 140 657C140 659.209 141.791 661 144 661Z" stroke="#0989E4" stroke-width="2" stroke-linejoin="round"/>
<path d="M317 194C319.209 194 321 192.209 321 190C321 187.791 319.209 186 317 186C314.791 186 313 187.791 313 190C313 192.209 314.791 194 317 194Z" stroke="#0989E4" stroke-width="2" stroke-linejoin="round"/>
<path d="M716 235C718.209 235 720 233.209 720 231C720 228.791 718.209 227 716 227C713.791 227 712 228.791 712 231C712 233.209 713.791 235 716 235Z" stroke="#0989E4" stroke-width="2" stroke-linejoin="round"/>
<path d="M103 589C113.493 589 122 580.493 122 570C122 559.507 113.493 551 103 551C92.5066 551 84 559.507 84 570C84 580.493 92.5066 589 103 589Z" stroke="#0989E4" stroke-width="2" stroke-linejoin="round"/>
<path d="M878 545C888.493 545 897 536.493 897 526C897 515.507 888.493 507 878 507C867.507 507 859 515.507 859 526C859 536.493 867.507 545 878 545Z" stroke="#0989E4" stroke-width="2" stroke-linejoin="round"/>
<g clip-path="url(#clip4)">
<path d="M442.6 271.3C443.9 274.2 445.5 277.2 447.3 278.9L452 283.6L447.3 288.3C445.5 290.1 443.9 293.1 442.6 295.9C441.3 293 439.7 290 437.9 288.3L433.2 283.6L437.9 278.9C439.7 277.2 441.3 274.2 442.6 271.3ZM442.6 263C442.6 263 439.3 273.3 435.8 276.8C432.3 280.3 429 283.6 429 283.6C429 283.6 432.3 286.9 435.8 290.4C439.3 293.9 442.6 304.2 442.6 304.2C442.6 304.2 445.9 293.9 449.4 290.4C452.9 286.9 456.2 283.6 456.2 283.6C456.2 283.6 452.9 280.3 449.4 276.8C445.9 273.3 442.6 263 442.6 263Z" fill="white"/>
</g>
<g clip-path="url(#clip5)">
<path d="M1067.6 543.3C1068.9 546.2 1070.5 549.2 1072.3 550.9L1077 555.6L1072.3 560.3C1070.5 562.1 1068.9 565.1 1067.6 567.9C1066.3 565 1064.7 562 1062.9 560.3L1058.2 555.6L1062.9 550.9C1064.7 549.2 1066.3 546.2 1067.6 543.3ZM1067.6 535C1067.6 535 1064.3 545.3 1060.8 548.8C1057.3 552.3 1054 555.6 1054 555.6C1054 555.6 1057.3 558.9 1060.8 562.4C1064.3 565.9 1067.6 576.2 1067.6 576.2C1067.6 576.2 1070.9 565.9 1074.4 562.4C1077.9 558.9 1081.2 555.6 1081.2 555.6C1081.2 555.6 1077.9 552.3 1074.4 548.8C1070.9 545.3 1067.6 535 1067.6 535Z" fill="white"/>
</g>
<path d="M885 296C894.389 296 902 288.389 902 279C902 269.611 894.389 262 885 262C875.611 262 868 269.611 868 279C868 288.389 875.611 296 885 296Z" stroke="#314D62" stroke-width="3" stroke-linejoin="round"/>
<path d="M852.5 279C853.881 279 855 277.881 855 276.5C855 275.119 853.881 274 852.5 274C851.119 274 850 275.119 850 276.5C850 277.881 851.119 279 852.5 279Z" fill="#314D62"/>
<path d="M861.5 290C862.881 290 864 288.881 864 287.5C864 286.119 862.881 285 861.5 285C860.119 285 859 286.119 859 287.5C859 288.881 860.119 290 861.5 290Z" fill="#314D62"/>
<path d="M903.5 264C904.881 264 906 262.881 906 261.5C906 260.119 904.881 259 903.5 259C902.119 259 901 260.119 901 261.5C901 262.881 902.119 264 903.5 264Z" fill="#314D62"/>
<path d="M150.637 292.693C153.662 299.549 161.688 302.654 168.567 299.619C175.445 296.584 178.561 288.562 175.536 281.706C172.51 274.849 164.484 271.744 157.606 274.779C150.727 277.815 147.611 285.836 150.637 292.693Z" stroke="#314D62" stroke-width="3"/>
<path fill-rule="evenodd" clip-rule="evenodd" d="M142.17 311.482C142.151 311.545 142.133 311.606 142.116 311.664C142.173 311.642 142.232 311.618 142.292 311.593C143.824 310.959 145.942 309.693 148.531 307.781C153.668 303.985 160.164 298.017 166.75 290.768C173.336 283.518 178.654 276.483 181.937 271.009C183.592 268.25 184.648 266.023 185.131 264.439C185.15 264.376 185.168 264.316 185.185 264.257C185.128 264.279 185.069 264.303 185.008 264.328C183.477 264.962 181.359 266.228 178.77 268.141C176.057 270.145 172.965 272.756 169.68 275.841C168.723 275.299 167.701 274.879 166.64 274.59C176.784 264.884 185.51 259.241 187.831 261.344C190.771 264.006 182.328 278.081 168.974 292.781C155.619 307.481 142.41 317.24 139.47 314.577C137.129 312.458 142.001 303.108 150.822 291.967C150.905 292.186 150.994 292.403 151.089 292.619C151.444 293.425 151.871 294.176 152.358 294.87C149.512 298.533 147.14 301.951 145.363 304.913C143.709 307.671 142.653 309.898 142.17 311.482Z" fill="#314D62"/>
<g clip-path="url(#clip6)">
<path d="M509.6 371.3C510.9 374.2 512.5 377.2 514.3 378.9L519 383.6L514.3 388.3C512.5 390.1 510.9 393.1 509.6 395.9C508.3 393 506.7 390 504.9 388.3L500.2 383.6L504.9 378.9C506.7 377.2 508.3 374.2 509.6 371.3ZM509.6 363C509.6 363 506.3 373.3 502.8 376.8C499.3 380.3 496 383.6 496 383.6C496 383.6 499.3 386.9 502.8 390.4C506.3 393.9 509.6 404.2 509.6 404.2C509.6 404.2 512.9 393.9 516.4 390.4C519.9 386.9 523.2 383.6 523.2 383.6C523.2 383.6 519.9 380.3 516.4 376.8C512.9 373.3 509.6 363 509.6 363Z" fill="white"/>
</g>
<path d="M485.637 203.693C488.663 210.549 496.689 213.654 503.567 210.619C510.445 207.584 513.561 199.562 510.536 192.706C507.51 185.849 499.484 182.744 492.606 185.779C485.728 188.815 482.612 196.836 485.637 203.693Z" stroke="#314D62" stroke-width="3"/>
<path fill-rule="evenodd" clip-rule="evenodd" d="M477.17 222.482C477.151 222.545 477.133 222.606 477.116 222.664C477.173 222.642 477.232 222.618 477.293 222.593C478.824 221.959 480.942 220.693 483.531 218.781C488.668 214.985 495.164 209.017 501.75 201.768C508.336 194.518 513.654 187.483 516.938 182.009C518.592 179.25 519.648 177.023 520.131 175.439C520.15 175.376 520.168 175.316 520.185 175.257C520.128 175.279 520.069 175.303 520.009 175.328C518.477 175.962 516.36 177.228 513.77 179.141C511.057 181.145 507.965 183.756 504.68 186.841C503.723 186.299 502.701 185.879 501.64 185.59C511.784 175.884 520.51 170.241 522.831 172.344C525.771 175.006 517.329 189.081 503.974 203.781C490.619 218.481 477.41 228.24 474.47 225.577C472.13 223.458 477.001 214.108 485.822 202.967C485.905 203.186 485.994 203.403 486.089 203.619C486.445 204.425 486.871 205.176 487.358 205.87C484.512 209.533 482.14 212.951 480.364 215.913C478.709 218.671 477.653 220.898 477.17 222.482Z" fill="#314D62"/>
<path d="M917.465 721.183C910.423 723.746 906.791 731.548 909.363 738.613C911.934 745.678 919.731 749.32 926.773 746.757C933.815 744.193 937.447 736.392 934.875 729.327C932.304 722.262 924.507 718.62 917.465 721.183Z" stroke="#314D62" stroke-width="3"/>
<path fill-rule="evenodd" clip-rule="evenodd" d="M899.28 711.486C899.218 711.463 899.159 711.441 899.101 711.42C899.12 711.478 899.14 711.539 899.161 711.601C899.692 713.171 900.814 715.368 902.55 718.079C905.996 723.457 911.519 730.335 918.315 737.388C925.111 744.442 931.777 750.215 937.021 753.855C939.664 755.69 941.816 756.891 943.364 757.478C943.425 757.502 943.484 757.523 943.542 757.544C943.523 757.486 943.504 757.426 943.483 757.363C942.952 755.793 941.83 753.596 940.093 750.886C938.273 748.045 935.874 744.786 933.014 741.304C933.618 740.385 934.105 739.393 934.464 738.354C943.474 749.12 948.525 758.201 946.273 760.378C943.421 763.135 929.938 753.775 916.158 739.473C902.378 725.171 893.519 711.343 896.371 708.586C898.641 706.392 907.647 711.874 918.177 721.416C917.953 721.484 917.73 721.558 917.508 721.639C916.681 721.94 915.903 722.315 915.178 722.755C911.713 719.672 908.459 717.078 905.622 715.109C902.98 713.275 900.828 712.073 899.28 711.486Z" fill="#314D62"/>
<path d="M312.355 738.01C310.146 738.01 308.355 739.801 308.355 742.01C308.355 744.219 310.146 746.01 312.355 746.01C314.565 746.01 316.355 744.219 316.355 742.01C316.355 739.801 314.565 738.01 312.355 738.01Z" stroke="#0989E4" stroke-width="2" stroke-linejoin="round"/>
<path d="M566.355 738.01C564.146 738.01 562.355 739.801 562.355 742.01C562.355 744.219 564.146 746.01 566.355 746.01C568.565 746.01 570.355 744.219 570.355 742.01C570.355 739.801 568.565 738.01 566.355 738.01Z" fill="#314D62"/>
<path d="M340.355 715.01C338.146 715.01 336.355 716.801 336.355 719.01C336.355 721.219 338.146 723.01 340.355 723.01C342.565 723.01 344.355 721.219 344.355 719.01C344.355 716.801 342.565 715.01 340.355 715.01Z" fill="white"/>
<g clip-path="url(#clip7)">
<path d="M97.6 48.3C98.9 51.2 100.5 54.2 102.3 55.9L107 60.6L102.3 65.3C100.5 67.1 98.9 70.1 97.6 72.9C96.3 70 94.7 67 92.9 65.3L88.2 60.6L92.9 55.9C94.7 54.2 96.3 51.2 97.6 48.3ZM97.6 40C97.6 40 94.3 50.3 90.8 53.8C87.3 57.3 84 60.6 84 60.6C84 60.6 87.3 63.9 90.8 67.4C94.3 70.9 97.6 81.2 97.6 81.2C97.6 81.2 100.9 70.9 104.4 67.4C107.9 63.9 111.2 60.6 111.2 60.6C111.2 60.6 107.9 57.3 104.4 53.8C100.9 50.3 97.6 40 97.6 40Z" fill="white"/>
</g>
</g>
<defs>
<clipPath id="clip0">
<rect width="1366" height="768" fill="white"/>
</clipPath>
<clipPath id="clip1">
<rect width="27.2" height="41.2" fill="white" transform="translate(1216 657.011)"/>
</clipPath>
<clipPath id="clip2">
<rect width="27.2" height="41.2" fill="white" transform="translate(672 595)"/>
</clipPath>
<clipPath id="clip3">
<rect width="27.2" height="41.2" fill="white" transform="translate(969 171.01)"/>
</clipPath>
<clipPath id="clip4">
<rect width="27.2" height="41.2" fill="white" transform="translate(429 263)"/>
</clipPath>
<clipPath id="clip5">
<rect width="27.2" height="41.2" fill="white" transform="translate(1054 535)"/>
</clipPath>
<clipPath id="clip6">
<rect width="27.2" height="41.2" fill="white" transform="translate(496 363)"/>
</clipPath>
<clipPath id="clip7">
<rect width="27.2" height="41.2" fill="white" transform="translate(84 40)"/>
</clipPath>
</defs>
</svg>
