<svg viewBox="0 0 106 106" fill="none" xmlns="http://www.w3.org/2000/svg">
<circle cx="53" cy="53" r="51.5" stroke="white" stroke-width="3"/>
<path d="M67.3616 66.1183V28.4781C67.3616 27.795 66.8082 27.2416 66.1251 27.2416H39.8922C39.2092 27.2416 38.6553 27.795 38.6553 28.4781V66.1183C38.6553 66.8014 39.2092 67.3548 39.8922 67.3548H66.1251C66.8082 67.3548 67.3616 66.8014 67.3616 66.1183ZM64.8886 64.8819H41.1287V29.7145H64.8886V64.8819Z" fill="white"/>
<path d="M47.95 42.5533L47.8644 46.4619C47.8459 47.3153 48.7177 47.943 49.5214 47.6521L53.1977 46.3214L56.8887 47.6109C57.6957 47.8933 58.5608 47.2557 58.5324 46.4023L58.4033 42.4952L60.7698 39.3831C61.2878 38.7025 60.9482 37.6831 60.1289 37.4466L56.3726 36.362L54.1442 33.1497C53.657 32.4472 52.5837 32.4538 52.1045 33.161L49.9121 36.3984L46.1681 37.5246C45.3512 37.7706 45.0234 38.7933 45.5484 39.4683L47.95 42.5533ZM51.0459 38.6396C51.3184 38.5577 51.5539 38.3841 51.7133 38.1486L53.1404 36.0412L54.5912 38.1325C54.753 38.3666 54.9909 38.5374 55.2638 38.6159L57.7094 39.3221L56.1683 41.3476C55.9966 41.5742 55.9076 41.8528 55.9166 42.1371L56.0008 44.681L53.5983 43.8414C53.3297 43.7477 53.0373 43.7496 52.7696 43.8461L50.3766 44.7122L50.4324 42.1678C50.4385 41.8835 50.3468 41.6059 50.1718 41.3812L48.6084 39.3727L51.0459 38.6396Z" fill="white"/>
<path d="M46.5248 53.1835H59.786C60.4686 53.1835 61.0225 52.6296 61.0225 51.9466C61.0225 51.264 60.4686 50.7101 59.786 50.7101H46.5248C45.8418 50.7101 45.2883 51.264 45.2883 51.9466C45.2883 52.6296 45.8418 53.1835 46.5248 53.1835Z" fill="white"/>
<path d="M46.5248 57.5944H59.786C60.4686 57.5944 61.0225 57.0405 61.0225 56.3579C61.0225 55.6749 60.4686 55.1215 59.786 55.1215H46.5248C45.8418 55.1215 45.2883 55.6749 45.2883 56.3579C45.2883 57.0405 45.8418 57.5944 46.5248 57.5944Z" fill="white"/>
<path d="M46.5248 61.9789H54.0851C54.7682 61.9789 55.3216 61.425 55.3216 60.7424C55.3216 60.0594 54.7682 59.5055 54.0851 59.5055H46.5248C45.8418 59.5055 45.2883 60.0594 45.2883 60.7424C45.2883 61.425 45.8418 61.9789 46.5248 61.9789Z" fill="white"/>
<path d="M77.0896 81.527H64.011V72.5964H71.7468C72.4299 72.5964 72.9833 72.0425 72.9833 71.3599V23.2365C72.9833 22.5539 72.4299 22 71.7468 22H34.2707C33.5881 22 33.0342 22.5539 33.0342 23.2365V71.3599C33.0342 72.0425 33.5881 72.5964 34.2707 72.5964H42.0065V81.527H28.9279C28.2448 81.527 27.6914 82.0805 27.6914 82.7635C27.6914 83.4461 28.2448 84 28.9279 84H77.0896C77.7727 84 78.3261 83.4461 78.3261 82.7635C78.3261 82.0805 77.7727 81.527 77.0896 81.527ZM35.5072 24.473H70.5103V70.1234H35.5072V24.473ZM50.3908 81.527V78.3119C50.3908 77.6293 49.8374 77.0754 49.1543 77.0754C48.4713 77.0754 47.9178 77.6293 47.9178 78.3119V81.527H44.4794V72.5964H55.8708V77.0007C55.8708 77.6833 56.4247 78.2372 57.1073 78.2372C57.7903 78.2372 58.3442 77.6833 58.3442 77.0007V72.5964H61.5381V81.527H50.3908Z" fill="white"/>
<path d="M59.006 59.5055C58.4905 59.5055 58.0184 59.839 57.8434 60.3238C57.6688 60.8077 57.8207 61.3673 58.2185 61.6951C58.6167 62.0234 59.1901 62.0679 59.6352 61.8063C60.0784 61.5452 60.3182 61.0159 60.2203 60.5102C60.1091 59.9355 59.5926 59.5055 59.006 59.5055Z" fill="white"/>
</svg>
