<svg width="382" height="55" viewBox="0 0 382 55" fill="none" xmlns="http://www.w3.org/2000/svg">
<rect width="2" height="32" fill="white"/>
<rect x="380" width="2" height="32" fill="white"/>
<path d="M3.29289 21.2929C2.90237 21.6834 2.90237 22.3166 3.29289 22.7071L9.65685 29.0711C10.0474 29.4616 10.6805 29.4616 11.0711 29.0711C11.4616 28.6805 11.4616 28.0474 11.0711 27.6569L5.41421 22L11.0711 16.3431C11.4616 15.9526 11.4616 15.3195 11.0711 14.9289C10.6805 14.5384 10.0474 14.5384 9.65685 14.9289L3.29289 21.2929ZM378.707 22.7071C379.098 22.3166 379.098 21.6834 378.707 21.2929L372.343 14.9289C371.953 14.5384 371.319 14.5384 370.929 14.9289C370.538 15.3195 370.538 15.9526 370.929 16.3431L376.586 22L370.929 27.6569C370.538 28.0474 370.538 28.6805 370.929 29.0711C371.319 29.4616 371.953 29.4616 372.343 29.0711L378.707 22.7071ZM4 23H378V21H4V23Z" fill="white"/>
<path d="M155.809 42.0117H157.166C158.019 41.9987 158.689 41.7741 159.178 41.3379C159.666 40.9017 159.91 40.3125 159.91 39.5703C159.91 37.9036 159.08 37.0703 157.42 37.0703C156.639 37.0703 156.014 37.2949 155.545 37.7441C155.083 38.1868 154.852 38.776 154.852 39.5117H153.045C153.045 38.3854 153.455 37.4512 154.275 36.709C155.102 35.9603 156.15 35.5859 157.42 35.5859C158.761 35.5859 159.812 35.9408 160.574 36.6504C161.336 37.36 161.717 38.3464 161.717 39.6094C161.717 40.2279 161.515 40.8268 161.111 41.4062C160.714 41.9857 160.171 42.4186 159.48 42.7051C160.262 42.9525 160.864 43.3626 161.287 43.9355C161.717 44.5085 161.932 45.2083 161.932 46.0352C161.932 47.3112 161.515 48.3236 160.682 49.0723C159.848 49.821 158.764 50.1953 157.43 50.1953C156.095 50.1953 155.008 49.834 154.168 49.1113C153.335 48.3887 152.918 47.4349 152.918 46.25H154.734C154.734 46.9987 154.979 47.5977 155.467 48.0469C155.955 48.4961 156.609 48.7207 157.43 48.7207C158.302 48.7207 158.969 48.4928 159.432 48.0371C159.894 47.5814 160.125 46.9271 160.125 46.0742C160.125 45.2474 159.871 44.6126 159.363 44.1699C158.855 43.7272 158.123 43.4993 157.166 43.4863H155.809V42.0117ZM167.039 42.0117H168.396C169.249 41.9987 169.92 41.7741 170.408 41.3379C170.896 40.9017 171.141 40.3125 171.141 39.5703C171.141 37.9036 170.311 37.0703 168.65 37.0703C167.869 37.0703 167.244 37.2949 166.775 37.7441C166.313 38.1868 166.082 38.776 166.082 39.5117H164.275C164.275 38.3854 164.686 37.4512 165.506 36.709C166.333 35.9603 167.381 35.5859 168.65 35.5859C169.992 35.5859 171.043 35.9408 171.805 36.6504C172.566 37.36 172.947 38.3464 172.947 39.6094C172.947 40.2279 172.745 40.8268 172.342 41.4062C171.945 41.9857 171.401 42.4186 170.711 42.7051C171.492 42.9525 172.094 43.3626 172.518 43.9355C172.947 44.5085 173.162 45.2083 173.162 46.0352C173.162 47.3112 172.745 48.3236 171.912 49.0723C171.079 49.821 169.995 50.1953 168.66 50.1953C167.326 50.1953 166.238 49.834 165.398 49.1113C164.565 48.3887 164.148 47.4349 164.148 46.25H165.965C165.965 46.9987 166.209 47.5977 166.697 48.0469C167.186 48.4961 167.84 48.7207 168.66 48.7207C169.533 48.7207 170.2 48.4928 170.662 48.0371C171.124 47.5814 171.355 46.9271 171.355 46.0742C171.355 45.2474 171.102 44.6126 170.594 44.1699C170.086 43.7272 169.354 43.4993 168.396 43.4863H167.039V42.0117ZM182.732 35.7715V37.3047H182.4C180.994 37.3307 179.874 37.7474 179.041 38.5547C178.208 39.362 177.726 40.498 177.596 41.9629C178.344 41.1035 179.367 40.6738 180.662 40.6738C181.899 40.6738 182.885 41.11 183.621 41.9824C184.363 42.8548 184.734 43.9811 184.734 45.3613C184.734 46.8262 184.334 47.998 183.533 48.877C182.739 49.7559 181.671 50.1953 180.33 50.1953C178.969 50.1953 177.866 49.6745 177.02 48.6328C176.173 47.5846 175.75 46.237 175.75 44.5898V43.8965C175.75 41.2793 176.307 39.2806 177.42 37.9004C178.54 36.5137 180.203 35.804 182.41 35.7715H182.732ZM180.359 42.1777C179.741 42.1777 179.171 42.3633 178.65 42.7344C178.13 43.1055 177.768 43.571 177.566 44.1309V44.7949C177.566 45.9668 177.83 46.9108 178.357 47.627C178.885 48.3431 179.542 48.7012 180.33 48.7012C181.144 48.7012 181.782 48.4017 182.244 47.8027C182.713 47.2038 182.947 46.4193 182.947 45.4492C182.947 44.4727 182.71 43.6849 182.234 43.0859C181.766 42.4805 181.141 42.1777 180.359 42.1777ZM190.604 43.291L192.947 39.4336H195.057L191.6 44.6582L195.164 50H193.074L190.633 46.0449L188.191 50H186.092L189.656 44.6582L186.199 39.4336H188.289L190.604 43.291ZM206.111 50H196.795V48.7012L201.717 43.2324C202.446 42.4056 202.947 41.735 203.221 41.2207C203.501 40.6999 203.641 40.1628 203.641 39.6094C203.641 38.8672 203.416 38.2585 202.967 37.7832C202.518 37.3079 201.919 37.0703 201.17 37.0703C200.271 37.0703 199.572 37.3275 199.07 37.8418C198.576 38.3496 198.328 39.0592 198.328 39.9707H196.521C196.521 38.6621 196.941 37.6042 197.781 36.7969C198.628 35.9896 199.757 35.5859 201.17 35.5859C202.492 35.5859 203.536 35.9342 204.305 36.6309C205.073 37.321 205.457 38.2422 205.457 39.3945C205.457 40.7943 204.565 42.4609 202.781 44.3945L198.973 48.5254H206.111V50ZM216.648 39.4922C216.648 40.2018 216.46 40.8333 216.082 41.3867C215.711 41.9401 215.206 42.373 214.568 42.6855C215.311 43.0046 215.896 43.4701 216.326 44.082C216.762 44.694 216.98 45.3874 216.98 46.1621C216.98 47.3926 216.564 48.3724 215.73 49.1016C214.904 49.8307 213.813 50.1953 212.459 50.1953C211.092 50.1953 209.995 49.8307 209.168 49.1016C208.348 48.3659 207.938 47.3861 207.938 46.1621C207.938 45.3939 208.146 44.7005 208.562 44.082C208.986 43.4635 209.568 42.9948 210.311 42.6758C209.679 42.3633 209.181 41.9303 208.816 41.377C208.452 40.8236 208.27 40.1953 208.27 39.4922C208.27 38.2943 208.654 37.3438 209.422 36.6406C210.19 35.9375 211.202 35.5859 212.459 35.5859C213.709 35.5859 214.718 35.9375 215.486 36.6406C216.261 37.3438 216.648 38.2943 216.648 39.4922ZM215.174 46.123C215.174 45.3288 214.92 44.681 214.412 44.1797C213.911 43.6784 213.253 43.4277 212.439 43.4277C211.626 43.4277 210.971 43.6751 210.477 44.1699C209.988 44.6647 209.744 45.3158 209.744 46.123C209.744 46.9303 209.982 47.5651 210.457 48.0273C210.939 48.4896 211.606 48.7207 212.459 48.7207C213.305 48.7207 213.969 48.4896 214.451 48.0273C214.933 47.5586 215.174 46.9238 215.174 46.123ZM212.459 37.0703C211.749 37.0703 211.173 37.2917 210.73 37.7344C210.294 38.1706 210.076 38.7663 210.076 39.5215C210.076 40.2441 210.291 40.8301 210.721 41.2793C211.157 41.722 211.736 41.9434 212.459 41.9434C213.182 41.9434 213.758 41.722 214.188 41.2793C214.624 40.8301 214.842 40.2441 214.842 39.5215C214.842 38.7988 214.617 38.2096 214.168 37.7539C213.719 37.2982 213.149 37.0703 212.459 37.0703ZM228.172 43.9355C228.172 46.0514 227.811 47.6237 227.088 48.6523C226.365 49.681 225.236 50.1953 223.699 50.1953C222.182 50.1953 221.059 49.694 220.33 48.6914C219.601 47.6823 219.223 46.1784 219.197 44.1797V41.7676C219.197 39.6777 219.559 38.125 220.281 37.1094C221.004 36.0938 222.137 35.5859 223.68 35.5859C225.21 35.5859 226.336 36.0775 227.059 37.0605C227.781 38.0371 228.152 39.5475 228.172 41.5918V43.9355ZM226.365 41.4648C226.365 39.9349 226.15 38.8216 225.721 38.125C225.291 37.4219 224.611 37.0703 223.68 37.0703C222.755 37.0703 222.081 37.4186 221.658 38.1152C221.235 38.8118 221.017 39.8828 221.004 41.3281V44.2188C221.004 45.7552 221.225 46.8913 221.668 47.627C222.117 48.3561 222.794 48.7207 223.699 48.7207C224.591 48.7207 225.252 48.3757 225.682 47.6855C226.118 46.9954 226.346 45.9082 226.365 44.4238V41.4648Z" fill="white"/>
</svg>
