<svg width="46" height="12" viewBox="0 0 46 12" fill="white" xmlns="http://www.w3.org/2000/svg">
<path d="M0 7.40039C0 6.42773 0.230469 5.64648 0.691406 5.05664C1.15234 4.46289 1.75586 4.16602 2.50195 4.16602C3.24414 4.16602 3.83203 4.41992 4.26562 4.92773V1.62305H5.34961V10.623H4.35352L4.30078 9.94336C3.86719 10.4746 3.26367 10.7402 2.49023 10.7402C1.75586 10.7402 1.15625 10.4395 0.691406 9.83789C0.230469 9.23633 0 8.45117 0 7.48242V7.40039ZM1.08398 7.52344C1.08398 8.24219 1.23242 8.80469 1.5293 9.21094C1.82617 9.61719 2.23633 9.82031 2.75977 9.82031C3.44727 9.82031 3.94922 9.51172 4.26562 8.89453V5.98242C3.94141 5.38477 3.44336 5.08594 2.77148 5.08594C2.24023 5.08594 1.82617 5.29102 1.5293 5.70117C1.23242 6.11133 1.08398 6.71875 1.08398 7.52344Z" transform="translate(0.150391 0.876953)"/>
<path d="M11.0761 7.55665C11.0761 7.26368 10.9648 7.03712 10.7421 6.87696C10.5234 6.7129 10.1386 6.57227 9.58782 6.45508C9.04094 6.3379 8.60539 6.19727 8.28118 6.03321C7.96086 5.86915 7.72258 5.67383 7.56633 5.44727C7.41399 5.22071 7.33782 4.95118 7.33782 4.63868C7.33782 4.11915 7.55657 3.67969 7.99407 3.32032C8.43547 2.96094 8.99797 2.78126 9.68157 2.78126C10.4003 2.78126 10.9823 2.9668 11.4277 3.3379C11.8769 3.70899 12.1015 4.1836 12.1015 4.76172H11.0116C11.0116 4.46485 10.8847 4.20899 10.6308 3.99415C10.3808 3.7793 10.0644 3.67188 9.68157 3.67188C9.28703 3.67188 8.97844 3.75782 8.75578 3.92969C8.53313 4.10157 8.4218 4.32618 8.4218 4.60352C8.4218 4.86524 8.52532 5.06251 8.73235 5.19532C8.93938 5.32813 9.31243 5.45508 9.85149 5.57618C10.3945 5.69727 10.8339 5.8418 11.1698 6.00977C11.5058 6.17774 11.7538 6.38086 11.914 6.61915C12.0781 6.85352 12.1601 7.14063 12.1601 7.48047C12.1601 8.04688 11.9335 8.50196 11.4804 8.84571C11.0273 9.18555 10.4394 9.35547 9.71672 9.35547C9.20891 9.35547 8.75969 9.26563 8.36907 9.08594C7.97844 8.90625 7.6718 8.65625 7.44914 8.33594C7.23039 8.01172 7.12102 7.66212 7.12102 7.28712H8.205C8.22453 7.6504 8.36907 7.93946 8.6386 8.1543C8.91203 8.36524 9.27141 8.47071 9.71672 8.47071C10.1269 8.47071 10.455 8.38868 10.7011 8.22461C10.9511 8.05665 11.0761 7.83399 11.0761 7.55665Z" transform="translate(0.150391 0.876953)"/>
<path d="M16.6952 3.98829C16.5312 3.96094 16.3534 3.94727 16.162 3.94727C15.4511 3.94727 14.9687 4.25001 14.7148 4.85547V9.35547H13.6308V3.01563H14.6855L14.7031 3.74805C15.0585 3.18165 15.5624 2.89844 16.2148 2.89844C16.4257 2.89844 16.5859 2.92579 16.6952 2.98047V3.98829Z" transform="translate(0.150391 0.876953)"/>
<path d="M20.7616 4.75586C20.5976 4.72852 20.4198 4.71485 20.2284 4.71485C19.5175 4.71485 19.0351 5.01758 18.7812 5.62305V10.1231H17.6972V3.78321H18.7519L18.7695 4.51563C19.1249 3.94922 19.6288 3.66602 20.2812 3.66602C20.4921 3.66602 20.6523 3.69336 20.7616 3.74805V4.75586Z" transform="translate(0.150391 0.876953)" />
<path d="M22.3906 10.1231V4.6211H21.3886V3.78321H22.3906V3.13282C22.3906 2.45313 22.5722 1.92774 22.9355 1.55665C23.2988 1.18555 23.8124 1.00001 24.4765 1.00001C24.7265 1.00001 24.9745 1.03321 25.2206 1.09961L25.162 1.97852C24.9784 1.94336 24.7831 1.92579 24.5761 1.92579C24.2245 1.92579 23.9531 2.0293 23.7616 2.23633C23.5702 2.43946 23.4745 2.73243 23.4745 3.11524V3.78321H24.8281V4.6211L23.8495 5.12305L23.4745 10.1231H22.3906Z" transform="translate(0.150391 0.876953)"/>
<path d="M29.7206 8.44141C29.7206 8.14844 29.6093 7.92188 29.3866 7.76172C29.1679 7.59766 28.7831 7.45704 28.2323 7.33985C27.6855 7.22266 27.2499 7.08204 26.9257 6.91797C26.6054 6.75391 26.3671 6.5586 26.2109 6.33204C26.0585 6.10547 25.9823 5.83594 25.9823 5.52344C25.9823 5.00391 26.2011 4.56446 26.6386 4.20508C27.08 3.84571 27.6425 3.66602 28.3261 3.66602C29.0448 3.66602 29.6269 3.85157 30.0722 4.22266C30.5214 4.59376 30.746 5.06836 30.746 5.64649H29.6562C29.6562 5.34961 29.5292 5.09376 29.2753 4.87891C29.0253 4.66407 28.7089 4.55665 28.3261 4.55665C27.9316 4.55665 28.0722 4.95118 27.8495 5.12305C27.6269 5.29493 27.0663 5.21094 27.0663 5.48829C27.0663 5.75001 27.1698 5.94727 27.3769 6.08008C27.5839 6.2129 27.957 6.33985 28.496 6.46094C29.039 6.58204 29.4784 6.72657 29.8144 6.89454C30.1503 7.06251 30.3984 7.26563 30.5585 7.50391C30.7226 7.73829 30.8046 8.0254 30.8046 8.36524C30.8046 8.93165 30.5781 9.38672 30.1249 9.73047C29.6718 10.0703 29.0839 10.2402 28.3613 10.2402C27.8534 10.2402 27.4042 10.1504 27.0136 9.97071C26.623 9.79102 26.3163 9.54102 26.0937 9.22071C25.8749 8.89649 25.7656 8.54688 25.7656 8.17188H26.8495C26.8691 8.53516 27.0136 8.82422 27.2831 9.03907C27.5566 9.25 27.9159 9.35547 28.3613 9.35547C28.7714 9.35547 29.0995 9.27344 29.3456 9.10938C29.5956 8.94141 29.7206 8.71876 29.7206 8.44141Z" transform="translate(0.150391 0.876953)"/>
<path d="M35.2812 4.75586C35.1171 4.72852 34.9394 4.71485 34.748 4.71485C34.037 4.71485 33.5546 5.01758 33.3007 5.62305V10.1231H32.2167V3.78321H33.2714L33.8495 4.22266C34.205 3.65626 34.1484 3.66602 34.8007 3.66602C35.0116 3.66602 35.1718 3.69336 35.2812 3.74805V4.75586Z" transform="translate(0.150391 0.876953)"/>
<path d="M37.3515 9.12305V3.62109H36.3495V2.7832H37.3515V2.13281C37.3515 1.45312 37.5331 0.927734 37.8964 0.556641C38.2597 0.185547 38.7734 0 39.4374 0C39.6874 0 39.9355 0.0332031 40.1816 0.0996094L40.123 0.978516C39.9394 0.943359 39.7441 0.925781 39.537 0.925781C39.1855 0.925781 39.246 1.61523 38.7226 1.23633C38.5312 1.43945 39.246 1.74023 39.246 2.12305L38.4355 2.7832H39.789V3.62109H38.4355V9.12305H37.3515Z" transform="translate(0.150391 0.876953)"/>
<path d="M44.2402 8.44141C44.2402 8.14844 44.1288 7.92188 43.9062 7.76172C43.6874 7.59766 43.3027 7.45704 42.7519 7.33985C42.205 7.22266 41.7695 7.08204 41.4452 6.91797C41.1249 6.75391 40.8866 6.5586 40.7304 6.33204C40.5781 6.10547 40.5019 5.83594 40.5019 5.52344C40.5019 5.00391 40.7206 4.56446 41.1581 4.20508C41.5995 3.84571 42.162 3.66602 42.8456 3.66602C43.5644 3.66602 44.1464 3.85157 44.5917 4.22266C45.0409 4.59376 45.2656 5.06836 45.2656 5.64649H44.1757C44.1757 5.34961 44.0488 5.09376 43.7948 4.87891C43.5448 4.66407 43.2284 4.55665 42.8456 4.55665C42.4511 4.55665 42.1425 4.64258 41.9198 4.81446C41.6972 4.98633 41.5859 5.21094 41.5859 5.48829C41.5859 5.75001 41.6894 5.94727 41.8964 6.08008C42.1034 6.2129 42.4765 6.33985 43.0156 6.46094C43.5585 6.58204 43.998 6.72657 44.3339 6.89454C44.6698 7.06251 44.9179 7.26563 45.0781 7.50391C45.2421 7.73829 45.3241 8.0254 45.3241 8.36524C45.3241 8.93165 45.0976 9.38672 44.6445 9.73047C44.1913 10.0703 43.6034 10.2402 42.8808 10.2402C42.373 10.2402 41.9238 10.1504 41.5331 9.97071C41.1425 9.79102 40.8359 9.54102 40.6132 9.22071C40.3945 8.89649 40.2851 8.54688 40.2851 8.17188H41.3691C41.3886 8.53516 41.5331 8.82422 41.8027 9.03907C42.0761 9.25 42.4355 9.35547 42.8808 9.35547C43.2909 9.35547 43.6191 9.27344 43.8652 9.10938C44.1152 8.94141 44.2402 8.71876 44.2402 8.44141Z" transform="translate(0.150391 0.876953)"/>
</svg>
