<svg width="32" height="32" viewBox="0 0 32 32" fill="none" xmlns="http://www.w3.org/2000/svg">
<path d="M27.5633 3.00098H4.43498C3.643 3.00098 3 3.64269 3 4.43596V27.5643C3 28.3575 3.643 29.0001 4.43498 29.0001H16.8866V18.9317H13.4986V15.0074H16.8866V12.1134C16.8866 8.75588 18.9367 6.92662 21.9326 6.92662C23.3688 6.92662 24.6005 7.03407 24.9596 7.08073V10.5903L22.8816 10.5911C21.2527 10.5911 20.9385 11.3656 20.9385 12.5013V15.0061H24.8248L24.3166 18.93H20.9381V28.9988H27.5629C28.3557 28.9988 28.9991 28.3554 28.9991 27.5643V4.4351C28.9987 3.64269 28.3561 3.00098 27.5633 3.00098Z" fill="white"/>
</svg>
