<svg width="487" height="55" viewBox="0 0 487 55" fill="none" xmlns="http://www.w3.org/2000/svg">
<rect y="23" width="2" height="32" fill="white"/>
<rect x="485" y="23" width="2" height="32" fill="white"/>
<path d="M3.29289 33.2929C2.90237 33.6834 2.90237 34.3166 3.29289 34.7071L9.65685 41.0711C10.0474 41.4616 10.6805 41.4616 11.0711 41.0711C11.4616 40.6805 11.4616 40.0474 11.0711 39.6569L5.41421 34L11.0711 28.3431C11.4616 27.9526 11.4616 27.3195 11.0711 26.9289C10.6805 26.5384 10.0474 26.5384 9.65685 26.9289L3.29289 33.2929ZM483.707 34.7071C484.098 34.3166 484.098 33.6834 483.707 33.2929L477.343 26.9289C476.953 26.5384 476.319 26.5384 475.929 26.9289C475.538 27.3195 475.538 27.9526 475.929 28.3431L481.586 34L475.929 39.6569C475.538 40.0474 475.538 40.6805 475.929 41.0711C476.319 41.4616 476.953 41.4616 477.343 41.0711L483.707 34.7071ZM4 35H483V33H4V35Z" fill="white"/>
<path d="M220.361 4.79688L214.473 18H212.578L218.447 5.26562H210.752V3.78125H220.361V4.79688ZM231.729 18H222.412V16.7012L227.334 11.2324C228.063 10.4056 228.564 9.73503 228.838 9.2207C229.118 8.69987 229.258 8.16276 229.258 7.60938C229.258 6.86719 229.033 6.25846 228.584 5.7832C228.135 5.30794 227.536 5.07031 226.787 5.07031C225.889 5.07031 225.189 5.32747 224.688 5.8418C224.193 6.34961 223.945 7.05924 223.945 7.9707H222.139C222.139 6.66211 222.559 5.60417 223.398 4.79688C224.245 3.98958 225.374 3.58594 226.787 3.58594C228.109 3.58594 229.154 3.93424 229.922 4.63086C230.69 5.32096 231.074 6.24219 231.074 7.39453C231.074 8.79427 230.182 10.4609 228.398 12.3945L224.59 16.5254H231.729V18ZM242.266 7.49219C242.266 8.20182 242.077 8.83333 241.699 9.38672C241.328 9.9401 240.824 10.373 240.186 10.6855C240.928 11.0046 241.514 11.4701 241.943 12.082C242.38 12.694 242.598 13.3874 242.598 14.1621C242.598 15.3926 242.181 16.3724 241.348 17.1016C240.521 17.8307 239.43 18.1953 238.076 18.1953C236.709 18.1953 235.612 17.8307 234.785 17.1016C233.965 16.3659 233.555 15.3861 233.555 14.1621C233.555 13.3939 233.763 12.7005 234.18 12.082C234.603 11.4635 235.186 10.9948 235.928 10.6758C235.296 10.3633 234.798 9.93034 234.434 9.37695C234.069 8.82357 233.887 8.19531 233.887 7.49219C233.887 6.29427 234.271 5.34375 235.039 4.64062C235.807 3.9375 236.82 3.58594 238.076 3.58594C239.326 3.58594 240.335 3.9375 241.104 4.64062C241.878 5.34375 242.266 6.29427 242.266 7.49219ZM240.791 14.123C240.791 13.3288 240.537 12.681 240.029 12.1797C239.528 11.6784 238.87 11.4277 238.057 11.4277C237.243 11.4277 236.589 11.6751 236.094 12.1699C235.605 12.6647 235.361 13.3158 235.361 14.123C235.361 14.9303 235.599 15.5651 236.074 16.0273C236.556 16.4896 237.223 16.7207 238.076 16.7207C238.923 16.7207 239.587 16.4896 240.068 16.0273C240.55 15.5586 240.791 14.9238 240.791 14.123ZM238.076 5.07031C237.367 5.07031 236.79 5.29167 236.348 5.73438C235.911 6.17057 235.693 6.76628 235.693 7.52148C235.693 8.24414 235.908 8.83008 236.338 9.2793C236.774 9.72201 237.354 9.94336 238.076 9.94336C238.799 9.94336 239.375 9.72201 239.805 9.2793C240.241 8.83008 240.459 8.24414 240.459 7.52148C240.459 6.79883 240.234 6.20964 239.785 5.75391C239.336 5.29818 238.766 5.07031 238.076 5.07031ZM248.604 11.291L250.947 7.43359H253.057L249.6 12.6582L253.164 18H251.074L248.633 14.0449L246.191 18H244.092L247.656 12.6582L244.199 7.43359H246.289L248.604 11.291ZM261.719 11.75C261.341 12.1992 260.889 12.5605 260.361 12.834C259.84 13.1074 259.268 13.2441 258.643 13.2441C257.822 13.2441 257.106 13.0423 256.494 12.6387C255.889 12.235 255.42 11.6686 255.088 10.9395C254.756 10.2038 254.59 9.39323 254.59 8.50781C254.59 7.55729 254.769 6.70117 255.127 5.93945C255.492 5.17773 256.006 4.59505 256.67 4.19141C257.334 3.78776 258.109 3.58594 258.994 3.58594C260.4 3.58594 261.507 4.11328 262.314 5.16797C263.128 6.21615 263.535 7.64844 263.535 9.46484V9.99219C263.535 12.7591 262.988 14.7806 261.895 16.0566C260.801 17.3262 259.15 17.9772 256.943 18.0098H256.592V16.4863H256.973C258.464 16.4603 259.609 16.0729 260.41 15.3242C261.211 14.569 261.647 13.3776 261.719 11.75ZM258.936 11.75C259.541 11.75 260.098 11.5645 260.605 11.1934C261.12 10.8223 261.494 10.3633 261.729 9.81641V9.09375C261.729 7.90885 261.471 6.94531 260.957 6.20312C260.443 5.46094 259.792 5.08984 259.004 5.08984C258.21 5.08984 257.572 5.39583 257.09 6.00781C256.608 6.61328 256.367 7.41406 256.367 8.41016C256.367 9.38021 256.598 10.181 257.061 10.8125C257.529 11.4375 258.154 11.75 258.936 11.75ZM274.941 11.9355C274.941 14.0514 274.58 15.6237 273.857 16.6523C273.135 17.681 272.005 18.1953 270.469 18.1953C268.952 18.1953 267.829 17.694 267.1 16.6914C266.37 15.6823 265.993 14.1784 265.967 12.1797V9.76758C265.967 7.67773 266.328 6.125 267.051 5.10938C267.773 4.09375 268.906 3.58594 270.449 3.58594C271.979 3.58594 273.105 4.07747 273.828 5.06055C274.551 6.03711 274.922 7.54753 274.941 9.5918V11.9355ZM273.135 9.46484C273.135 7.9349 272.92 6.82161 272.49 6.125C272.061 5.42188 271.38 5.07031 270.449 5.07031C269.525 5.07031 268.851 5.41862 268.428 6.11523C268.005 6.81185 267.786 7.88281 267.773 9.32812V12.2188C267.773 13.7552 267.995 14.8913 268.438 15.627C268.887 16.3561 269.564 16.7207 270.469 16.7207C271.361 16.7207 272.021 16.3757 272.451 15.6855C272.887 14.9954 273.115 13.9082 273.135 12.4238V9.46484Z" fill="white"/>
</svg>
