<svg viewBox="0 0 106 106" fill="none" xmlns="http://www.w3.org/2000/svg">
<circle cx="53" cy="53" r="51.5" stroke="white" stroke-width="3"/>
<g clip-path="url(#clip0)">
<path d="M79.598 27.79C80.466 27.79 81.21 28.5185 81.21 29.402V77.8085C81.21 78.6765 80.4815 79.4205 79.598 79.4205H26.402C25.534 79.4205 24.79 78.692 24.79 77.8085V29.402C24.79 28.5185 25.5185 27.79 26.402 27.79H79.598ZM79.598 25H26.402C23.984 25 22 26.984 22 29.402V77.8085C22 80.2265 23.984 82.195 26.402 82.195H79.6135C82.0315 82.195 84.0155 80.211 84.0155 77.793V29.402C84 26.984 82.016 25 79.598 25Z" fill="white"/>
<path d="M75.4446 38.6865V73.422H30.5566V38.6865H75.4446ZM78.2346 35.8965H27.7666V76.212H78.2346V35.8965Z" fill="white"/>
<path d="M67.0123 34.4705C68.5788 34.4705 69.8488 33.2005 69.8488 31.634C69.8488 30.0674 68.5788 28.7975 67.0123 28.7975C65.4457 28.7975 64.1758 30.0674 64.1758 31.634C64.1758 33.2005 65.4457 34.4705 67.0123 34.4705Z" fill="white"/>
<path d="M74.3431 34.4705C75.9096 34.4705 77.1796 33.2005 77.1796 31.634C77.1796 30.0674 75.9096 28.7975 74.3431 28.7975C72.7765 28.7975 71.5066 30.0674 71.5066 31.634C71.5066 33.2005 72.7765 34.4705 74.3431 34.4705Z" fill="white"/>
<path d="M59.6182 34.4705C61.1848 34.4705 62.4548 33.2005 62.4548 31.634C62.4548 30.0674 61.1848 28.7975 59.6182 28.7975C58.0517 28.7975 56.7817 30.0674 56.7817 31.634C56.7817 33.2005 58.0517 34.4705 59.6182 34.4705Z" fill="white"/>
<path d="M47.9008 63.44L34.4158 57.581V54.326L47.9008 48.4825V52.311L38.4923 55.907L47.9008 59.6425V63.44Z" fill="white"/>
<path d="M49.1409 66.013L54.0079 45.6615H56.8444L51.9154 66.013H49.1409Z" fill="white"/>
<path d="M58.0991 63.4556V59.6581L67.5231 55.9536L58.0991 52.2956V48.5291L71.5996 54.3726V57.5966L58.0991 63.4556Z" fill="white"/>
</g>
<defs>
<clipPath id="clip0">
<rect width="62" height="57" fill="white" transform="translate(22 25)"/>
</clipPath>
</defs>
</svg>
