<svg width="21" height="247" viewBox="0 0 21 247" fill="none" xmlns="http://www.w3.org/2000/svg">
<path d="M10.5 147V247" stroke="white"/>
<path d="M13.5098 8.68359L4 8.68359V7.62891L12.6045 7.62891L12.6045 3.73535L9.04492 3.56836C7.72656 3.49805 6.71875 3.36621 6.02148 3.17285C5.33008 2.97949 4.82031 2.69238 4.49219 2.31152C4.16406 1.93066 4 1.42383 4 0.791016V0.386719L4.93164 0.386719L4.94922 0.711914C4.96094 1.31543 5.25391 1.74902 5.82812 2.0127C6.40234 2.27637 7.42773 2.44922 8.9043 2.53125L13.5098 2.72461L13.5098 8.68359ZM13.5098 17.7627V18.8174L4 18.8174V17.7627L11.8135 17.7627L4 12.6299V11.584L13.5098 11.584L13.5098 12.6299L5.6875 12.6299L13.5098 17.7627ZM4.71191 25.1543C4.71191 25.8867 4.91699 26.499 5.32715 26.9912C5.74316 27.4893 6.2793 27.7588 6.93555 27.7998V28.8105C6.35547 28.7812 5.8252 28.5996 5.34473 28.2656C4.87012 27.9316 4.49805 27.4863 4.22852 26.9297C3.95898 26.3789 3.82422 25.7871 3.82422 25.1543C3.82422 23.9062 4.25781 22.916 5.125 22.1836C5.99219 21.457 7.1582 21.0937 8.62305 21.0937H8.93945C9.87695 21.0937 10.7061 21.2578 11.4268 21.5859C12.1475 21.9141 12.7041 22.3828 13.0967 22.9922C13.4893 23.6074 13.6855 24.3252 13.6855 25.1455C13.6855 26.1885 13.375 27.0469 12.7539 27.7207C12.1328 28.4004 11.3154 28.7637 10.3018 28.8105V27.7998C11.0459 27.7529 11.6465 27.4834 12.1035 26.9912C12.5605 26.5049 12.7891 25.8896 12.7891 25.1455C12.7891 24.1963 12.4463 23.458 11.7607 22.9307C11.0752 22.4092 10.1143 22.1484 8.87793 22.1484H8.57031C7.35742 22.1484 6.41113 22.4092 5.73145 22.9307C5.05176 23.458 4.71191 24.1992 4.71191 25.1543ZM12.6133 37.749V34.2861H4V33.2314H12.6133V29.9004H13.5098L13.5098 37.749H12.6133ZM4 45.3428C4.29883 45.2373 4.74121 45.1699 5.32715 45.1406C4.84668 44.7715 4.47461 44.2998 4.21094 43.7256C3.95312 43.1572 3.82422 42.5537 3.82422 41.915C3.82422 41.001 4.0791 40.2598 4.58887 39.6914C5.09863 39.1289 5.74316 38.8477 6.52246 38.8477C7.44824 38.8477 8.18066 39.2314 8.71973 39.999C9.25879 40.7725 9.52832 41.8477 9.52832 43.2246L9.52832 45.1318H10.6094C11.2891 45.1318 11.8223 44.9209 12.209 44.499C12.6016 44.083 12.7979 43.4736 12.7979 42.6709C12.7979 41.9385 12.6104 41.332 12.2354 40.8516C11.8604 40.3711 11.4092 40.1309 10.8818 40.1309L10.8906 39.0762C11.6465 39.0762 12.2998 39.4277 12.8506 40.1309C13.4072 40.834 13.6855 41.6982 13.6855 42.7236C13.6855 43.7842 13.4189 44.6191 12.8857 45.2285C12.3584 45.8438 11.6201 46.1602 10.6709 46.1777H6.1709C5.25098 46.1777 4.5625 46.2744 4.10547 46.4678H4V45.3428ZM4.75586 42.0381C4.75586 42.7412 4.92578 43.3682 5.26562 43.9189C5.60547 44.4756 6.05957 44.8799 6.62793 45.1318H8.71973L8.71973 43.251C8.70801 42.2021 8.51465 41.3818 8.13965 40.79C7.77051 40.1982 7.26074 39.9023 6.61035 39.9023C6.07715 39.9023 5.63477 40.0986 5.2832 40.4912C4.93164 40.8896 4.75586 41.4053 4.75586 42.0381ZM13.5098 55.2393V56.2939H4V55.2393H11.8135L4 50.1064V49.0605H13.5098V50.1064H5.6875L13.5098 55.2393ZM16.9375 55.1865C16.2637 55.1865 15.7187 54.9551 15.3027 54.4922C14.8867 54.0352 14.6787 53.4199 14.6787 52.6465C14.6787 51.8848 14.8838 51.2695 15.2939 50.8008C15.71 50.3379 16.2578 50.1064 16.9375 50.1064L16.9375 51.0029C16.4512 51.0029 16.0791 51.1465 15.8213 51.4336C15.5635 51.7266 15.4346 52.1309 15.4346 52.6465C15.4346 53.1621 15.5693 53.5635 15.8389 53.8506C16.1084 54.1436 16.4746 54.29 16.9375 54.29V55.1865ZM12.6133 65.9443L12.6133 62.4814H4V61.4268H12.6133V58.0957H13.5098L13.5098 65.9443H12.6133ZM3.82422 70.6553C3.82422 69.8467 4.02344 69.1143 4.42187 68.458C4.82031 67.8076 5.37402 67.3008 6.08301 66.9375C6.79785 66.5742 7.59766 66.3926 8.48242 66.3926H8.86035C9.77441 66.3926 10.5977 66.5684 11.3301 66.9199C12.0625 67.2773 12.6367 67.7725 13.0527 68.4053C13.4746 69.0381 13.6855 69.7236 13.6855 70.4619C13.6855 71.6162 13.29 72.5303 12.499 73.2041C11.7139 73.8838 10.6387 74.2236 9.27344 74.2236H8.68457L8.68457 67.4385H8.48242C7.4043 67.4385 6.50488 67.7461 5.78418 68.3613C5.06934 68.9824 4.71191 69.7617 4.71191 70.6992C4.71191 71.2617 4.81445 71.7568 5.01953 72.1846C5.22461 72.6182 5.55273 73.0107 6.00391 73.3623L5.50293 74.0215C4.38379 73.248 3.82422 72.126 3.82422 70.6553ZM12.7891 70.4619C12.7891 69.6709 12.499 69.0029 11.9189 68.458C11.3389 67.9189 10.5596 67.5908 9.58105 67.4736L9.58105 73.1777H9.69531C10.6094 73.1484 11.3535 72.8877 11.9277 72.3955C12.502 71.9033 12.7891 71.2588 12.7891 70.4619ZM4 87.9521L4 86.8975H8.35937L8.35937 81.7734H4V80.7188H13.5098V81.7734H9.24707L9.24707 86.8975H13.5098V87.9521H4ZM13.5098 97.0225V98.0771H4V97.0225H11.8135L4 91.8896V90.8438H13.5098V91.8896H5.6875L13.5098 97.0225ZM8.39453 108.167V106.901H4L4 105.847H8.39453V104.59L4 101.074V99.7383L8.87793 103.676L13.5098 100.178V101.452L9.33496 104.572V105.847H13.5098V106.901H9.33496V108.185L13.5098 111.305V112.597L8.87793 109.081L4 113.027V111.683L8.39453 108.167ZM3.82422 118.222C3.82422 117.413 4.02344 116.681 4.42187 116.024C4.82031 115.374 5.37402 114.867 6.08301 114.504C6.79785 114.141 7.59766 113.959 8.48242 113.959H8.86035C9.77441 113.959 10.5977 114.135 11.3301 114.486C12.0625 114.844 12.6367 115.339 13.0527 115.972C13.4746 116.604 13.6855 117.29 13.6855 118.028C13.6855 119.183 13.29 120.097 12.499 120.771C11.7139 121.45 10.6387 121.79 9.27344 121.79H8.68457L8.68457 115.005H8.48242C7.4043 115.005 6.50488 115.312 5.78418 115.928C5.06934 116.549 4.71191 117.328 4.71191 118.266C4.71191 118.828 4.81445 119.323 5.01953 119.751C5.22461 120.185 5.55273 120.577 6.00391 120.929L5.50293 121.588C4.38379 120.814 3.82422 119.692 3.82422 118.222ZM12.7891 118.028C12.7891 117.237 12.499 116.569 11.9189 116.024C11.3389 115.485 10.5596 115.157 9.58105 115.04V120.744H9.69531C10.6094 120.715 11.3535 120.454 11.9277 119.962C12.502 119.47 12.7891 118.825 12.7891 118.028Z" fill="white"/>
</svg>
