<svg width="32" height="32" viewBox="0 0 32 32" fill="none" xmlns="http://www.w3.org/2000/svg">
<path d="M28.9163 10.674C28.9004 9.58288 28.6982 8.50039 28.3113 7.47988C27.6342 5.73722 26.2553 4.35924 24.5098 3.68467C23.5006 3.30558 22.4336 3.10234 21.3536 3.07928C19.9647 3.0173 19.5243 3 15.9986 3C12.4728 3 12.0209 3 10.642 3.07928C9.56353 3.10234 8.49656 3.30558 7.48734 3.68467C5.74178 4.35924 4.36151 5.73722 3.68581 7.47988C3.30609 8.48742 3.10107 9.55261 3.08085 10.6293C3.01877 12.0174 3 12.457 3 15.9769C3 19.4968 3 19.9466 3.08085 21.3245C3.10251 22.4027 3.30609 23.4665 3.68581 24.4769C4.36295 26.2181 5.74178 27.5961 7.48878 28.2707C8.49367 28.6627 9.56064 28.8847 10.6435 28.9193C12.0339 28.9813 12.4742 29 16 29C19.5258 29 19.9777 29 21.3565 28.9193C22.435 28.8977 23.502 28.6944 24.5127 28.3153C26.2582 27.6393 27.6371 26.2613 28.3142 24.5201C28.6939 23.5111 28.8975 22.4474 28.9191 21.3678C28.9812 19.9812 29 19.5415 29 16.0202C28.9971 12.5003 28.9971 12.0534 28.9163 10.674ZM15.9899 22.6333C12.3024 22.6333 9.31519 19.6511 9.31519 15.9697C9.31519 12.2884 12.3024 9.30613 15.9899 9.30613C19.6745 9.30613 22.6646 12.2884 22.6646 15.9697C22.6646 19.6511 19.6745 22.6333 15.9899 22.6333ZM22.9303 10.6135C22.0683 10.6135 21.3738 9.91873 21.3738 9.05965C21.3738 8.20058 22.0683 7.50582 22.9303 7.50582C23.7893 7.50582 24.4852 8.20058 24.4852 9.05965C24.4852 9.91873 23.7893 10.6135 22.9303 10.6135Z" fill="white"/>
<path d="M15.992 19.976C18.2034 19.976 19.996 18.1834 19.996 15.972C19.996 13.7607 18.2034 11.968 15.992 11.968C13.7807 11.968 11.988 13.7607 11.988 15.972C11.988 18.1834 13.7807 19.976 15.992 19.976Z" fill="white"/>
</svg>
