<?xml version="1.0" encoding="utf-8"?>
<!-- Generator: Adobe Illustrator 23.0.1, SVG Export Plug-In . SVG Version: 6.00 Build 0)  -->
<svg version="1.1" xmlns="http://www.w3.org/2000/svg" xmlns:xlink="http://www.w3.org/1999/xlink" x="0px" y="0px"
	 viewBox="0 0 106 106" style="enable-background:new 0 0 106 106;" xml:space="preserve">
<style type="text/css">
	.st0{display:none;}
	.st1{display:inline;fill:#020202;}
	.st2{fill:#FFFFFF;}
	.st3{display:inline;fill:#FFFFFF;}
	.st4{fill:none;stroke:#FFFFFF;stroke-width:3;}
</style>
<g id="Слой_2" class="st0">
	<rect x="-6.3" y="-2.2" class="st1" width="138.6" height="120.7"/>
</g>
<g id="Слой_1">
	<g>
		<path class="st2" d="M53,106C23.8,106,0,82.2,0,53C0,23.8,23.8,0,53,0c29.2,0,53,23.8,53,53C106,82.2,82.2,106,53,106z M53,3
			C25.4,3,3,25.4,3,53s22.4,50,50,50s50-22.4,50-50S80.6,3,53,3z"/>
	</g>
	<path class="st2" d="M74.5,31.5c-1.5-1.5-3.4-2.3-5.5-2.3c-2.1,0-4,0.8-5.5,2.3l-5,5c-0.3,0.3-0.4,0.6-0.4,1c0,0.4,0.2,0.8,0.4,1
		c0.3,0.3,0.6,0.4,1,0.4s0.8-0.2,1-0.4l5-5c0.9-0.9,2.1-1.4,3.5-1.4c1.3,0,2.5,0.5,3.5,1.4c0.9,0.9,1.4,2.1,1.4,3.5
		c0,1.3-0.5,2.5-1.4,3.5L66,46.9c-0.7-1.5-1.7-2.9-2.8-4c-2.7-2.7-6.3-4.2-10.2-4.2s-7.4,1.5-10.2,4.2l-16,16
		c-2.7,2.7-4.2,6.3-4.2,10.1s1.5,7.4,4.2,10.1c2.7,2.7,6.3,4.2,10.2,4.2c3.8,0,7.4-1.5,10.2-4.2l8.5-8.5c0.3-0.3,0.4-0.6,0.4-1
		s-0.2-0.8-0.4-1c-0.3-0.3-0.6-0.4-1-0.4c-0.4,0-0.8,0.2-1,0.4l-8.5,8.5c-2.2,2.2-5,3.4-8.1,3.4c-3.1,0-5.9-1.2-8.1-3.4
		c-2.2-2.2-3.3-5-3.3-8.1c0-3.1,1.2-5.9,3.3-8.1l16-16c2.2-2.2,5-3.4,8.1-3.4s5.9,1.2,8.1,3.4c1.2,1.2,2.1,2.6,2.7,4.2l-7.3,7.3
		c-0.9,0.9-2.1,1.4-3.5,1.4c-1.3,0-2.5-0.5-3.5-1.4c-0.5-0.5-0.8-1-1.1-1.6c-0.2-0.6-0.8-0.9-1.3-0.9c-0.2,0-0.4,0-0.5,0.1
		c-0.4,0.1-0.6,0.4-0.8,0.8s-0.2,0.8,0,1.1c0.4,1,1,1.8,1.7,2.6c1.5,1.5,3.4,2.3,5.5,2.3s4-0.8,5.5-2.3l16-16
		c1.5-1.5,2.3-3.4,2.3-5.5C76.8,35,76,33,74.5,31.5z"/>
	<path class="st2" d="M79.1,26.9c-2.7-2.7-6.3-4.2-10.2-4.2s-7.4,1.5-10.2,4.2l-8.5,8.5c-0.3,0.3-0.4,0.6-0.4,1c0,0.4,0.2,0.8,0.4,1
		c0.3,0.3,0.6,0.4,1,0.4c0.4,0,0.8-0.2,1-0.4l8.5-8.5c2.2-2.2,5-3.3,8.1-3.3c3.1,0,5.9,1.2,8.1,3.3c2.2,2.2,3.3,5,3.3,8.1
		c0,3.1-1.2,5.9-3.3,8.1l-16,16c-2.2,2.2-5,3.4-8.1,3.4c-3.1,0-5.9-1.2-8.1-3.4c-1.2-1.2-2.1-2.6-2.7-4.2l7.3-7.3
		c0.9-0.9,2.1-1.4,3.5-1.4c1.3,0,2.5,0.5,3.5,1.4c0.5,0.5,0.8,1,1.1,1.6c0.2,0.6,0.8,0.9,1.3,0.9c0.2,0,0.4,0,0.5-0.1
		c0.4-0.1,0.6-0.4,0.8-0.8c0.2-0.4,0.2-0.8,0-1.1c-0.4-1-1-1.8-1.7-2.6c-1.5-1.5-3.4-2.3-5.5-2.3c-2.1,0-4,0.8-5.5,2.3l-7.8,7.8l0,0
		c-0.3,0.3-1.6,1.6-8.2,8.2c-1.5,1.5-2.3,3.4-2.3,5.5s0.8,4,2.3,5.5c1.5,1.5,3.4,2.3,5.5,2.3c2.1,0,4-0.8,5.5-2.3l5-5
		c0.3-0.3,0.4-0.6,0.4-1s-0.2-0.8-0.4-1S47,67,46.6,67c-0.4,0-0.8,0.2-1,0.4l-5,5c-0.9,0.9-2.1,1.4-3.5,1.4c-1.3,0-2.5-0.5-3.5-1.4
		c-0.9-0.9-1.4-2.1-1.4-3.5c0-1.3,0.5-2.5,1.4-3.5l6.4-6.4c0.7,1.5,1.7,2.8,2.8,4c2.7,2.7,6.3,4.2,10.2,4.2c3.8,0,7.4-1.5,10.2-4.2
		l16-16c2.7-2.7,4.2-6.3,4.2-10.1C83.3,33.2,81.8,29.6,79.1,26.9z"/>
	<g class="st0">
		<path class="st3" d="M69,23.2c3.5,0,7.1,1.4,9.8,4c5.4,5.4,5.4,14.2,0,19.6l-16,16c-2.6,2.6-6.1,4.1-9.8,4.1
			c-3.7,0-7.2-1.4-9.8-4.1c-1.3-1.3-2.3-2.9-3-4.5l-6.9,6.9c-1,1-1.6,2.4-1.6,3.8c0,1.4,0.6,2.8,1.6,3.8c1,1,2.4,1.6,3.8,1.6
			c1.4,0,2.8-0.6,3.8-1.6l5-5c0.2-0.2,0.4-0.3,0.7-0.3s0.5,0.1,0.7,0.3c0.4,0.4,0.4,1,0,1.3l-5,5c-1.4,1.4-3.2,2.1-5.2,2.1
			c-1.9,0-3.8-0.8-5.2-2.1c-1.4-1.4-2.1-3.2-2.1-5.1c0-1.9,0.8-3.8,2.1-5.1c0,0,8-8.1,8.2-8.2l7.8-7.8c1.4-1.4,3.2-2.1,5.2-2.1
			c1.9,0,3.8,0.8,5.2,2.1c0.7,0.7,1.2,1.5,1.6,2.4c0.2,0.5,0,1-0.5,1.2c-0.1,0-0.2,0.1-0.4,0.1c-0.4,0-0.7-0.2-0.9-0.6
			c-0.3-0.7-0.7-1.3-1.2-1.8c-1-1-2.4-1.6-3.8-1.6c-1.4,0-2.8,0.6-3.8,1.6l-7.6,7.6c0.6,1.8,1.6,3.4,2.9,4.7
			c2.3,2.3,5.3,3.5,8.5,3.5s6.2-1.2,8.5-3.5l16-16c4.7-4.7,4.7-12.2,0-16.9c-2.3-2.3-5.4-3.5-8.5-3.5s-6.1,1.2-8.5,3.5L52,37.1
			c-0.2,0.2-0.4,0.3-0.7,0.3s-0.5-0.1-0.7-0.3c-0.4-0.4-0.4-1,0-1.3l8.5-8.5C61.9,24.5,65.4,23.2,69,23.2 M69,22.7
			c-3.8,0-7.4,1.5-10.2,4.2l-8.5,8.5c-0.3,0.3-0.4,0.6-0.4,1c0,0.4,0.2,0.8,0.4,1c0.3,0.3,0.6,0.4,1,0.4c0.4,0,0.8-0.2,1-0.4
			l8.5-8.5c2.2-2.2,5-3.3,8.1-3.3c3.1,0,5.9,1.2,8.1,3.3c2.2,2.2,3.3,5,3.3,8.1c0,3.1-1.2,5.9-3.3,8.1l-16,16
			c-2.2,2.2-5,3.4-8.1,3.4c-3.1,0-5.9-1.2-8.1-3.4c-1.2-1.2-2.1-2.6-2.7-4.2l7.3-7.3c0.9-0.9,2.1-1.4,3.5-1.4c1.3,0,2.5,0.5,3.5,1.4
			c0.5,0.5,0.8,1,1.1,1.6c0.2,0.6,0.8,0.9,1.3,0.9c0.2,0,0.4,0,0.5-0.1c0.4-0.1,0.6-0.4,0.8-0.8c0.2-0.4,0.2-0.8,0-1.1
			c-0.4-1-1-1.8-1.7-2.6c-1.5-1.5-3.4-2.3-5.5-2.3c-2.1,0-4,0.8-5.5,2.3l-7.8,7.8l0,0c-0.3,0.3-1.6,1.6-8.2,8.2
			c-1.5,1.5-2.3,3.4-2.3,5.5c0,2.1,0.8,4,2.3,5.5c1.5,1.5,3.4,2.3,5.5,2.3c2.1,0,4-0.8,5.5-2.3l5-5c0.3-0.3,0.4-0.6,0.4-1
			c0-0.4-0.2-0.8-0.4-1c-0.3-0.3-0.6-0.4-1-0.4c-0.4,0-0.8,0.2-1,0.4l-5,5c-0.9,0.9-2.1,1.4-3.5,1.4c-1.3,0-2.5-0.5-3.5-1.4
			c-0.9-0.9-1.4-2.1-1.4-3.5c0-1.3,0.5-2.5,1.4-3.5l6.4-6.4c0.7,1.5,1.7,2.8,2.8,4c2.7,2.7,6.3,4.2,10.2,4.2c3.8,0,7.4-1.5,10.2-4.2
			l16-16c2.7-2.7,4.2-6.3,4.2-10.1c0-3.8-1.5-7.4-4.2-10.1C76.4,24.2,72.8,22.7,69,22.7L69,22.7z"/>
	</g>
</g>
<g id="Слой_1__x28_копия_x29_" class="st0">
	<circle class="st4" cx="53" cy="53" r="51.5"/>
	<g>
		<path class="st3" d="M69,29.7c1.9,0,3.8,0.8,5.2,2.1c1.4,1.4,2.1,3.2,2.1,5.1c0,1.9-0.8,3.8-2.1,5.1l-16,16
			c-1.4,1.4-3.2,2.1-5.2,2.1c-1.9,0-3.8-0.8-5.2-2.1c-0.7-0.7-1.2-1.5-1.6-2.4c-0.2-0.5,0-1,0.5-1.2c0.1,0,0.2-0.1,0.4-0.1
			c0.4,0,0.7,0.2,0.9,0.6c0.3,0.7,0.7,1.3,1.2,1.8c1,1,2.4,1.6,3.8,1.6c1.4,0,2.8-0.6,3.8-1.6l7.6-7.6c-0.6-1.8-1.6-3.4-2.9-4.7
			c-2.3-2.3-5.3-3.5-8.5-3.5s-6.2,1.2-8.5,3.5l-16,16c-4.7,4.7-4.7,12.2,0,16.9c2.3,2.3,5.3,3.5,8.5,3.5c3.2,0,6.2-1.2,8.5-3.5
			l8.5-8.5c0.2-0.2,0.4-0.3,0.7-0.3c0.2,0,0.5,0.1,0.7,0.3c0.4,0.4,0.4,1,0,1.3l-8.5,8.5c-2.7,2.7-6.2,4-9.8,4c-3.5,0-7.1-1.3-9.8-4
			c-5.4-5.4-5.4-14.2,0-19.6l16-16c2.7-2.7,6.2-4,9.8-4s7.1,1.3,9.8,4c1.3,1.3,2.3,2.9,3,4.5l6.9-6.9c1-1,1.6-2.4,1.6-3.8
			c0-1.4-0.6-2.8-1.6-3.8c-1-1-2.4-1.6-3.8-1.6c-1.4,0-2.8,0.6-3.8,1.6l-5,5c-0.2,0.2-0.4,0.3-0.7,0.3s-0.5-0.1-0.7-0.3
			c-0.4-0.4-0.4-1,0-1.3l5-5C65.2,30.5,67,29.7,69,29.7 M69,29.2c-2.1,0-4,0.8-5.5,2.3l-5,5c-0.3,0.3-0.4,0.6-0.4,1
			c0,0.4,0.2,0.8,0.4,1c0.3,0.3,0.6,0.4,1,0.4s0.8-0.2,1-0.4l5-5c0.9-0.9,2.1-1.4,3.5-1.4c1.3,0,2.5,0.5,3.5,1.4
			c0.9,0.9,1.4,2.1,1.4,3.5c0,1.3-0.5,2.5-1.4,3.5L66,46.9c-0.7-1.5-1.7-2.9-2.8-4c-2.7-2.7-6.3-4.2-10.2-4.2s-7.4,1.5-10.2,4.2
			l-16,16c-2.7,2.7-4.2,6.3-4.2,10.1s1.5,7.4,4.2,10.1c2.7,2.7,6.3,4.2,10.2,4.2c3.8,0,7.4-1.5,10.2-4.2l8.5-8.5
			c0.3-0.3,0.4-0.6,0.4-1c0-0.4-0.2-0.8-0.4-1c-0.3-0.3-0.6-0.4-1-0.4c-0.4,0-0.8,0.2-1,0.4l-8.5,8.5c-2.2,2.2-5,3.4-8.1,3.4
			c-3.1,0-5.9-1.2-8.1-3.4c-2.2-2.2-3.3-5-3.3-8.1c0-3.1,1.2-5.9,3.3-8.1l16-16c2.2-2.2,5-3.4,8.1-3.4c3.1,0,5.9,1.2,8.1,3.4
			c1.2,1.2,2.1,2.6,2.7,4.2l-7.3,7.3c-0.9,0.9-2.1,1.4-3.5,1.4c-1.3,0-2.5-0.5-3.5-1.4c-0.5-0.5-0.8-1-1.1-1.6
			c-0.2-0.6-0.8-0.9-1.3-0.9c-0.2,0-0.4,0-0.5,0.1c-0.4,0.1-0.6,0.4-0.8,0.8c-0.2,0.4-0.2,0.8,0,1.1c0.4,1,1,1.8,1.7,2.6
			c1.5,1.5,3.4,2.3,5.5,2.3c2.1,0,4-0.8,5.5-2.3l16-16c1.5-1.5,2.3-3.4,2.3-5.5c0-2.1-0.8-4-2.3-5.5C73,30.1,71.1,29.2,69,29.2
			L69,29.2z"/>
	</g>
</g>
</svg>
