<svg width="55" height="318" viewBox="0 0 55 318" fill="none" xmlns="http://www.w3.org/2000/svg">
<path d="M21.2929 314.707C21.6834 315.098 22.3166 315.098 22.7071 314.707L29.0711 308.343C29.4616 307.953 29.4616 307.319 29.0711 306.929C28.6805 306.538 28.0474 306.538 27.6569 306.929L22 312.586L16.3431 306.929C15.9526 306.538 15.3195 306.538 14.9289 306.929C14.5384 307.319 14.5384 307.953 14.9289 308.343L21.2929 314.707ZM22.7071 3.29288C22.3166 2.90234 21.6834 2.90234 21.2929 3.29288L14.9289 9.65683C14.5384 10.0474 14.5384 10.6805 14.9289 11.071C15.3195 11.4615 15.9526 11.4615 16.3431 11.071L22 5.41418L27.6569 11.071C28.0474 11.4615 28.6805 11.4615 29.0711 11.071C29.4616 10.6805 29.4616 10.0474 29.0711 9.65683L22.7071 3.29288ZM23 314L23 3.99997H21L21 314H23Z" fill="white"/>
<rect y="2" width="2" height="32" transform="rotate(-90 0 2)" fill="white"/>
<rect y="318" width="2" height="32" transform="rotate(-90 0 318)" fill="white"/>
<path d="M37 127.119V125.303H49.041L47.7031 121.66H49.3438L51.2871 126.836V127.119H37ZM51.2285 139.502H49.6953V139.17C49.6693 137.764 49.2526 136.644 48.4453 135.811C47.638 134.977 46.502 134.495 45.0371 134.365C45.8965 135.114 46.3262 136.136 46.3262 137.432C46.3262 138.669 45.89 139.655 45.0176 140.391C44.1452 141.133 43.0189 141.504 41.6387 141.504C40.1738 141.504 39.002 141.104 38.123 140.303C37.2441 139.508 36.8047 138.441 36.8047 137.1C36.8047 135.739 37.3255 134.635 38.3672 133.789C39.4154 132.943 40.763 132.52 42.4102 132.52H43.1035C45.7207 132.52 47.7194 133.076 49.0996 134.189C50.4863 135.309 51.196 136.973 51.2285 139.18V139.502ZM44.8223 137.129C44.8223 136.51 44.6367 135.941 44.2656 135.42C43.8945 134.899 43.429 134.538 42.8691 134.336H42.2051C41.0332 134.336 40.0892 134.6 39.373 135.127C38.6569 135.654 38.2988 136.312 38.2988 137.1C38.2988 137.913 38.5983 138.551 39.1973 139.014C39.7962 139.482 40.5807 139.717 41.5508 139.717C42.5273 139.717 43.3151 139.479 43.9141 139.004C44.5195 138.535 44.8223 137.91 44.8223 137.129ZM43.0645 152.559C40.9486 152.559 39.3763 152.197 38.3477 151.475C37.319 150.752 36.8047 149.622 36.8047 148.086C36.8047 146.569 37.306 145.446 38.3086 144.717C39.3177 143.988 40.8216 143.61 42.8203 143.584H45.2324C47.3223 143.584 48.875 143.945 49.8906 144.668C50.9062 145.391 51.4141 146.523 51.4141 148.066C51.4141 149.596 50.9225 150.723 49.9395 151.445C48.9629 152.168 47.4525 152.539 45.4082 152.559H43.0645ZM45.5352 150.752C47.0651 150.752 48.1784 150.537 48.875 150.107C49.5781 149.678 49.9297 148.997 49.9297 148.066C49.9297 147.142 49.5814 146.468 48.8848 146.045C48.1882 145.622 47.1172 145.404 45.6719 145.391H42.7812C41.2448 145.391 40.1087 145.612 39.373 146.055C38.6439 146.504 38.2793 147.181 38.2793 148.086C38.2793 148.978 38.6243 149.639 39.3145 150.068C40.0046 150.505 41.0918 150.732 42.5762 150.752H45.5352ZM43.709 158.604L47.5664 160.947V163.057L42.3418 159.6L37 163.164V161.074L40.9551 158.633L37 156.191V154.092L42.3418 157.656L47.5664 154.199V156.289L43.709 158.604ZM51.2285 171.885H49.6953V171.553C49.6693 170.146 49.2526 169.027 48.4453 168.193C47.638 167.36 46.502 166.878 45.0371 166.748C45.8965 167.497 46.3262 168.519 46.3262 169.814C46.3262 171.051 45.89 172.038 45.0176 172.773C44.1452 173.516 43.0189 173.887 41.6387 173.887C40.1738 173.887 39.002 173.486 38.123 172.686C37.2441 171.891 36.8047 170.824 36.8047 169.482C36.8047 168.122 37.3255 167.018 38.3672 166.172C39.4154 165.326 40.763 164.902 42.4102 164.902H43.1035C45.7207 164.902 47.7194 165.459 49.0996 166.572C50.4863 167.692 51.196 169.355 51.2285 171.562V171.885ZM44.8223 169.512C44.8223 168.893 44.6367 168.324 44.2656 167.803C43.8945 167.282 43.429 166.921 42.8691 166.719H42.2051C41.0332 166.719 40.0892 166.982 39.373 167.51C38.6569 168.037 38.2988 168.695 38.2988 169.482C38.2988 170.296 38.5983 170.934 39.1973 171.396C39.7962 171.865 40.5807 172.1 41.5508 172.1C42.5273 172.1 43.3151 171.862 43.9141 171.387C44.5195 170.918 44.8223 170.293 44.8223 169.512ZM43.0645 184.941C40.9486 184.941 39.3763 184.58 38.3477 183.857C37.319 183.135 36.8047 182.005 36.8047 180.469C36.8047 178.952 37.306 177.829 38.3086 177.1C39.3177 176.37 40.8216 175.993 42.8203 175.967H45.2324C47.3223 175.967 48.875 176.328 49.8906 177.051C50.9062 177.773 51.4141 178.906 51.4141 180.449C51.4141 181.979 50.9225 183.105 49.9395 183.828C48.9629 184.551 47.4525 184.922 45.4082 184.941H43.0645ZM45.5352 183.135C47.0651 183.135 48.1784 182.92 48.875 182.49C49.5781 182.061 49.9297 181.38 49.9297 180.449C49.9297 179.525 49.5814 178.851 48.8848 178.428C48.1882 178.005 47.1172 177.786 45.6719 177.773H42.7812C41.2448 177.773 40.1087 177.995 39.373 178.438C38.6439 178.887 38.2793 179.564 38.2793 180.469C38.2793 181.361 38.6243 182.021 39.3145 182.451C40.0046 182.887 41.0918 183.115 42.5762 183.135H45.5352ZM43.0645 196.172C40.9486 196.172 39.3763 195.811 38.3477 195.088C37.319 194.365 36.8047 193.236 36.8047 191.699C36.8047 190.182 37.306 189.059 38.3086 188.33C39.3177 187.601 40.8216 187.223 42.8203 187.197H45.2324C47.3223 187.197 48.875 187.559 49.8906 188.281C50.9062 189.004 51.4141 190.137 51.4141 191.68C51.4141 193.21 50.9225 194.336 49.9395 195.059C48.9629 195.781 47.4525 196.152 45.4082 196.172H43.0645ZM45.5352 194.365C47.0651 194.365 48.1784 194.15 48.875 193.721C49.5781 193.291 49.9297 192.611 49.9297 191.68C49.9297 190.755 49.5814 190.081 48.8848 189.658C48.1882 189.235 47.1172 189.017 45.6719 189.004H42.7812C41.2448 189.004 40.1087 189.225 39.373 189.668C38.6439 190.117 38.2793 190.794 38.2793 191.699C38.2793 192.591 38.6243 193.252 39.3145 193.682C40.0046 194.118 41.0918 194.346 42.5762 194.365H45.5352Z" fill="white"/>
</svg>
