<svg width="32" height="32" viewBox="0 0 32 32" fill="none" xmlns="http://www.w3.org/2000/svg">
<path d="M29 7.93907C28.043 8.3631 27.0162 8.65067 25.9374 8.77906C27.039 8.11941 27.8822 7.07313 28.2818 5.83022C27.2485 6.4411 26.108 6.88467 24.8927 7.12512C23.9195 6.08695 22.5353 5.44031 20.9999 5.44031C18.0543 5.44031 15.666 7.82861 15.666 10.7726C15.666 11.1901 15.7132 11.5979 15.8042 11.9878C11.372 11.7652 7.44188 9.64177 4.8115 6.4151C4.3517 7.20147 4.09013 8.11776 4.09013 9.09586C4.09013 10.9464 5.03246 12.5792 6.46221 13.5345C5.5881 13.5053 4.766 13.2648 4.04629 12.8651V12.9318C4.04629 15.515 5.88545 17.671 8.3241 18.1617C7.87729 18.2819 7.40615 18.3485 6.91874 18.3485C6.57432 18.3485 6.24125 18.3144 5.91468 18.2494C6.59378 20.3696 8.56294 21.9114 10.896 21.9537C9.07147 23.3835 6.77089 24.2332 4.27213 24.2332C3.8416 24.2332 3.41753 24.2072 3 24.1601C5.36069 25.6759 8.16329 26.5597 11.1755 26.5597C20.987 26.5597 26.3501 18.433 26.3501 11.3851L26.3322 10.6946C27.3801 9.94719 28.2867 9.00813 29 7.93907Z" fill="white"/>
</svg>
