<svg width="32" height="32" viewBox="0 0 32 32" fill="none" xmlns="http://www.w3.org/2000/svg">
<g clip-path="url(#clip1)">
<path d="M31.8304 23.3598C31.7916 23.2762 31.7555 23.207 31.7219 23.1515C31.1667 22.1516 30.1058 20.9242 28.5397 19.4691L28.5066 19.4358L28.49 19.4194L28.4733 19.4027H28.4564C27.7457 18.7251 27.2956 18.2695 27.1071 18.0363C26.7622 17.592 26.6849 17.1422 26.8734 16.6865C27.0066 16.3422 27.5068 15.6151 28.3729 14.5042C28.8285 13.9154 29.1893 13.4435 29.4558 13.088C31.3775 10.5332 32.2107 8.90064 31.9551 8.18969L31.8558 8.02355C31.7891 7.92353 31.617 7.83203 31.3396 7.74858C31.0616 7.66531 30.7062 7.65153 30.273 7.70703L25.4747 7.74018C25.397 7.71263 25.286 7.7152 25.1414 7.74858C24.9969 7.78196 24.9247 7.79871 24.9247 7.79871L24.8412 7.84043L24.7749 7.89056C24.7193 7.92371 24.6582 7.982 24.5915 8.06534C24.5252 8.14838 24.4697 8.24583 24.4253 8.35688C23.9029 9.70088 23.309 10.9505 22.6424 12.1056C22.2314 12.7943 21.8539 13.3913 21.5092 13.8967C21.165 14.4019 20.8762 14.7742 20.6431 15.0128C20.4097 15.2516 20.199 15.443 20.0098 15.5875C19.8209 15.7322 19.6767 15.7933 19.5769 15.7709C19.4768 15.7486 19.3826 15.7264 19.2933 15.7042C19.1379 15.6042 19.0129 15.4681 18.9187 15.296C18.824 15.1238 18.7603 14.9072 18.727 14.6461C18.6938 14.3849 18.6742 14.1603 18.6686 13.9714C18.6634 13.7827 18.6658 13.5158 18.6771 13.1715C18.6886 12.8271 18.6938 12.594 18.6938 12.4718C18.6938 12.0497 18.7021 11.5915 18.7186 11.0972C18.7354 10.6029 18.749 10.2113 18.7604 9.92281C18.7717 9.634 18.7769 9.32845 18.7769 9.00633C18.7769 8.6842 18.7573 8.43158 18.7186 8.24822C18.6803 8.0651 18.6215 7.88735 18.5441 7.71502C18.4662 7.54287 18.3522 7.40971 18.2025 7.31517C18.0526 7.22075 17.8662 7.14582 17.6444 7.09015C17.0557 6.95692 16.306 6.88485 15.395 6.87365C13.3291 6.85147 12.0017 6.98487 11.413 7.27368C11.1797 7.3957 10.9687 7.56242 10.7799 7.77332C10.58 8.01778 10.5521 8.15118 10.6964 8.17312C11.363 8.27297 11.8348 8.51182 12.1126 8.88944L12.2126 9.08954C12.2905 9.23392 12.3682 9.48952 12.446 9.85599C12.5237 10.2225 12.5738 10.6279 12.5959 11.072C12.6513 11.8829 12.6513 12.5771 12.5959 13.1546C12.5402 13.7323 12.4877 14.1821 12.4376 14.5042C12.3875 14.8264 12.3125 15.0874 12.2126 15.2872C12.1126 15.4872 12.046 15.6094 12.0126 15.6537C11.9793 15.6981 11.9515 15.726 11.9294 15.737C11.7851 15.7923 11.6349 15.8205 11.4795 15.8205C11.3239 15.8205 11.1351 15.7427 10.913 15.5871C10.691 15.4315 10.4606 15.2178 10.2217 14.9456C9.98285 14.6734 9.71348 14.293 9.41347 13.8043C9.1137 13.3156 8.80266 12.7381 8.48053 12.0717L8.21402 11.5883C8.04741 11.2774 7.81983 10.8247 7.53102 10.2306C7.24204 9.63622 6.98662 9.0613 6.76457 8.50592C6.67581 8.27267 6.54247 8.0951 6.36478 7.9729L6.28139 7.92277C6.22595 7.87842 6.13695 7.83133 6.01487 7.78114C5.89262 7.73101 5.76505 7.69507 5.63165 7.67295L1.06651 7.7061C0.600017 7.7061 0.283494 7.81178 0.116829 8.02285L0.0501278 8.1227C0.0168065 8.17831 0 8.26713 0 8.38939C0 8.51158 0.0333213 8.66156 0.100022 8.83914C0.766448 10.4054 1.49117 11.916 2.27419 13.371C3.05721 14.8261 3.73765 15.9981 4.31508 16.8862C4.89263 17.7749 5.48132 18.6137 6.08117 19.402C6.68101 20.1907 7.07806 20.6962 7.27233 20.9182C7.46683 21.1406 7.61961 21.307 7.73066 21.418L8.14726 21.8178C8.41383 22.0844 8.80529 22.4038 9.32179 22.7758C9.83842 23.148 10.4104 23.5145 11.0379 23.8758C11.6656 24.2365 12.3958 24.5308 13.229 24.7585C14.062 24.9864 14.8728 25.0778 15.6615 25.0337H17.5775C17.9661 25.0001 18.2605 24.8779 18.4606 24.667L18.5269 24.5835C18.5715 24.5172 18.6132 24.4142 18.6518 24.2757C18.6907 24.1368 18.7101 23.9839 18.7101 23.8175C18.6987 23.34 18.7351 22.9096 18.8182 22.5264C18.9012 22.1434 18.9959 21.8546 19.1017 21.6601C19.2075 21.4657 19.3269 21.3018 19.4598 21.1688C19.593 21.0356 19.6879 20.9549 19.7435 20.9271C19.7989 20.8992 19.843 20.8802 19.8764 20.8688C20.1429 20.78 20.4567 20.866 20.818 21.1273C21.179 21.3883 21.5177 21.7106 21.8344 22.0937C22.151 22.4771 22.5314 22.9072 22.9756 23.3847C23.4201 23.8624 23.8087 24.2175 24.1418 24.4511L24.4749 24.6511C24.6974 24.7845 24.9862 24.9067 25.3417 25.0177C25.6966 25.1287 26.0075 25.1565 26.2745 25.101L30.5395 25.0345C30.9614 25.0345 31.2896 24.9646 31.5225 24.826C31.7558 24.6872 31.8944 24.5342 31.9391 24.3679C31.9837 24.2013 31.9861 24.0123 31.9475 23.8011C31.908 23.5904 31.8691 23.443 31.8304 23.3598Z" fill="white"/>
</g>
<defs>
<clipPath id="clip1">
<rect width="32" height="32" fill="white"/>
</clipPath>
</defs>
</svg>
